<?xml version="1.0" standalone="no"?>
<!DOCTYPE svg PUBLIC "-//W3C//DTD SVG 1.1//EN" "http://www.w3.org/Graphics/SVG/1.1/DTD/svg11.dtd" >
<svg xmlns="http://www.w3.org/2000/svg" xmlns:xlink="http://www.w3.org/1999/xlink" version="1.1">
<metadata>
Created by FontForge 20180930 at Mon Oct  8 19:27:50 2018
 By root
Rio Oro (c) (Neale Davidson). 2012-2015. All Rights Reserved
</metadata>
<defs>
<font id="RioOro-Bold" horiz-adv-x="1000" >
  <font-face 
    font-family="Rio Oro"
    font-weight="700"
    font-stretch="normal"
    units-per-em="2048"
    panose-1="2 0 5 0 0 0 0 0 0 0"
    ascent="1638"
    descent="-410"
    x-height="1300"
    cap-height="1620"
    bbox="-194 -320 1825 2220"
    underline-thickness="150"
    underline-position="-292"
    unicode-range="U+0020-2122"
  />
    <missing-glyph />
    <glyph glyph-name="space" unicode=" " horiz-adv-x="800" 
 />
    <glyph glyph-name="space" unicode="&#xa0;" horiz-adv-x="800" 
 />
    <glyph glyph-name="exclam" unicode="!" horiz-adv-x="500" 
d="M291 311q34 -59 34 -136q0 -76 -34 -135.5t-91 -59.5t-91 59.5t-34 135.5q0 77 34 136t91 59t91 -59zM200 430q-125 0 -125 120v150q0 39 -121 100q122 61 122 100v250q0 80 -101 80v390h125q62 0 101 -38q37 38 99 38h125v-390q-99 0 -99 -80v-250q0 -39 122 -100
q-122 -61 -122 -100v-150q0 -120 -126 -120z" />
    <glyph glyph-name="quotedbl" unicode="&#x22;" horiz-adv-x="550" 
d="M225 1347v-97q0 -76 -34 -135.5t-91 -59.5q-40 0 -81 43q20 22 29 37q27 47 27 95q-32 0 -66 59.5t-34 135.5q0 77 34 136t91 59t91 -59q21 -36 29 -80q8 44 29 80q34 59 91 59t91 -59t34 -136v-175q0 -76 -34 -135.5t-91 -59.5q-40 0 -81 43q20 22 29 37q27 47 27 95
q-32 0 -66 60q-16 27 -24 57z" />
    <glyph glyph-name="numbersign" unicode="#" horiz-adv-x="1100" 
d="M826 930v-259h49v50h149l1 -70q0 -39 122 -100q-122 -60 -122 -100l-1 -70h-149v50h-49v-230q0 -120 -126 -120q-125 0 -125 120v229h-49v-230q0 -120 -126 -120q-125 0 -125 120v231h-50v-50l-150 1v70q0 39 -122 99q122 62 122 101v70h150v-50l51 -1v259h-51l-1 -50
h-149v70q0 39 -122 99q122 62 122 101v70h150v-50h50v229q0 120 125 120t125 -120v-229h50v230q0 120 125 120t125 -120v-230h50v50h149l1 -70q0 -39 122 -100q-122 -60 -122 -100l-1 -70h-149v50h-49zM526 930v-260h50v260h-50z" />
    <glyph glyph-name="dollar" unicode="$" horiz-adv-x="900" 
d="M275 943v157q-29 -13 -45 -92q14 -54 45 -65zM525 500q29 13 45 92q-14 54 -45 65v-157zM525 910q300 -41 300 -360v-100q0 -320 -300 -361v11q0 -120 -126 -120q-125 0 -125 120v-11q-36 6 -49 10v-19h-250v590h250q0 -149 49 -169v187q-299 44 -299 362v100
q0 320 299 361v-11q0 120 125 120t125 -120v11q38 -6 51 -10v19h250v-590h-250q0 150 -50 170v-190z" />
    <glyph glyph-name="percent" unicode="%" horiz-adv-x="1300" 
d="M390 680h10q-425 0 -425 370v200q0 369 425 370q121 0 174 -19v19h176q62 0 101 -38q37 38 99 38h125v-390h-74q-34 0 -83 -100h-2l-99 -173q-6 -32 -7 -37h-10q425 0 425 -370v-200q0 -369 -425 -370q-122 0 -175 19v-19h-175q-62 0 -99 38q-39 -38 -101 -38h-125v390
h76q32 0 63 60h-3l122 213q6 32 7 37zM974 452q0 178 -174 178t-174 -181v-51q0 -115 174 -128q174 13 174 131v51zM574 1152q0 178 -174 178t-174 -181v-51q0 -115 174 -128q174 13 174 131v51z" />
    <glyph glyph-name="ampersand" unicode="&#x26;" horiz-adv-x="900" 
d="M275 89q-300 41 -300 361v100q0 170 80 250q-80 80 -80 250v100q0 320 299 361v-11q0 120 125 120t125 -120v11q38 -6 51 -10v19h250v-590h-250q0 150 -50 170v-200q0 -39 122 -100q-122 -61 -122 -100v-200q50 21 50 170h250v-220q0 -320 -299 -361v11q0 -120 -126 -120
q-125 0 -125 120v-11zM275 951v164q-50 -10 -50 -65q0 -82 50 -99zM274 649q-49 -18 -49 -99q0 -55 49 -65v164z" />
    <glyph glyph-name="quotesingle" unicode="'" horiz-adv-x="300" 
d="M75 1230q-32 0 -66 59.5t-34 135.5q0 77 34 136t91 59t91 -59t34 -136v-175q0 -76 -34 -135.5t-91 -59.5q-40 0 -81 43q20 22 29 37q27 47 27 95z" />
    <glyph glyph-name="parenleft" unicode="(" horiz-adv-x="600" 
d="M525 1430q-200 0 -200 -180v-350q0 -39 122 -100q-122 -61 -122 -100v-350q0 -180 200 -180v-390q-450 0 -450 370v550q0 39 -122 100q122 61 122 100v550q0 370 450 370v-390z" />
    <glyph glyph-name="parenright" unicode=")" horiz-adv-x="600" 
d="M-25 1820q450 0 450 -370v-550q0 -39 122 -100q-122 -61 -122 -100v-550q0 -370 -450 -370v390q200 0 200 180v350q0 39 -122 100q122 61 122 100v350q0 180 -200 180v390z" />
    <glyph glyph-name="asterisk" unicode="*" horiz-adv-x="1053" 
d="M745 1396h130v-70q0 -39 121 -101q-121 -62 -121 -101v-70h-130l18 -57l48 14l44 -132l-69 -23q-33 -10 -54 -155q-97 95 -129 95q-5 0 -7 -1l-74 -24l-44 134l48 16l-51 159l-51 -159l48 -16l-44 -134l-74 24q-2 1 -7 1q-32 0 -129 -95q-21 145 -54 155l-69 23l44 132
l48 -14l18 57h-130v70q0 39 -121 101q121 62 121 101v70h130l-18 57l-48 -14l-44 132l69 23q33 10 54 155q97 -95 129 -95q5 0 7 1l74 24l44 -134l-48 -16l51 -159l51 159l-48 16l44 134l74 -24q2 -1 7 -1q32 0 129 95q21 -145 54 -155l69 -23l-44 -132l-48 14z" />
    <glyph glyph-name="plus" unicode="+" horiz-adv-x="900" 
d="M324 681h-99l-1 -50h-149v70q0 39 -122 99q122 62 122 101v70h150v-50h100v229q0 120 125 120t125 -120v-230h100v50h149l1 -70q0 -39 122 -100q-122 -60 -122 -100l-1 -70h-149v50h-100v-230q0 -120 -126 -120q-125 0 -125 120v231z" />
    <glyph glyph-name="comma" unicode="," horiz-adv-x="300" 
d="M75 -20q-32 0 -66 59.5t-34 135.5q0 77 34 136t91 59t91 -59t34 -136v-175q0 -76 -34 -135.5t-91 -59.5q-40 0 -81 43q20 22 29 37q27 47 27 95z" />
    <glyph glyph-name="hyphen" unicode="-" horiz-adv-x="900" 
d="M75 631v70q0 39 -122 99q122 62 122 101v70h150v-50l450 -1v50h149l1 -70q0 -39 122 -100q-122 -60 -122 -100l-1 -70h-149v50l-450 1l-1 -50h-149z" />
    <glyph glyph-name="hyphen" unicode="&#xad;" horiz-adv-x="900" 
d="M75 631v70q0 39 -122 99q122 62 122 101v70h150v-50l450 -1v50h149l1 -70q0 -39 122 -100q-122 -60 -122 -100l-1 -70h-149v50l-450 1l-1 -50h-149z" />
    <glyph glyph-name="period" unicode="." horiz-adv-x="300" 
d="M191 311q34 -59 34 -136q0 -76 -34 -135.5t-91 -59.5t-91 59.5t-34 135.5q0 77 34 136t91 59t91 -59z" />
    <glyph glyph-name="slash" unicode="/" 
d="M389 470h-1q-25 -49 -25 -64q0 -36 112 -36v-390h-175q-62 0 -99 38q-39 -38 -101 -38h-125v390h76q32 0 63 60h-3l418 730v1q9 18 9 33q0 36 -114 36v390h176q62 0 101 -38q37 38 99 38h125v-390h-74q-34 0 -83 -100h-2z" />
    <glyph glyph-name="zero" unicode="0" 
d="M947 800q-122 -61 -122 -100v-350q0 -370 -425 -370t-425 370v350q0 39 -122 100q122 61 122 100v350q0 370 425 370t425 -370v-350q0 -39 122 -100zM575 900v150q0 180 -175 180t-175 -180v-150q0 -39 122 -100q-122 -61 -122 -100v-150q0 -180 175 -180t175 180v150
q0 39 -122 100q122 61 122 100z" />
    <glyph glyph-name="one" unicode="1" horiz-adv-x="600" 
d="M525 370v-390h-175q-62 0 -99 38q-39 -38 -101 -38h-175v390h76q75 0 75 80v250q0 39 -122 100q122 61 122 100v150q0 80 -75 80h-76v226l211 264h189l1 -720q0 -39 122 -100q-122 -61 -122 -100v-250q0 -80 75 -80h74z" />
    <glyph glyph-name="two" unicode="2" 
d="M-25 551q0 344 350 366v4q58 0 125 134q60 -120 84 -129q141 18 141 125q0 180 -175 180h-100q-175 0 -175 -180v-70h-250v640h250v-19q53 19 175 19h100q425 0 425 -370v-200q0 -344 -350 -366v-4q-58 0 -125 -134q-60 120 -84 129q-137 -17 -141 -118q4 -187 75 -187
h300q74 0 75 80v120h250v-590h-176q-61 1 -99 38q-38 -37 -200 -38q-162 0 -199 37q-39 -38 -101 -38l-175 1v570z" />
    <glyph glyph-name="three" unicode="3" horiz-adv-x="900" 
d="M425 675l-1 -44h-149v70q0 39 -122 99q122 62 122 101v70h150v-48q150 11 150 127q0 180 -175 180t-175 -180v-70h-250v640h250v-19q53 19 175 19q425 0 425 -370v-200q0 -170 -80 -250q80 -80 80 -250v-200q0 -370 -425 -370t-425 370v270h250v-70q0 -180 175 -180
t175 180q0 101 -150 125z" />
    <glyph glyph-name="four" unicode="4" horiz-adv-x="1150" 
d="M75 580q0 59 -122 120q122 61 122 102l101 354q12 23 12 38q0 36 -88 36h-76v390h175q62 0 101 -38q37 38 99 38h125v-390q-79 0 -100 -84l-93 -326h344l1 330q0 80 -102 80v390h126q62 0 101 -38q37 38 99 38h175v-390h-74q-75 0 -75 -80l-1 -350q0 -39 122 -100
q-122 -61 -122 -100l1 -150q0 -80 75 -80h74v-390h-175q-62 0 -99 38q-39 -38 -101 -38h-126v390q102 0 102 80l-1 130h-600z" />
    <glyph glyph-name="five" unicode="5" horiz-adv-x="951" 
d="M875 550v-200q0 -370 -425 -370q-122 0 -175 19v-19h-250v640h250v-70q0 -180 175 -180t175 180q0 130 -150 130l-399 1q-1 58 -123 118q122 62 123 101v250q-1 80 -101 80v390h126q61 0 99 -39q40 39 201 39q162 0 200 -38q38 38 100 38h175v-590h-250l-1 120
q0 80 -74 81h-150q-76 -1 -76 -181l1 -130h174q375 0 375 -370z" />
    <glyph glyph-name="six" unicode="6" 
d="M500 679q-174 -13 -174 -128v-21h-1q0 -160 175 -160q174 0 174 178v3q0 115 -174 128zM325 901q53 19 175 19q393 -1 421 -300h4v-270q0 -370 -425 -370t-425 370v350q0 39 -122 100q122 61 122 100v350q0 370 425 370q122 0 175 -19v19h250v-640h-250v70
q0 180 -175 180t-175 -180v-149z" />
    <glyph glyph-name="seven" unicode="7" 
d="M607 680l-133 -238q-11 -21 -11 -36q0 -36 88 -36h74v-390h-175q-62 0 -99 38q-39 -38 -101 -38h-175v390h76q33 0 76 87l111 224h-113l-1 -50h-149v70q0 39 -122 99q122 62 122 101v70h150v-50l233 -1l155 310h-313q-74 0 -74 -80v-120h-251v590h175q62 0 101 -38
q37 38 199 38q161 0 201 -39q38 39 99 39h175v-374l-155 -276h54l1 -70q0 -39 122 -100q-122 -60 -122 -100l-1 -70h-149v50h-68z" />
    <glyph glyph-name="eight" unicode="8" horiz-adv-x="900" 
d="M400 -20q-425 0 -425 370v200q0 170 80 250q-80 80 -80 250v200q0 370 425 370t425 -370v-200q0 -170 -80 -250q80 -80 80 -250v-200q0 -370 -425 -370zM226 551v-3q0 -178 174 -178t174 178v3q0 115 -174 128q-174 -13 -174 -128zM226 1052v-3q0 -115 174 -128
q174 13 174 128v3q0 178 -174 178t-174 -178z" />
    <glyph glyph-name="nine" unicode="9" horiz-adv-x="900" 
d="M400 921q174 13 174 128v21h1q0 160 -175 160q-174 0 -174 -178v-3q0 -115 174 -128zM575 699q-53 -19 -175 -19q-393 1 -421 300h-4v270q0 370 425 370t425 -370v-350q0 -39 122 -100q-122 -61 -122 -100v-350q0 -370 -425 -370q-122 0 -175 19v-19h-250v640h250v-70
q0 -180 175 -180t175 180v149z" />
    <glyph glyph-name="colon" unicode=":" horiz-adv-x="300" 
d="M191 311q34 -59 34 -136q0 -76 -34 -135.5t-91 -59.5t-91 59.5t-34 135.5q0 77 34 136t91 59t91 -59zM191 936q34 -59 34 -136q0 -76 -34 -135.5t-91 -59.5t-91 59.5t-34 135.5q0 77 34 136t91 59t91 -59z" />
    <glyph glyph-name="semicolon" unicode=";" horiz-adv-x="300" 
d="M191 936q34 -59 34 -136q0 -76 -34 -135.5t-91 -59.5t-91 59.5t-34 135.5q0 77 34 136t91 59t91 -59zM75 -20q-32 0 -66 59.5t-34 135.5q0 77 34 136t91 59t91 -59t34 -136v-175q0 -76 -34 -135.5t-91 -59.5q-40 0 -81 43q20 22 29 37q27 47 27 95z" />
    <glyph glyph-name="semicolon" unicode="&#x37e;" horiz-adv-x="300" 
d="M191 936q34 -59 34 -136q0 -76 -34 -135.5t-91 -59.5t-91 59.5t-34 135.5q0 77 34 136t91 59t91 -59zM75 -20q-32 0 -66 59.5t-34 135.5q0 77 34 136t91 59t91 -59t34 -136v-175q0 -76 -34 -135.5t-91 -59.5q-40 0 -81 43q20 22 29 37q27 47 27 95z" />
    <glyph glyph-name="less" unicode="&#x3c;" horiz-adv-x="800" 
d="M651 470h74v-390h-175q-62 0 -99 38q-39 -38 -101 -38h-126v390q115 0 115 13q0 15 -56 52l-2 2l-315 263l315 263l2 2q56 37 56 52q0 13 -115 13v390h126q62 0 101 -38q37 38 99 38h175v-390h-74q-38 0 -81 -43l-336 -287l336 -287q43 -43 81 -43z" />
    <glyph glyph-name="equal" unicode="=" horiz-adv-x="900" 
d="M75 380v70q0 39 -122 99q122 62 122 101v70h150v-50l450 -1v50h149l1 -70q0 -39 122 -100q-122 -60 -122 -100l-1 -70h-149v50l-450 1l-1 -50h-149zM75 881v70q0 39 -122 99q122 62 122 101v70h150v-51h450v50h149l1 -70q0 -39 122 -100q-122 -60 -122 -100l-1 -70h-149
v50h-450l-1 -49h-149z" />
    <glyph glyph-name="greater" unicode="&#x3e;" horiz-adv-x="800" 
d="M131 513l335 287l-335 287q-44 43 -81 43h-75v390h175q62 0 99 -38q39 38 101 38h126v-390q-115 0 -115 -13q0 -15 56 -52l2 -2l315 -263l-315 -263l-2 -2q-56 -37 -56 -52q0 -13 115 -13v-390h-126q-62 0 -101 38q-37 -38 -99 -38h-175v390h75q37 0 81 43z" />
    <glyph glyph-name="question" unicode="?" 
d="M-25 551q0 344 350 366v4q58 0 125 134q60 -120 84 -129q141 18 141 125q0 180 -175 180h-100q-175 0 -175 -180v-70h-250v640h250v-19q53 19 175 19h100q425 0 425 -370v-200q0 -344 -350 -366v-4q-58 0 -125 -134q-60 120 -84 129q-137 -17 -141 -118q0 -128 -125 -128
t-125 121zM191 311q34 -59 34 -136q0 -76 -34 -135.5t-91 -59.5t-91 59.5t-34 135.5q0 77 34 136t91 59t91 -59z" />
    <glyph glyph-name="at" unicode="@" 
d="M675 1000q0 230 -175 230t-175 -230q0 -179 173 -179h1q176 13 176 179zM675 600q-53 -20 -175 -20t-175 19v-49q0 -180 175 -180h100q74 0 75 80v70h250v-540h-176q-61 1 -99 38q-38 -37 -125 -37v-1q-450 0 -450 370v350q0 39 -122 100q122 61 122 100v350
q0 370 425 370t425 -370v-670h-250v20z" />
    <glyph glyph-name="A" unicode="A" horiz-adv-x="1200" 
d="M940 584l30 -114h-2q49 -100 83 -100h74v-390h-175q-62 0 -99 38q-39 -38 -101 -38h-125v390q113 0 113 36q0 15 -9 33l-2 3l-22 88h-310l-15 -60h8q-25 -49 -25 -64q0 -36 112 -36l-1 -390h-124q-62 0 -99 38q-39 -38 -101 -38h-175v390h76q32 0 71 76l1 -1l37 139
q-15 20 -107 66q122 61 122 120h35l116 435q5 11 5 17q0 8 -56 8v390h175q62 0 100 -38q38 37 101 38h174v-390q-56 0 -56 -8q0 -6 5 -17l116 -435h35q0 -59 122 -120q-92 -46 -107 -66zM645 770l-95 378l-95 -378h190z" />
    <glyph glyph-name="B" unicode="B" 
d="M450 680q-76 0 -76 -80l1 -50q0 -180 75 -180h50q175 0 175 181q0 129 -225 129zM625 1050q0 180 -175 180q-75 0 -75 -180l-1 -50q0 -80 76 -81q175 1 175 131zM817 828q108 -82 108 -278v-200q0 -370 -425 -370h-50q-162 0 -200 38q-38 -38 -100 -38h-175v390h125
q25 0 25 80v250q0 38 -121 99q120 62 120 121h1v230q0 80 -25 80h-125v390h175q62 0 100 -38q38 38 200 38q425 0 425 -370v-200q0 -146 -58 -222z" />
    <glyph glyph-name="C" unicode="C" 
d="M675 1050q0 180 -175 180t-175 -180v-150q0 -39 122 -100q-122 -61 -122 -100v-150q0 -180 175 -180t175 180v70h250v-270q0 -370 -425 -370t-425 370v350q0 39 -122 100q122 61 122 100v350q0 370 425 370q122 0 175 -19v19h250v-640h-250v70z" />
    <glyph glyph-name="D" unicode="D" 
d="M1046 800q-121 -61 -121 -100v-350q0 -370 -425 -370h-50q-162 0 -200 38q-38 -38 -100 -38h-175v390h75q75 0 75 80v250q-1 39 -122 100q122 61 122 100v250q0 80 -25 80h-125v390h175q62 0 100 -38q38 38 200 38h50q425 0 425 -370v-350q0 -39 121 -100zM675 900v150
q0 180 -175 181l-50 -1q-75 0 -75 -180l-1 -150q0 -39 122 -100q-121 -61 -121 -100v-150q0 -180 75 -180h50q175 0 175 180v150q-1 39 -122 100q122 61 122 100z" />
    <glyph glyph-name="E" unicode="E" horiz-adv-x="1001" 
d="M926 -20h-176q-61 1 -99 38q-38 -37 -201 -37q-162 0 -199 37q-39 -38 -101 -38h-174l-1 390h76q75 0 75 80v251q-1 38 -123 98q122 62 123 101v250q-1 80 -76 80h-75l1 390h175q61 0 99 -39q40 39 201 39q162 0 200 -38q38 38 100 38h175v-590h-250l-1 120q0 80 -74 81
h-150q-76 -1 -76 -181l1 -130h100v50h149l1 -70q0 -39 122 -100q-122 -60 -122 -100l-1 -70h-149v50h-100l-1 -130q0 -180 75 -180h151q74 0 75 80v120h250v-590z" />
    <glyph glyph-name="F" unicode="F" horiz-adv-x="1001" 
d="M526 -20h-175q-63 1 -100 38q-39 -38 -101 -38h-174l-1 390h76q74 0 75 80v251q-1 38 -123 98q122 62 123 101v250q-1 80 -76 80h-75l1 390h175q61 0 99 -39q40 39 201 39q162 0 200 -38q38 38 100 38h175v-590h-250v120q-1 80 -75 80h-150q-76 0 -76 -180l1 -130h100v50
h149l1 -70q0 -39 122 -100q-122 -60 -122 -100l-1 -70h-149v50h-100l-1 -230q0 -80 75 -80h76v-390z" />
    <glyph glyph-name="G" unicode="G" 
d="M425 789q-100 -54 -100 -89v-150q0 -180 175 -180t175 180v130h-150q0 53 -100 109zM425 811q100 56 100 109h400v-940h-250v19q-53 -19 -175 -19q-425 0 -425 370v350q0 39 -122 100q122 61 122 100v350q0 370 425 370q122 0 175 -19v19h250v-640h-250v70
q0 180 -175 180t-175 -180v-150q0 -35 100 -89z" />
    <glyph glyph-name="H" unicode="H" horiz-adv-x="1200" 
d="M376 680v-230q0 -80 99 -80v-390h-125q-62 0 -99 38q-39 -38 -101 -38h-175v390h76q75 0 75 80v250q0 39 -122 100q122 61 122 100v250q0 80 -75 80h-76v390h175q62 0 101 -38q37 38 99 38h125v-390q-99 0 -99 -80v-230h350v230q0 80 -102 80v390h126q62 0 101 -38
q37 38 99 38h175v-390h-74q-75 0 -75 -80v-250q0 -39 122 -100q-122 -61 -122 -100v-250q0 -80 75 -80h74v-390h-175q-62 0 -99 38q-39 -38 -101 -38h-126v390q102 0 102 80v230h-350z" />
    <glyph glyph-name="I" unicode="I" horiz-adv-x="600" 
d="M525 370v-390h-175q-62 0 -99 38q-39 -38 -101 -38h-175v390h76q75 0 75 80v250q0 39 -122 100q122 61 122 100v250q0 80 -75 80h-76v390h175q62 0 101 -38q37 38 99 38h175v-390h-74q-75 0 -75 -80v-250q0 -39 122 -100q-122 -61 -122 -100v-250q0 -80 75 -80h74z" />
    <glyph glyph-name="J" unicode="J" horiz-adv-x="1051" 
d="M225 550q0 -180 175 -180t175 180v150q0 39 -122 100q122 61 122 100l1 250q-1 80 -76 80h-75v390h176q61 0 99 -39q40 39 101 39h175v-391l-75 2q-75 -1 -75 -81l-1 -250q0 -39 122 -100q-122 -61 -122 -100v-350q0 -370 -425 -370q-122 0 -175 19v-19h-250v640h250v-70
z" />
    <glyph glyph-name="K" unicode="K" horiz-adv-x="1101" 
d="M675 1350q0 270 350 270v-390q-100 0 -100 -80v-100q0 -170 -80 -250q80 -80 80 -250v-100q0 -80 100 -80l1 -390q-351 0 -351 270v300q0 130 -225 130q-75 0 -75 -80v-150q0 -80 75 -80h75v-390h-175q-62 0 -100 38q-38 -38 -100 -38h-175v390h75q75 0 75 80l-1 250
q0 39 -121 100q122 61 122 100v250q0 80 -25 80h-125v390h175q62 0 100 -38q38 38 100 38h175v-390h-125q-25 0 -25 -80l-1 -150q0 -80 76 -81q225 1 225 131v300z" />
    <glyph glyph-name="L" unicode="L" horiz-adv-x="1001" 
d="M926 -20h-176q-61 1 -99 38q-38 -37 -201 -37q-162 0 -199 37q-39 -38 -101 -38h-174l-1 390h76q75 0 75 80v251q-1 38 -123 98q122 62 123 101v250q-1 80 -76 80h-75l1 390h175q61 0 99 -39q40 39 101 39h175v-391l-75 2q-75 -1 -75 -81v-250q0 -39 122 -100
q-122 -60 -122 -100l-1 -150q0 -180 75 -180h151q74 0 75 80v120h250v-590z" />
    <glyph glyph-name="M" unicode="M" horiz-adv-x="1700" 
d="M1226 1086l-76 -261q76 44 76 75v186zM450 826l-74 253v-179q0 -30 74 -74zM1137 782l-113 -388q-5 -10 -5 -16q0 -8 56 -8v-390h-174q-63 1 -101 38q-38 -38 -100 -38h-175v390q56 0 56 8q0 6 -5 16l-113 388q-87 -49 -87 -82v-250q0 -80 100 -80l-1 -390h-125
q-62 0 -99 38q-39 -38 -101 -38h-175v390h76q75 0 75 80v250q0 39 -122 100q122 61 122 100v250q0 80 -75 80h-76v390h175q62 0 101 -38q37 38 99 38h145l305 -1172l305 1172h145q62 0 101 -38q37 38 99 38h175v-390h-74q-75 0 -75 -80v-250q0 -39 122 -100
q-122 -61 -122 -100v-250q0 -80 75 -80h74v-390h-175q-62 0 -99 38q-39 -38 -101 -38h-125v390q101 0 101 80v250q0 33 -89 82z" />
    <glyph glyph-name="N" unicode="N" horiz-adv-x="1301" 
d="M751 774l74 -222v148q0 30 -74 74zM449 826l-73 219v-40h-1v-105q0 -30 74 -74zM464 782q-89 -49 -89 -82v-105h1v-145q0 -80 75 -80h74v-390h-175q-62 0 -99 38q-39 -38 -101 -38h-175v390h76q75 0 75 80v250q0 39 -122 100q122 61 122 100v250q0 80 -75 80h-76v390h175
q62 0 101 -38q37 38 99 38h119l267 -802q89 49 91 82v250q0 80 -75 80h-76v390h175q62 0 101 -38q37 38 99 38h175v-390h-74q-75 0 -75 -80v-250q0 -39 122 -100q-122 -61 -122 -100v-250q0 -80 75 -80h74v-390h-175q-62 0 -99 38q-39 -38 -101 -38h-120z" />
    <glyph glyph-name="O" unicode="O" 
d="M1047 800q-122 -61 -122 -100v-350q0 -370 -425 -370t-425 370v350q0 39 -122 100q122 61 122 100v350q0 370 425 370t425 -370v-350q0 -39 122 -100zM675 900v150q0 180 -175 180t-175 -180v-150q0 -39 122 -100q-122 -61 -122 -100v-150q0 -180 175 -180t175 180v150
q0 39 -122 100q122 61 122 100z" />
    <glyph glyph-name="P" unicode="P" 
d="M925 1050q0 -369 -425 -370h-50q-75 0 -75 -80v-150q0 -80 75 -80h75v-390h-175q-62 0 -100 38q-38 -38 -100 -38h-175v390h75q75 0 75 80l-1 250q0 39 -121 100q122 61 122 100v250q0 80 -25 80h-125v390h175q62 0 100 -38q38 38 200 38h50q425 0 425 -370v-200z
M674 1052q0 178 -174 178h-50q-75 0 -75 -180l-1 -50q0 -80 76 -81q224 1 224 130v3z" />
    <glyph glyph-name="Q" unicode="Q" 
d="M675 900v150q0 180 -175 180t-175 -180v-150q0 -39 122 -100q-122 -61 -122 -100v-150q0 -180 175 -180t175 180v150q0 39 -122 100q122 61 122 100zM738 20h13q274 0 274 -318v-22h-400q0 100 -74 100q-192 0 -219 218q-257 58 -257 352v350q0 39 -122 100
q122 61 122 100v350q0 370 425 370t425 -370v-350q0 -39 122 -100q-122 -61 -122 -100v-350q0 -263 -187 -330z" />
    <glyph glyph-name="R" unicode="R" horiz-adv-x="1100" 
d="M675 1050q0 180 -175 180h-50q-75 0 -75 -180l-1 -50q0 -80 76 -81q225 1 225 131zM450 680q-75 0 -75 -80v-150q0 -80 75 -80h75v-390h-175q-62 0 -100 38q-38 -38 -100 -38h-175v390h75q75 0 75 80l-1 250q0 39 -121 100q122 61 122 100v250q0 80 -25 80h-125v390h175
q62 0 100 -38q38 38 200 38h50q425 0 425 -370v-200q0 -170 -80 -250q80 -80 80 -250v-100q0 -80 100 -80l1 -390q-351 0 -351 270v300q0 130 -225 130z" />
    <glyph glyph-name="S" unicode="S" 
d="M500 1620q122 0 175 -19v19h250v-640h-250v70q0 180 -175 180h-100q-175 0 -175 -180q0 -107 141 -125q24 9 84 129q67 -134 125 -134v-4q350 -22 350 -366v-200q0 -370 -425 -370h-100q-122 0 -175 19v-19h-250v640h250v-70q0 -180 175 -180h100q175 0 175 180
q0 107 -141 125q-24 -9 -84 -129q-67 134 -125 134v4q-350 22 -350 366v200q0 370 425 370h100z" />
    <glyph glyph-name="T" unicode="T" horiz-adv-x="1100" 
d="M775 -20h-174q-63 1 -101 38q-38 -38 -100 -38h-174l-1 390h75q74 0 75 80v251q0 38 -122 98q121 62 122 101v250q-1 80 -75 80q-75 0 -75 -80l1 -120h-251v590h426q62 0 100 -38q39 38 100 38h424v-590h-250v120q0 80 -74 80q-76 0 -76 -180v-150q1 -39 123 -100
q-122 -60 -123 -100v-250q0 -80 75 -80h75v-390z" />
    <glyph glyph-name="U" unicode="U" horiz-adv-x="1201" 
d="M726 1150q-1 80 -76 80h-75l1 390h175q61 0 99 -39q40 39 101 39h175v-391l-75 2q-75 -1 -75 -81l-1 -250q0 -39 122 -100q-122 -61 -122 -100v-350q0 -370 -425 -370t-425 370v350q0 39 -122 100q122 61 122 100v250q0 80 -75 80h-75l1 390h175q61 0 99 -39
q40 39 101 39h175v-391l-75 2q-75 -1 -76 -81v-250q0 -39 122 -100q-122 -61 -122 -100v-150q0 -180 175 -180t175 180v150q0 39 -122 100q122 61 122 100z" />
    <glyph glyph-name="V" unicode="V" horiz-adv-x="1200" 
d="M774 394q-5 -10 -5 -16q0 -8 56 -8v-390h-174q-63 1 -101 38q-38 -38 -100 -38h-175v390q56 0 56 8q0 6 -5 16l-203 761l-1 -1q-39 76 -71 76h-76v390h175q62 0 101 -38q37 38 99 38h124l1 -390q-112 0 -112 -36q0 -15 25 -64h-8l170 -678l177 706l2 3q9 18 9 33
q0 36 -113 36v390h125q62 0 101 -38q37 38 99 38h175v-390h-74q-34 0 -83 -100h2z" />
    <glyph glyph-name="W" unicode="W" horiz-adv-x="1800" 
d="M850 679l-76 -285q-5 -10 -5 -16q0 -8 56 -8v-390h-174q-63 1 -101 38q-38 -38 -100 -38h-175v390q56 0 56 8q0 6 -5 16l-203 761l-1 -1q-39 76 -71 76h-76v390h175q62 0 101 -38q37 38 99 38h124l1 -390q-112 0 -112 -36q0 -15 25 -64h-8l170 -678l177 706l1 2l10 39
q-3 31 -113 31v390h125q62 0 101 -38q37 38 99 38h124l1 -390q-108 0 -112 -29l19 -71h-2l170 -678l177 706l2 3q9 18 9 33q0 36 -113 36v390h125q62 0 101 -38q37 38 99 38h175v-390h-74q-34 0 -83 -100h2l-196 -736q-5 -10 -5 -16q0 -8 56 -8v-390h-174q-63 1 -101 38
q-38 -38 -100 -38h-175v390q56 0 56 8q0 6 -5 16z" />
    <glyph glyph-name="X" unicode="X" horiz-adv-x="1200" 
d="M963 470h2q74 -100 86 -100h74v-390h-175q-62 0 -99 38q-39 -38 -101 -38h-126v390q135 0 135 24q0 15 -26 41l-3 3l-180 210l-153 -178h-1q-43 -55 -43 -71q0 -29 122 -29v-390h-125q-62 0 -99 38q-39 -38 -101 -38h-175v390h76q10 0 56 60h-4l317 370l-301 351l2 1
q-60 78 -70 78h-76v390h175q62 0 101 -38q37 38 99 38h125v-390q-133 0 -133 -24q0 -15 61 -76h-6l153 -178l180 210h1q17 23 17 39q0 29 -124 29v390h126q62 0 101 -38q37 38 99 38h175v-390h-74q-12 0 -86 -100h-2l-283 -330z" />
    <glyph glyph-name="Y" unicode="Y" horiz-adv-x="1200" 
d="M728 836q5 -4 71 -36q-123 -60 -124 -100v-250q0 -80 75 -80h75v-390h-174q-63 1 -101 38q-38 -38 -100 -38h-174l-1 390h75q74 0 75 80v251q0 38 -121 97q63 34 68 37l-253 316q-80 79 -144 79v390h175q62 0 101 -38q37 38 99 38h125l1 -390q-113 0 -113 -36
q0 -15 25 -64h8l154 -193l180 225l-1 -1q9 18 9 33q0 36 -112 36l-1 390h125q62 0 101 -38q37 38 99 38h175v-390q-63 0 -162 -100h1z" />
    <glyph glyph-name="Z" unicode="Z" horiz-adv-x="1002" 
d="M925 1245l-201 -275v-20l1 -50q0 -39 122 -100q-122 -60 -122 -100l-1 -70h-149v50h-58l-224 -310h309q74 0 75 80v120h250v-590h-176q-61 1 -99 38q-38 -37 -201 -37q-162 0 -199 37q-39 -38 -101 -38h-176l1 362l-6 6l205 282v20l1 51q-1 38 -123 98q122 62 123 101v69
l149 1v-50l58 -1l224 311h-307q-74 0 -74 -80v-120h-251v590h175q62 0 101 -38q37 38 199 38q161 0 201 -39q38 39 99 39h175v-375z" />
    <glyph glyph-name="bracketleft" unicode="[" horiz-adv-x="900" 
d="M825 -220l-375 1q-162 0 -199 37q-39 -38 -101 -38h-174l-1 390h76q75 0 75 80v451q-1 38 -123 98q122 62 123 101v450q-1 80 -76 80h-75l1 390h175q61 0 99 -39q40 39 201 39h374v-590h-250l-1 120q0 80 -74 81h-49q-76 -1 -76 -181v-350q0 -39 122 -100
q-122 -60 -122 -100v-350q0 -180 75 -180h50q74 0 75 80v120h250v-590z" />
    <glyph glyph-name="backslash" unicode="\" 
d="M134 1130h-2q-49 100 -83 100h-74v390h125q62 0 99 -38q39 38 101 38h176v-390q-114 0 -114 -36q0 -15 9 -33v-1l418 -730h-3q31 -60 63 -60h76v-390h-125q-62 0 -101 38q-37 -38 -99 -38h-175v390q112 0 112 36q0 15 -25 64h-1z" />
    <glyph glyph-name="bracketright" unicode="]" horiz-adv-x="900" 
d="M-25 370h250v-120q1 -80 75 -80h50q75 0 75 180v350q0 40 -122 100q122 61 122 100v350q0 180 -76 181h-49q-74 -1 -74 -81l-1 -120h-250v590h374q161 0 201 -39q38 39 99 39h175l1 -390h-75q-75 0 -76 -80v-450q1 -39 123 -101q-122 -60 -123 -98v-451q0 -80 75 -80h76
l-1 -390h-174q-62 0 -101 38q-37 -37 -199 -37l-375 -1v590z" />
    <glyph glyph-name="asciicircum" unicode="^" horiz-adv-x="900" 
d="M400 2013l-186 -233h-258l330 440h228l330 -440h-258z" />
    <glyph glyph-name="underscore" unicode="_" 
d="M-25 -79l950 -1v-240h-950v241z" />
    <glyph glyph-name="grave" unicode="`" horiz-adv-x="700" 
d="M100 1780q-57 0 -91 59.5t-34 135.5q0 77 34 136t91 59q33 0 88 -28l323 -149q78 -28 96 -55t18 -63t-19.5 -65.5t-55.5 -29.5h-450z" />
    <glyph glyph-name="a" unicode="a" horiz-adv-x="980" 
d="M757 466l23 -86h-2q39 -80 63 -80h64v-320h-145q-52 0 -79 28q-29 -28 -81 -28h-105v320q90 0 90 25q0 12 -6 24l-2 3l-17 68h-240l-10 -40h9q-24 -44 -24 -55q0 -25 90 -25l-1 -320h-104q-52 0 -79 28q-29 -28 -81 -28h-145v320h66q22 0 51 56l1 -1l30 111
q-11 14 -89 54q101 51 101 100h29l92 346q4 8 4 12q0 2 -45 2v320h145q52 0 80 -28q28 27 81 28h144v-320q-45 0 -45 -2q0 -4 4 -12l92 -346h29q0 -49 101 -100q-78 -40 -89 -54zM510 620l-70 278l-70 -278h140z" />
    <glyph glyph-name="b" unicode="b" horiz-adv-x="820" 
d="M360 540q-56 0 -56 -60l1 -40q0 -140 55 -140h40q135 0 135 141q0 99 -175 99zM495 840q0 140 -135 140q-55 0 -55 -140l-1 -40q0 -60 56 -61q135 1 135 101zM660 663q85 -65 85 -223v-160q0 -300 -345 -300h-40q-132 0 -160 28q-28 -28 -80 -28h-145v320h105q15 0 15 60
v200q0 28 -101 79q100 52 100 101h1v180q0 60 -15 60h-105v320h145q52 0 80 -28q28 28 160 28q345 0 345 -300v-160q0 -118 -45 -177z" />
    <glyph glyph-name="c" unicode="c" horiz-adv-x="820" 
d="M535 840q0 140 -135 140t-135 -140v-120q0 -29 102 -80q-102 -51 -102 -80v-120q0 -140 135 -140t135 140v60h210v-220q0 -300 -345 -300t-345 300v280q0 29 -102 80q102 51 102 80v280q0 300 345 300q99 0 135 -13v13h210v-520h-210v60z" />
    <glyph glyph-name="d" unicode="d" horiz-adv-x="800" 
d="M846 640q-101 -51 -101 -80v-280q0 -300 -345 -300h-40q-132 0 -160 28q-28 -28 -80 -28h-145v320h65q55 0 55 60v200q-1 29 -102 80q102 51 102 80v200q0 60 -15 60h-105v320h145q52 0 80 -28q28 28 160 28h40q345 0 345 -300v-280q0 -29 101 -80zM535 720v120
q0 140 -135 141l-40 -1q-55 0 -55 -140l-1 -120q0 -29 102 -80q-101 -51 -101 -80v-120q0 -140 55 -140h40q135 0 135 140v120q-1 29 -102 80q102 51 102 80z" />
    <glyph glyph-name="e" unicode="e" horiz-adv-x="821" 
d="M746 -20h-146q-51 1 -79 28q-29 -27 -161 -27t-159 27q-29 -28 -81 -28h-144l-1 320h66q55 0 55 60v201q-1 28 -103 78q102 52 103 81v200q-1 60 -56 60h-65l1 320h145q51 0 79 -29q31 29 161 29q132 0 160 -28q28 28 80 28h145v-480h-210l-1 100q0 60 -54 61h-120
q-56 -1 -56 -141l1 -100h70v40h129l1 -60q0 -29 102 -80q-102 -50 -102 -80l-1 -60h-129v40h-70l-1 -100q0 -140 55 -140h121q54 0 55 60v100h210v-480z" />
    <glyph glyph-name="f" unicode="f" horiz-adv-x="821" 
d="M426 -20h-145q-53 1 -80 28q-29 -28 -81 -28h-144l-1 320h66q54 0 55 60v201q-1 28 -103 78q102 52 103 81v200q-1 60 -56 60h-65l1 320h145q51 0 79 -29q31 29 161 29q132 0 160 -28q28 28 80 28h145v-480h-210v100q-1 60 -55 60h-120q-56 0 -56 -140l1 -100h70v40h129
l1 -60q0 -29 102 -80q-102 -50 -102 -80l-1 -60h-129v40h-70l-1 -180q0 -60 55 -60h66v-320z" />
    <glyph glyph-name="g" unicode="g" horiz-adv-x="820" 
d="M340 626q-75 -41 -75 -66v-120q0 -140 135 -140t135 140v100h-120q0 42 -75 86zM340 654q75 44 75 86h330v-760h-210v13q-36 -13 -135 -13q-345 0 -345 300v280q0 29 -102 80q102 51 102 80v280q0 300 345 300q99 0 135 -13v13h210v-520h-210v60q0 140 -135 140
t-135 -140v-120q0 -25 75 -66z" />
    <glyph glyph-name="h" unicode="h" horiz-adv-x="980" 
d="M306 540v-180q0 -60 79 -60v-320h-105q-52 0 -79 28q-29 -28 -81 -28h-145v320h66q55 0 55 60v200q0 29 -102 80q102 51 102 80v200q0 60 -55 60h-66v320h145q52 0 81 -28q27 28 79 28h105v-320q-79 0 -79 -60v-180h270v180q0 60 -82 60v320h106q52 0 81 -28q27 28 79 28
h145v-320h-64q-55 0 -55 -60v-200q0 -29 102 -80q-102 -51 -102 -80v-200q0 -60 55 -60h64v-320h-145q-52 0 -79 28q-29 -28 -81 -28h-106v320q82 0 82 60v180h-270z" />
    <glyph glyph-name="i" unicode="i" horiz-adv-x="500" 
d="M425 300v-320h-145q-52 0 -79 28q-29 -28 -81 -28h-145v320h66q55 0 55 60v200q0 29 -102 80q102 51 102 80v200q0 60 -55 60h-66v320h145q52 0 81 -28q27 28 79 28h145v-320h-64q-55 0 -55 -60v-200q0 -29 102 -80q-102 -51 -102 -80v-200q0 -60 55 -60h64z" />
    <glyph glyph-name="j" unicode="j" horiz-adv-x="861" 
d="M185 440q0 -140 135 -140t135 140v120q0 29 -102 80q102 51 102 80l1 200q-1 60 -56 60h-65v320h146q51 0 79 -29q31 29 81 29h145v-321l-65 2q-55 -1 -55 -61l-1 -200q0 -29 102 -80q-102 -51 -102 -80v-280q0 -300 -345 -300q-99 0 -135 13v-13h-210v520h210v-60z" />
    <glyph glyph-name="k" unicode="k" horiz-adv-x="901" 
d="M535 1080q0 220 290 220v-320q-80 0 -80 -60v-80q0 -137 -63 -200q63 -63 63 -200v-80q0 -60 80 -60l1 -320q-291 0 -291 220v240q0 100 -175 100q-55 0 -55 -60v-120q0 -60 55 -60h65v-320h-145q-52 0 -80 28q-28 -28 -80 -28h-145v320h65q55 0 55 60l-1 200
q0 29 -101 80q102 51 102 80v200q0 60 -15 60h-105v320h145q52 0 80 -28q28 28 80 28h145v-320h-105q-15 0 -15 -60l-1 -120q0 -60 56 -61q175 1 175 101v240z" />
    <glyph glyph-name="l" unicode="l" horiz-adv-x="821" 
d="M746 -20h-146q-51 1 -79 28q-29 -27 -161 -27t-159 27q-29 -28 -81 -28h-144l-1 320h66q55 0 55 60v201q-1 28 -103 78q102 52 103 81v200q-1 60 -56 60h-65l1 320h145q51 0 79 -29q31 29 81 29h145v-321l-65 2q-55 -1 -55 -61v-200q0 -29 102 -80q-102 -50 -102 -80
l-1 -120q0 -140 55 -140h121q54 0 55 60v100h210v-480z" />
    <glyph glyph-name="m" unicode="m" horiz-adv-x="1380" 
d="M976 834l-48 -164q48 30 48 50v114zM352 671l-46 159v-110q0 -20 46 -49zM913 619l-89 -305q-4 -8 -4 -12q0 -2 45 -2v-320h-144q-53 1 -81 28q-28 -28 -80 -28h-145v320q45 0 45 2q0 4 -4 12l-88 304q-62 -35 -62 -58v-200q0 -60 80 -60l-1 -320h-105q-52 0 -79 28
q-29 -28 -81 -28h-145v320h66q55 0 55 60v200q0 29 -102 80q102 51 102 80v200q0 60 -55 60h-66v320h145q52 0 81 -28q27 28 79 28h120l240 -922l240 922h120q52 0 81 -28q27 28 79 28h145v-320h-64q-55 0 -55 -60v-200q0 -29 102 -80q-102 -51 -102 -80v-200q0 -60 55 -60
h64v-320h-145q-52 0 -79 28q-29 -28 -81 -28h-105v320q81 0 81 60v200q0 23 -63 59z" />
    <glyph glyph-name="n" unicode="n" horiz-adv-x="1061" 
d="M609 609l46 -137v88q0 19 -46 49zM350 672l-44 132v-4h-1v-80q0 -19 45 -48zM368 619q-63 -36 -63 -59v-80h1v-120q0 -60 55 -60h64v-320h-145q-52 0 -79 28q-29 -28 -81 -28h-145v320h66q55 0 55 60v200q0 29 -102 80q102 51 102 80v200q0 60 -55 60h-66v320h145
q52 0 81 -28q27 28 79 28h99l213 -639q64 36 65 59v200q0 60 -55 60h-66v320h145q52 0 81 -28q27 28 79 28h145v-320h-64q-55 0 -55 -60v-200q0 -29 102 -80q-102 -51 -102 -80v-200q0 -60 55 -60h64v-320h-145q-52 0 -79 28q-29 -28 -81 -28h-100z" />
    <glyph glyph-name="o" unicode="o" horiz-adv-x="800" 
d="M847 640q-102 -51 -102 -80v-280q0 -300 -345 -300t-345 300v280q0 29 -102 80q102 51 102 80v280q0 300 345 300t345 -300v-280q0 -29 102 -80zM535 720v120q0 140 -135 140t-135 -140v-120q0 -29 102 -80q-102 -51 -102 -80v-120q0 -140 135 -140t135 140v120
q0 29 -102 80q102 51 102 80z" />
    <glyph glyph-name="p" unicode="p" horiz-adv-x="820" 
d="M745 840q0 -299 -345 -300h-40q-55 0 -55 -60v-120q0 -60 55 -60h65v-320h-145q-52 0 -80 28q-28 -28 -80 -28h-145v320h65q55 0 55 60l-1 200q0 29 -101 80q102 51 102 80v200q0 60 -15 60h-105v320h145q52 0 80 -28q28 28 160 28h40q345 0 345 -300v-160zM534 842
q0 138 -134 138h-40q-55 0 -55 -140l-1 -40q0 -60 56 -61q174 1 174 100v3z" />
    <glyph glyph-name="q" unicode="q" horiz-adv-x="800" 
d="M535 720v120q0 140 -135 140t-135 -140v-120q0 -29 102 -80q-102 -51 -102 -80v-120q0 -140 135 -140t135 140v120q0 29 -102 80q102 51 102 80zM614 20q211 -8 211 -258v-22h-330q0 80 -54 80q-158 0 -180 175q-206 47 -206 285v280q0 29 -102 80q102 51 102 80v280
q0 300 345 300t345 -300v-280q0 -29 102 -80q-102 -51 -102 -80v-280q0 -202 -131 -260z" />
    <glyph glyph-name="r" unicode="r" horiz-adv-x="900" 
d="M535 840q0 140 -135 140h-40q-55 0 -55 -140l-1 -40q0 -60 56 -61q175 1 175 101zM360 540q-55 0 -55 -60v-120q0 -60 55 -60h65v-320h-145q-52 0 -80 28q-28 -28 -80 -28h-145v320h65q55 0 55 60l-1 200q0 29 -101 80q102 51 102 80v200q0 60 -15 60h-105v320h145
q52 0 80 -28q28 28 160 28h40q345 0 345 -300v-160q0 -137 -63 -200q63 -63 63 -200v-80q0 -60 80 -60l1 -320q-291 0 -291 220v240q0 100 -175 100z" />
    <glyph glyph-name="s" unicode="s" horiz-adv-x="820" 
d="M400 1300q99 0 135 -13v13h210v-520h-210v60q0 140 -135 140h-80q-135 0 -135 -140q0 -82 107 -96q16 6 68 110q57 -114 105 -114v-3q280 -17 280 -297v-160q0 -300 -345 -300h-80q-99 0 -135 13v-13h-210v520h210v-60q0 -140 135 -140h80q135 0 135 140q0 82 -107 96
q-16 -6 -68 -110q-57 114 -105 114v3q-280 17 -280 297v160q0 300 345 300h80z" />
    <glyph glyph-name="t" unicode="t" horiz-adv-x="900" 
d="M625 -20h-144q-53 1 -81 28q-28 -28 -80 -28h-144l-1 320h65q54 0 55 60v201q0 28 -102 77q101 53 102 82v200q-1 60 -55 60q-55 0 -55 -60l1 -100h-211v480h346q52 0 80 -28q29 28 80 28h344v-480h-210v100q0 60 -54 60q-56 0 -56 -140v-120q1 -29 103 -80
q-102 -50 -103 -80v-200q0 -60 55 -60h65v-320z" />
    <glyph glyph-name="u" unicode="u" horiz-adv-x="981" 
d="M576 920q-1 60 -56 60h-65l1 320h145q51 0 79 -29q31 29 81 29h145v-321l-65 2q-55 -1 -55 -61l-1 -200q0 -29 102 -80q-102 -51 -102 -80v-280q0 -300 -345 -300t-345 300v280q0 29 -102 80q102 51 102 80v200q0 60 -55 60h-65l1 320h145q51 0 79 -29q31 29 81 29h145
v-321l-65 2q-55 -1 -56 -61v-200q0 -29 102 -80q-102 -51 -102 -80v-120q0 -140 135 -140t135 140v120q0 29 -102 80q102 51 102 80z" />
    <glyph glyph-name="v" unicode="v" horiz-adv-x="980" 
d="M624 314q-4 -8 -4 -12q0 -2 45 -2v-320h-144q-53 1 -81 28q-28 -28 -80 -28h-145v320q45 0 45 2q0 4 -4 12l-163 611l-1 -1q-29 56 -51 56h-66v320h145q52 0 81 -28q27 28 79 28h104l1 -320q-90 0 -90 -25q0 -11 24 -55h-9l130 -518l137 546l2 3q6 12 6 24q0 25 -90 25
v320h105q52 0 81 -28q27 28 79 28h145v-320h-64q-24 0 -63 -80h2z" />
    <glyph glyph-name="w" unicode="w" horiz-adv-x="1460" 
d="M680 524l-56 -210q-4 -8 -4 -12q0 -2 45 -2v-320h-144q-53 1 -81 28q-28 -28 -80 -28h-145v320q45 0 45 2q0 4 -4 12l-163 611l-1 -1q-29 56 -51 56h-66v320h145q52 0 81 -28q27 28 79 28h104l1 -320q-90 0 -90 -25q0 -11 24 -55h-9l130 -518l137 546l1 1l7 30
q-2 21 -90 21v320h105q52 0 81 -28q27 28 79 28h104l1 -320q-87 0 -90 -19l17 -61h-2l130 -518l137 546l2 3q6 12 6 24q0 25 -90 25v320h105q52 0 81 -28q27 28 79 28h145v-320h-64q-24 0 -63 -80h2l-156 -586q-4 -8 -4 -12q0 -2 45 -2v-320h-144q-53 1 -81 28
q-28 -28 -80 -28h-145v320q45 0 45 2q0 4 -4 12z" />
    <glyph glyph-name="x" unicode="x" horiz-adv-x="980" 
d="M773 380h2q59 -80 66 -80h64v-320h-145q-52 0 -79 28q-29 -28 -81 -28h-106v320q108 0 108 15q0 11 -19 30l-3 3l-140 163l-113 -131h-1q-39 -50 -39 -61q0 -19 98 -19v-320h-105q-52 0 -79 28q-29 -28 -81 -28h-145v320h66q5 0 36 40h-4l257 300l-241 281l2 1
q-45 58 -50 58h-66v320h145q52 0 81 -28q27 28 79 28h105v-320q-106 0 -106 -15q0 -11 54 -65h-6l113 -131l140 163q13 17 13 29q0 19 -99 19v320h106q52 0 81 -28q27 28 79 28h145v-320h-64q-7 0 -66 -80h-2l-223 -260z" />
    <glyph glyph-name="y" unicode="y" horiz-adv-x="980" 
d="M589 669l60 -29q-103 -50 -104 -80v-200q0 -60 55 -60h65v-320h-144q-53 1 -81 28q-28 -28 -80 -28h-144l-1 320h65q54 0 55 60v201q0 28 -101 77q56 31 57 31l-202 252q-60 59 -114 59v320h145q52 0 81 -28q27 28 79 28h105l1 -320q-91 0 -91 -25q0 -11 24 -55h7
l114 -143l140 175l-1 -1q6 12 6 24q0 25 -89 25l-1 320h105q52 0 81 -28q27 28 79 28h145v-320q-53 0 -132 -80h1z" />
    <glyph glyph-name="z" unicode="z" horiz-adv-x="822" 
d="M304 739l173 241h-237q-54 0 -54 -60v-100h-211v480h145q52 0 81 -28q27 28 159 28q130 0 161 -29q28 29 79 29h145l3 -298l-164 -227v-15l1 -40q0 -29 102 -80q-102 -50 -102 -80l-1 -60h-129v40h-39l-173 -240h239q54 0 55 60v100h210v-480h-146q-51 1 -79 28
q-29 -27 -161 -27t-159 27q-29 -28 -81 -28h-146l1 292l-6 6l165 227v15l1 41q-1 28 -103 78q102 52 103 81v59l129 1v-40z" />
    <glyph glyph-name="braceleft" unicode="{" horiz-adv-x="900" 
d="M225 675l-1 -44h-149v70q0 39 -122 99q122 62 122 101v70h150v-48q150 11 150 127v400q0 370 450 370v-390q-200 0 -200 -180v-200q0 -170 -80 -250q80 -80 80 -250v-200q0 -180 200 -180v-390q-450 0 -450 370v400q0 101 -150 125z" />
    <glyph glyph-name="bar" unicode="|" horiz-adv-x="600" 
d="M524 170v-390h-175q-62 0 -99 38q-39 -38 -101 -38h-175v390h76q75 0 75 80l1 450q0 39 -122 100q122 61 122 100l-1 450q0 80 -75 80h-76v390h175q62 0 101 -38q37 38 99 38h175v-390h-74q-75 0 -75 -80l1 -450q0 -39 122 -100q-122 -61 -122 -100l-1 -450q0 -80 75 -80
h74z" />
    <glyph glyph-name="braceright" unicode="}" horiz-adv-x="900" 
d="M570 680q-145 -18 -145 -130v-400q0 -370 -450 -370v390q200 0 200 180v200q0 170 80 250q-80 80 -80 250v200q0 180 -200 180v390q450 0 450 -370v-400q0 -116 150 -127v48h150v-70q0 -39 122 -101q-122 -60 -122 -99v-70h-149z" />
    <glyph glyph-name="asciitilde" unicode="~" horiz-adv-x="900" 
d="M825 2207v-264q-58 -58 -113 -85.5t-162 -27.5q-105 0 -180 25t-120 25q-48 0 -116 -11.5t-159 -148.5v287q58 58 113 85.5t162 27.5q105 0 180 -25t120 -25t115 23.5t160 113.5z" />
    <glyph glyph-name="exclamdown" unicode="&#xa1;" horiz-adv-x="500" 
d="M110 1289q-34 59 -34 136q0 76 34 135.5t91 59.5t91 -59.5t34 -135.5q0 -77 -34 -136t-91 -59t-91 59zM201 1170q125 0 125 -120v-150q0 -39 121 -100q-122 -61 -122 -100v-250q0 -80 101 -80v-390h-125q-62 0 -101 38q-37 -38 -99 -38h-125v390q99 0 99 80v250
q0 39 -122 100q122 61 122 100v150q0 120 126 120z" />
    <glyph glyph-name="cent" unicode="&#xa2;" 
d="M625 1511q37 -6 50 -10v19h250v-590h-250q0 149 -50 170l1 -600q49 21 49 170h250v-220q0 -320 -299 -361v11q0 -120 -126 -120q-125 0 -125 120v-11q-300 41 -300 361v250q0 39 -122 100q122 61 122 100v250q0 320 300 361v-11q0 120 125 120t125 -120v11zM375 1100
q-50 -21 -50 -150v-300q0 -129 50 -150v600z" />
    <glyph glyph-name="sterling" unicode="&#xa3;" horiz-adv-x="1050" 
d="M375 920h101v50h149l1 -70q0 -39 122 -100q-122 -60 -122 -100l-1 -70h-149v50h-100l-1 -130q0 -180 75 -180h225q74 0 75 80v120h250v-590h-176q-61 1 -99 38q-38 -37 -225 -38q-212 1 -249 38q-39 -38 -101 -38h-174l-1 390h76q75 0 75 80v251q-1 38 -123 98
q122 62 123 81h-1v370q0 370 425 370q122 0 175 -19v19h250v-640h-250v70q0 180 -175 180t-175 -180v-130z" />
    <glyph glyph-name="currency" unicode="&#xa4;" horiz-adv-x="1200" 
d="M550 1029q-174 -13 -174 -128v-3q0 -178 174 -178t174 178v3q0 115 -174 128zM624 1268v352h126q62 0 101 -38q37 38 99 38h175v-390h-74q-12 0 -86 -100h-2l-30 -36q42 -72 42 -194v-200q0 -122 -42 -195l30 -35h2q74 -100 86 -100h74v-390h-175q-62 0 -99 38
q-39 -38 -101 -38h-126v352q-34 -2 -74 -2q-42 0 -75 2v-352h-125q-62 0 -99 38q-39 -38 -101 -38h-175v390h76q10 0 56 60h-5l65 75q-42 73 -42 195v200q0 122 42 194l-48 57l2 1q-60 78 -70 78h-76v390h175q62 0 101 -38q37 38 99 38h125v-352q34 2 75 2t74 -2z" />
    <glyph glyph-name="yen" unicode="&#xa5;" horiz-adv-x="1200" 
d="M324 370h26q63 0 69 34h-94zM775 370v33h-95q6 -33 70 -33h25zM775 788q-99 -52 -100 -88v-57h100v50h149l1 -70q0 -39 122 -100q-122 -60 -122 -100l-1 -70h-99v-373h-174q-63 1 -101 38q-38 -38 -100 -38h-174l-1 374h-100v70q0 39 -122 99q122 62 122 101v70h150v-50
h100v57q0 34 -100 86l-1 -31h-149v70q0 39 -122 99q122 62 122 101v70h-11l-45 55q-80 79 -144 79v390h175q62 0 101 -38q37 38 99 38h125l1 -390q-113 0 -113 -36q0 -15 25 -64h8l68 -85h172l94 117l-1 -1q9 18 9 33q0 36 -112 36l-1 390h125q62 0 101 -38q37 38 99 38h175
v-390q-63 0 -162 -100h1l-28 -35h-12l1 -70q0 -39 122 -100q-122 -60 -122 -100l-1 -70h-149v33z" />
    <glyph glyph-name="brokenbar" unicode="&#xa6;" horiz-adv-x="1650" 
d="M0 200v1100q0 200 200 200h1100q200 0 200 -200v-1100q0 -200 -200 -200h-1100q-200 0 -200 200zM1475 201v1099q0 175 -175 175h-1100q-174 0 -175 -175v-1100q1 -175 175 -175h1101q174 0 174 176z" />
    <glyph glyph-name="section" unicode="&#xa7;" 
d="M450 1029q-174 -13 -174 -128v-3q0 -178 174 -178t174 178v3q0 115 -174 128zM675 1233q-1 197 -175 197h-100q-175 0 -175 -180v-15q62 35 225 35q133 0 225 -37zM225 366q2 -196 175 -196h100q175 0 175 180v15q-62 -35 -225 -35q-133 0 -225 36zM216 370
q-191 82 -191 330v142q-50 80 -50 208v400q0 370 425 370h100q122 0 175 -19v19h250v-590h-243q193 -82 193 -330v-142q50 -80 50 -208v-400q0 -370 -425 -370h-100q-122 0 -175 19v-19h-250v590h241z" />
    <glyph glyph-name="dieresis" unicode="&#xa8;" horiz-adv-x="700" 
d="M191 2111q34 -59 34 -136q0 -76 -34 -135.5t-91 -59.5t-91 59.5t-34 135.5q0 77 34 136t91 59t91 -59zM591 2111q34 -59 34 -136q0 -76 -34 -135.5t-91 -59.5t-91 59.5t-34 135.5q0 77 34 136t91 59t91 -59z" />
    <glyph glyph-name="copyright" unicode="&#xa9;" horiz-adv-x="850" 
d="M579 1520q-7 13 -14 25l-1 1q0 -1 15 -26zM196 1562q56 58 179 58q64 0 75 -4v4h60q-47 60 -135 60q-100 0 -179 -118zM100 1211q50 27 50 39v175q0 40 9 72q-57 -122 -59 -286zM159 903q-9 32 -9 72v175q0 12 -50 39q2 -164 59 -286zM554 838q-56 -58 -179 -58t-179 58
q79 -118 179 -118t179 118zM600 1476v-196h-150v45q0 80 -75 80t-75 -80v-75q0 -14 72 -50q-72 -36 -72 -50v-75q0 -80 75 -80t75 80v45h150v-145q0 -40 -9 -72q59 126 59 297q0 156 -50 276zM775 1200q0 -254 -115 -437t-285 -183t-285 183t-115 437t115 437t285 183
t285 -183t115 -437z" />
    <glyph glyph-name="ordfeminine" unicode="&#xaa;" horiz-adv-x="1650" 
d="M0 200v1100q0 200 200 200h1100q200 0 200 -200v-1100q0 -200 -200 -200h-1100q-200 0 -200 200zM1475 201v1099q0 175 -175 175h-1100q-174 0 -175 -175v-1100q1 -175 175 -175h1101q174 0 174 176z" />
    <glyph glyph-name="guillemotleft" unicode="&#xab;" horiz-adv-x="769" 
d="M-33 479l364 323h50v-62l-201 -261l201 -261v-62h-50zM280 479l364 323h50v-62l-201 -261l201 -261v-62h-50z" />
    <glyph glyph-name="logicalnot" unicode="&#xac;" horiz-adv-x="940" 
d="M-25 787h890v-518l-14 -14h-135v392h-741v140z" />
    <glyph glyph-name="registered" unicode="&#xae;" horiz-adv-x="850" 
d="M554 1562q-79 118 -179 118q-88 0 -135 -60h-40q37 0 50 -13q13 13 100 13h25q123 0 179 -58zM240 780q47 -60 135 -60q92 0 149 77q-74 20 -74 128v150q0 55 -100 55q-25 0 -25 -30v-75q0 -30 25 -30h50v-215h-100q-37 0 -50 13q-13 -13 -50 -13h40zM100 995h50
q25 0 25 30v125q0 14 -72 50q72 36 72 50v155h-75v-410zM450 1325q0 80 -75 80h-25q-25 0 -25 -80v-25q0 -30 25 -30q100 0 100 55zM591 1497q9 -32 9 -72v-100q0 -88 -36 -125q36 -36 36 -125v-50q0 -30 50 -30v205q0 171 -59 297zM775 1200q0 -254 -115 -437t-285 -183
t-285 183t-115 437t115 437t285 183t285 -183t115 -437z" />
    <glyph glyph-name="macron" unicode="&#xaf;" horiz-adv-x="1650" 
d="M0 200v1100q0 200 200 200h1100q200 0 200 -200v-1100q0 -200 -200 -200h-1100q-200 0 -200 200zM1475 201v1099q0 175 -175 175h-1100q-174 0 -175 -175v-1100q1 -175 175 -175h1101q174 0 174 176z" />
    <glyph glyph-name="degree" unicode="&#xb0;" horiz-adv-x="975" 
d="M425 1381q-199 -15 -199 -130v-3q0 -178 199 -178v-390q-450 0 -450 370v200q0 369 450 370v-239zM450 1070q199 0 199 178v3q0 115 -199 130v239q450 -1 450 -370v-200q0 -370 -450 -370v390z" />
    <glyph glyph-name="plusminus" unicode="&#xb1;" horiz-adv-x="1650" 
d="M0 200v1100q0 200 200 200h1100q200 0 200 -200v-1100q0 -200 -200 -200h-1100q-200 0 -200 200zM1475 201v1099q0 175 -175 175h-1100q-174 0 -175 -175v-1100q1 -175 175 -175h1101q174 0 174 176z" />
    <glyph glyph-name="uni00B2" unicode="&#xb2;" horiz-adv-x="1650" 
d="M0 200v1100q0 200 200 200h1100q200 0 200 -200v-1100q0 -200 -200 -200h-1100q-200 0 -200 200zM1475 201v1099q0 175 -175 175h-1100q-174 0 -175 -175v-1100q1 -175 175 -175h1101q174 0 174 176z" />
    <glyph glyph-name="uni00B3" unicode="&#xb3;" horiz-adv-x="1650" 
d="M0 200v1100q0 200 200 200h1100q200 0 200 -200v-1100q0 -200 -200 -200h-1100q-200 0 -200 200zM1475 201v1099q0 175 -175 175h-1100q-174 0 -175 -175v-1100q1 -175 175 -175h1101q174 0 174 176z" />
    <glyph glyph-name="acute" unicode="&#xb4;" horiz-adv-x="700" 
d="M50 1780q-36 0 -55.5 29.5t-19.5 65.5t18 63t96 55l323 149q56 28 88 28q57 0 91 -59t34 -136q0 -76 -34 -135.5t-91 -59.5h-450z" />
    <glyph glyph-name="mu" unicode="&#xb5;" horiz-adv-x="1650" 
d="M0 200v1100q0 200 200 200h1100q200 0 200 -200v-1100q0 -200 -200 -200h-1100q-200 0 -200 200zM1475 201v1099q0 175 -175 175h-1100q-174 0 -175 -175v-1100q1 -175 175 -175h1101q174 0 174 176z" />
    <glyph glyph-name="paragraph" unicode="&#xb6;" horiz-adv-x="936" 
d="M861 1455v-110h-127v-1365h-132v1365h-116v-1365h-134v739q-161 8 -269 108.5t-108 258.5q0 164 114.5 266.5t303.5 102.5h468z" />
    <glyph glyph-name="periodcentered" unicode="&#xb7;" horiz-adv-x="300" 
d="M191 936q34 -59 34 -136q0 -76 -34 -135.5t-91 -59.5t-91 59.5t-34 135.5q0 77 34 136t91 59t91 -59z" />
    <glyph glyph-name="periodcentered" unicode="&#x2219;" horiz-adv-x="300" 
d="M191 936q34 -59 34 -136q0 -76 -34 -135.5t-91 -59.5t-91 59.5t-34 135.5q0 77 34 136t91 59t91 -59z" />
    <glyph glyph-name="cedilla" unicode="&#xb8;" horiz-adv-x="751" 
d="M401 20q274 0 274 -318v-22h-400q0 100 -74 100q-225 0 -226 339h349q2 -99 77 -99z" />
    <glyph glyph-name="uni00B9" unicode="&#xb9;" horiz-adv-x="1650" 
d="M0 200v1100q0 200 200 200h1100q200 0 200 -200v-1100q0 -200 -200 -200h-1100q-200 0 -200 200zM1475 201v1099q0 175 -175 175h-1100q-174 0 -175 -175v-1100q1 -175 175 -175h1101q174 0 174 176z" />
    <glyph glyph-name="ordmasculine" unicode="&#xba;" horiz-adv-x="1650" 
d="M0 200v1100q0 200 200 200h1100q200 0 200 -200v-1100q0 -200 -200 -200h-1100q-200 0 -200 200zM1475 201v1099q0 175 -175 175h-1100q-174 0 -175 -175v-1100q1 -175 175 -175h1101q174 0 174 176z" />
    <glyph glyph-name="guillemotright" unicode="&#xbb;" horiz-adv-x="769" 
d="M25 156h-50v62l201 261l-201 261v62h50l364 -323zM338 156h-50v62l201 261l-201 261v62h50l364 -323z" />
    <glyph glyph-name="onequarter" unicode="&#xbc;" horiz-adv-x="1650" 
d="M0 200v1100q0 200 200 200h1100q200 0 200 -200v-1100q0 -200 -200 -200h-1100q-200 0 -200 200zM1475 201v1099q0 175 -175 175h-1100q-174 0 -175 -175v-1100q1 -175 175 -175h1101q174 0 174 176z" />
    <glyph glyph-name="onehalf" unicode="&#xbd;" horiz-adv-x="1650" 
d="M0 200v1100q0 200 200 200h1100q200 0 200 -200v-1100q0 -200 -200 -200h-1100q-200 0 -200 200zM1475 201v1099q0 175 -175 175h-1100q-174 0 -175 -175v-1100q1 -175 175 -175h1101q174 0 174 176z" />
    <glyph glyph-name="threequarters" unicode="&#xbe;" horiz-adv-x="1650" 
d="M0 200v1100q0 200 200 200h1100q200 0 200 -200v-1100q0 -200 -200 -200h-1100q-200 0 -200 200zM1475 201v1099q0 175 -175 175h-1100q-174 0 -175 -175v-1100q1 -175 175 -175h1101q174 0 174 176z" />
    <glyph glyph-name="questiondown" unicode="&#xbf;" 
d="M925 1050q0 -344 -350 -366v-4q-58 0 -125 -134q-60 120 -84 129q-141 -18 -141 -125q0 -180 175 -180h100q175 0 175 180v70h250v-640h-250v19q-53 -19 -175 -19h-100q-425 0 -425 370v200q0 344 350 366v4q58 0 125 134q60 -120 84 -129q137 17 141 118q0 128 125 128
t125 -121zM709 1290q-34 59 -34 136q0 76 34 135.5t91 59.5t91 -59.5t34 -135.5q0 -77 -34 -136t-91 -59t-91 59z" />
    <glyph glyph-name="Agrave" unicode="&#xc0;" horiz-adv-x="1200" 
d="M940 584l30 -114h-2q49 -100 83 -100h74v-390h-175q-62 0 -99 38q-39 -38 -101 -38h-125v390q113 0 113 36q0 15 -9 33l-2 3l-22 88h-310l-15 -60h8q-25 -49 -25 -64q0 -36 112 -36l-1 -390h-124q-62 0 -99 38q-39 -38 -101 -38h-175v390h76q32 0 71 76l1 -1l37 139
q-15 20 -107 66q122 61 122 120h35l116 435q5 11 5 17q0 8 -56 8v390h175q62 0 100 -38q38 37 101 38h174v-390q-56 0 -56 -8q0 -6 5 -17l116 -435h35q0 -59 122 -120q-92 -46 -107 -66zM645 770l-95 378l-95 -378h190zM350 1780q-57 0 -91 59.5t-34 135.5q0 77 34 136
t91 59q33 0 88 -28l323 -149q78 -28 96 -55t18 -63t-19.5 -65.5t-55.5 -29.5h-450z" />
    <glyph glyph-name="Aacute" unicode="&#xc1;" horiz-adv-x="1200" 
d="M940 584l30 -114h-2q49 -100 83 -100h74v-390h-175q-62 0 -99 38q-39 -38 -101 -38h-125v390q113 0 113 36q0 15 -9 33l-2 3l-22 88h-310l-15 -60h8q-25 -49 -25 -64q0 -36 112 -36l-1 -390h-124q-62 0 -99 38q-39 -38 -101 -38h-175v390h76q32 0 71 76l1 -1l37 139
q-15 20 -107 66q122 61 122 120h35l116 435q5 11 5 17q0 8 -56 8v390h175q62 0 100 -38q38 37 101 38h174v-390q-56 0 -56 -8q0 -6 5 -17l116 -435h35q0 -59 122 -120q-92 -46 -107 -66zM645 770l-95 378l-95 -378h190zM300 1780q-36 0 -55.5 29.5t-19.5 65.5t18 63t96 55
l323 149q56 28 88 28q57 0 91 -59t34 -136q0 -76 -34 -135.5t-91 -59.5h-450z" />
    <glyph glyph-name="Acircumflex" unicode="&#xc2;" horiz-adv-x="1200" 
d="M940 584l30 -114h-2q49 -100 83 -100h74v-390h-175q-62 0 -99 38q-39 -38 -101 -38h-125v390q113 0 113 36q0 15 -9 33l-2 3l-22 88h-310l-15 -60h8q-25 -49 -25 -64q0 -36 112 -36l-1 -390h-124q-62 0 -99 38q-39 -38 -101 -38h-175v390h76q32 0 71 76l1 -1l37 139
q-15 20 -107 66q122 61 122 120h35l116 435q5 11 5 17q0 8 -56 8v390h175q62 0 100 -38q38 37 101 38h174v-390q-56 0 -56 -8q0 -6 5 -17l116 -435h35q0 -59 122 -120q-92 -46 -107 -66zM645 770l-95 378l-95 -378h190zM550 2013l-186 -233h-258l330 440h228l330 -440h-258z
" />
    <glyph glyph-name="Atilde" unicode="&#xc3;" horiz-adv-x="1200" 
d="M940 584l30 -114h-2q49 -100 83 -100h74v-390h-175q-62 0 -99 38q-39 -38 -101 -38h-125v390q113 0 113 36q0 15 -9 33l-2 3l-22 88h-310l-15 -60h8q-25 -49 -25 -64q0 -36 112 -36l-1 -390h-124q-62 0 -99 38q-39 -38 -101 -38h-175v390h76q32 0 71 76l1 -1l37 139
q-15 20 -107 66q122 61 122 120h35l116 435q5 11 5 17q0 8 -56 8v390h175q62 0 100 -38q38 37 101 38h174v-390q-56 0 -56 -8q0 -6 5 -17l116 -435h35q0 -59 122 -120q-92 -46 -107 -66zM645 770l-95 378l-95 -378h190zM975 2207v-264q-58 -58 -113 -85.5t-162 -27.5
q-105 0 -180 25t-120 25q-48 0 -116 -11.5t-159 -148.5v287q58 58 113 85.5t162 27.5q105 0 180 -25t120 -25t115 23.5t160 113.5z" />
    <glyph glyph-name="Adieresis" unicode="&#xc4;" horiz-adv-x="1200" 
d="M940 584l30 -114h-2q49 -100 83 -100h74v-390h-175q-62 0 -99 38q-39 -38 -101 -38h-125v390q113 0 113 36q0 15 -9 33l-2 3l-22 88h-310l-15 -60h8q-25 -49 -25 -64q0 -36 112 -36l-1 -390h-124q-62 0 -99 38q-39 -38 -101 -38h-175v390h76q32 0 71 76l1 -1l37 139
q-15 20 -107 66q122 61 122 120h35l116 435q5 11 5 17q0 8 -56 8v390h175q62 0 100 -38q38 37 101 38h174v-390q-56 0 -56 -8q0 -6 5 -17l116 -435h35q0 -59 122 -120q-92 -46 -107 -66zM645 770l-95 378l-95 -378h190zM441 2111q34 -59 34 -136q0 -76 -34 -135.5t-91 -59.5
t-91 59.5t-34 135.5q0 77 34 136t91 59t91 -59zM841 2111q34 -59 34 -136q0 -76 -34 -135.5t-91 -59.5t-91 59.5t-34 135.5q0 77 34 136t91 59t91 -59z" />
    <glyph glyph-name="Aring" unicode="&#xc5;" horiz-adv-x="1200" 
d="M940 584l30 -114h-2q49 -100 83 -100h74v-390h-175q-62 0 -99 38q-39 -38 -101 -38h-125v390q113 0 113 36q0 15 -9 33l-2 3l-22 88h-310l-15 -60h8q-25 -49 -25 -64q0 -36 112 -36l-1 -390h-124q-62 0 -99 38q-39 -38 -101 -38h-175v390h76q32 0 71 76l1 -1l37 139
q-15 20 -107 66q122 61 122 120h35l116 435q5 11 5 17q0 8 -56 8v390h175q62 0 100 -38q38 37 101 38h174v-390q-56 0 -56 -8q0 -6 5 -17l116 -435h35q0 -59 122 -120q-92 -46 -107 -66zM645 770l-95 378l-95 -378h190zM641 2111q34 -59 34 -136q0 -76 -34 -135.5t-91 -59.5
t-91 59.5t-34 135.5q0 77 34 136t91 59t91 -59z" />
    <glyph glyph-name="AE" unicode="&#xc6;" horiz-adv-x="1650" 
d="M645 770l-95 378l-95 -378h190zM1125 -19v-1h-175q-62 0 -99 38q-39 -38 -101 -38h-125v390q113 0 113 36q0 15 -9 33l-2 3l-22 88h-310l-15 -60h8q-25 -49 -25 -64q0 -36 112 -36l-1 -390h-124q-62 0 -99 38q-39 -38 -101 -38h-175v390h76q32 0 71 76l1 -1l37 139
q-15 20 -107 66q122 61 122 120h35l116 435q5 11 5 17q0 8 -56 8v390h175q62 0 100 -38q38 37 101 38h150q61 0 99 -39q40 39 201 39q162 0 200 -38q38 38 100 38h175v-590h-250l-1 120q0 80 -74 81h-150q-76 -1 -76 -181l1 -130h100v50h149l1 -70q0 -39 122 -100
q-122 -60 -122 -100l-1 -70h-149v50h-100l-1 -130q0 -180 75 -180h151q74 0 75 80v120h250v-590h-176q-61 1 -99 38q-38 -37 -176 -37zM776 1150v48l-2 7q-5 11 -5 17q0 1 -1 1q-2 0 -11 -8q18 -8 19 -65z" />
    <glyph glyph-name="Ccedilla" unicode="&#xc7;" 
d="M738 20h13q274 0 274 -318v-22h-400q0 100 -74 100q-192 0 -219 218q-257 58 -257 352v350q0 39 -122 100q122 61 122 100v350q0 370 425 370q122 0 175 -19v19h250v-640h-250v70q0 180 -175 180t-175 -180v-150q0 -39 122 -100q-122 -61 -122 -100v-150q0 -180 175 -180
t175 180v70h250v-270q0 -263 -187 -330z" />
    <glyph glyph-name="Egrave" unicode="&#xc8;" horiz-adv-x="1001" 
d="M926 -20h-176q-61 1 -99 38q-38 -37 -201 -37q-162 0 -199 37q-39 -38 -101 -38h-174l-1 390h76q75 0 75 80v251q-1 38 -123 98q122 62 123 101v250q-1 80 -76 80h-75l1 390h175q61 0 99 -39q40 39 201 39q162 0 200 -38q38 38 100 38h175v-590h-250l-1 120q0 80 -74 81
h-150q-76 -1 -76 -181l1 -130h100v50h149l1 -70q0 -39 122 -100q-122 -60 -122 -100l-1 -70h-149v50h-100l-1 -130q0 -180 75 -180h151q74 0 75 80v120h250v-590zM250 1780q-57 0 -91 59.5t-34 135.5q0 77 34 136t91 59q33 0 88 -28l323 -149q78 -28 96 -55t18 -63
t-19.5 -65.5t-55.5 -29.5h-450z" />
    <glyph glyph-name="Eacute" unicode="&#xc9;" horiz-adv-x="1001" 
d="M926 -20h-176q-61 1 -99 38q-38 -37 -201 -37q-162 0 -199 37q-39 -38 -101 -38h-174l-1 390h76q75 0 75 80v251q-1 38 -123 98q122 62 123 101v250q-1 80 -76 80h-75l1 390h175q61 0 99 -39q40 39 201 39q162 0 200 -38q38 38 100 38h175v-590h-250l-1 120q0 80 -74 81
h-150q-76 -1 -76 -181l1 -130h100v50h149l1 -70q0 -39 122 -100q-122 -60 -122 -100l-1 -70h-149v50h-100l-1 -130q0 -180 75 -180h151q74 0 75 80v120h250v-590zM200 1780q-36 0 -55.5 29.5t-19.5 65.5t18 63t96 55l323 149q56 28 88 28q57 0 91 -59t34 -136
q0 -76 -34 -135.5t-91 -59.5h-450z" />
    <glyph glyph-name="Ecircumflex" unicode="&#xca;" horiz-adv-x="1001" 
d="M926 -20h-176q-61 1 -99 38q-38 -37 -201 -37q-162 0 -199 37q-39 -38 -101 -38h-174l-1 390h76q75 0 75 80v251q-1 38 -123 98q122 62 123 101v250q-1 80 -76 80h-75l1 390h175q61 0 99 -39q40 39 201 39q162 0 200 -38q38 38 100 38h175v-590h-250l-1 120q0 80 -74 81
h-150q-76 -1 -76 -181l1 -130h100v50h149l1 -70q0 -39 122 -100q-122 -60 -122 -100l-1 -70h-149v50h-100l-1 -130q0 -180 75 -180h151q74 0 75 80v120h250v-590zM450 2013l-186 -233h-258l330 440h228l330 -440h-258z" />
    <glyph glyph-name="Edieresis" unicode="&#xcb;" horiz-adv-x="1001" 
d="M926 -20h-176q-61 1 -99 38q-38 -37 -201 -37q-162 0 -199 37q-39 -38 -101 -38h-174l-1 390h76q75 0 75 80v251q-1 38 -123 98q122 62 123 101v250q-1 80 -76 80h-75l1 390h175q61 0 99 -39q40 39 201 39q162 0 200 -38q38 38 100 38h175v-590h-250l-1 120q0 80 -74 81
h-150q-76 -1 -76 -181l1 -130h100v50h149l1 -70q0 -39 122 -100q-122 -60 -122 -100l-1 -70h-149v50h-100l-1 -130q0 -180 75 -180h151q74 0 75 80v120h250v-590zM341 2111q34 -59 34 -136q0 -76 -34 -135.5t-91 -59.5t-91 59.5t-34 135.5q0 77 34 136t91 59t91 -59z
M741 2111q34 -59 34 -136q0 -76 -34 -135.5t-91 -59.5t-91 59.5t-34 135.5q0 77 34 136t91 59t91 -59z" />
    <glyph glyph-name="Igrave" unicode="&#xcc;" horiz-adv-x="600" 
d="M525 370v-390h-175q-62 0 -99 38q-39 -38 -101 -38h-175v390h76q75 0 75 80v250q0 39 -122 100q122 61 122 100v250q0 80 -75 80h-76v390h175q62 0 101 -38q37 38 99 38h175v-390h-74q-75 0 -75 -80v-250q0 -39 122 -100q-122 -61 -122 -100v-250q0 -80 75 -80h74z
M50 1780q-57 0 -91 59.5t-34 135.5q0 77 34 136t91 59q33 0 88 -28l323 -149q78 -28 96 -55t18 -63t-19.5 -65.5t-55.5 -29.5h-450z" />
    <glyph glyph-name="Iacute" unicode="&#xcd;" horiz-adv-x="600" 
d="M525 370v-390h-175q-62 0 -99 38q-39 -38 -101 -38h-175v390h76q75 0 75 80v250q0 39 -122 100q122 61 122 100v250q0 80 -75 80h-76v390h175q62 0 101 -38q37 38 99 38h175v-390h-74q-75 0 -75 -80v-250q0 -39 122 -100q-122 -61 -122 -100v-250q0 -80 75 -80h74z
M0 1780q-36 0 -55.5 29.5t-19.5 65.5t18 63t96 55l323 149q56 28 88 28q57 0 91 -59t34 -136q0 -76 -34 -135.5t-91 -59.5h-450z" />
    <glyph glyph-name="Icircumflex" unicode="&#xce;" horiz-adv-x="600" 
d="M525 370v-390h-175q-62 0 -99 38q-39 -38 -101 -38h-175v390h76q75 0 75 80v250q0 39 -122 100q122 61 122 100v250q0 80 -75 80h-76v390h175q62 0 101 -38q37 38 99 38h175v-390h-74q-75 0 -75 -80v-250q0 -39 122 -100q-122 -61 -122 -100v-250q0 -80 75 -80h74z
M250 2013l-186 -233h-258l330 440h228l330 -440h-258z" />
    <glyph glyph-name="Idieresis" unicode="&#xcf;" horiz-adv-x="600" 
d="M525 370v-390h-175q-62 0 -99 38q-39 -38 -101 -38h-175v390h76q75 0 75 80v250q0 39 -122 100q122 61 122 100v250q0 80 -75 80h-76v390h175q62 0 101 -38q37 38 99 38h175v-390h-74q-75 0 -75 -80v-250q0 -39 122 -100q-122 -61 -122 -100v-250q0 -80 75 -80h74z
M141 2111q34 -59 34 -136q0 -76 -34 -135.5t-91 -59.5t-91 59.5t-34 135.5q0 77 34 136t91 59t91 -59zM541 2111q34 -59 34 -136q0 -76 -34 -135.5t-91 -59.5t-91 59.5t-34 135.5q0 77 34 136t91 59t91 -59z" />
    <glyph glyph-name="Eth" unicode="&#xd0;" horiz-adv-x="1200" 
d="M476 630v-81q0 -180 75 -180h50q175 0 175 180v500q0 180 -175 181l-50 -1q-75 0 -75 -180l-1 -79h149l1 -70q0 -39 122 -100q-122 -60 -122 -100l-1 -70h-148zM224 630h-149v70q0 39 -122 99q122 62 122 101v70h150v180q0 80 -25 80h-125v390h175q62 0 100 -38
q38 38 200 38h50q425 0 425 -370v-350q0 -39 121 -100q-121 -61 -121 -100v-350q0 -370 -425 -370h-50q-162 0 -200 38q-38 -38 -100 -38h-175v390h75q75 0 75 80z" />
    <glyph glyph-name="Ntilde" unicode="&#xd1;" horiz-adv-x="1301" 
d="M1025 2207v-264q-58 -58 -113 -85.5t-162 -27.5q-105 0 -180 25t-120 25q-48 0 -116 -11.5t-159 -148.5v287q58 58 113 85.5t162 27.5q105 0 180 -25t120 -25t115 23.5t160 113.5zM751 774l74 -222v148q0 30 -74 74zM449 826l-73 219v-40h-1v-105q0 -30 74 -74zM464 782
q-89 -49 -89 -82v-105h1v-145q0 -80 75 -80h74v-390h-175q-62 0 -99 38q-39 -38 -101 -38h-175v390h76q75 0 75 80v250q0 39 -122 100q122 61 122 100v250q0 80 -75 80h-76v390h175q62 0 101 -38q37 38 99 38h119l267 -802q89 49 91 82v250q0 80 -75 80h-76v390h175
q62 0 101 -38q37 38 99 38h175v-390h-74q-75 0 -75 -80v-250q0 -39 122 -100q-122 -61 -122 -100v-250q0 -80 75 -80h74v-390h-175q-62 0 -99 38q-39 -38 -101 -38h-120z" />
    <glyph glyph-name="Ograve" unicode="&#xd2;" 
d="M1047 800q-122 -61 -122 -100v-350q0 -370 -425 -370t-425 370v350q0 39 -122 100q122 61 122 100v350q0 370 425 370t425 -370v-350q0 -39 122 -100zM675 900v150q0 180 -175 180t-175 -180v-150q0 -39 122 -100q-122 -61 -122 -100v-150q0 -180 175 -180t175 180v150
q0 39 -122 100q122 61 122 100zM300 1780q-57 0 -91 59.5t-34 135.5q0 77 34 136t91 59q33 0 88 -28l323 -149q78 -28 96 -55t18 -63t-19.5 -65.5t-55.5 -29.5h-450z" />
    <glyph glyph-name="Oacute" unicode="&#xd3;" 
d="M1047 800q-122 -61 -122 -100v-350q0 -370 -425 -370t-425 370v350q0 39 -122 100q122 61 122 100v350q0 370 425 370t425 -370v-350q0 -39 122 -100zM675 900v150q0 180 -175 180t-175 -180v-150q0 -39 122 -100q-122 -61 -122 -100v-150q0 -180 175 -180t175 180v150
q0 39 -122 100q122 61 122 100zM250 1780q-36 0 -55.5 29.5t-19.5 65.5t18 63t96 55l323 149q56 28 88 28q57 0 91 -59t34 -136q0 -76 -34 -135.5t-91 -59.5h-450z" />
    <glyph glyph-name="Ocircumflex" unicode="&#xd4;" horiz-adv-x="1100" 
d="M1047 800q-122 -61 -122 -100v-350q0 -370 -425 -370t-425 370v350q0 39 -122 100q122 61 122 100v350q0 370 425 370t425 -370v-350q0 -39 122 -100zM675 900v150q0 180 -175 180t-175 -180v-150q0 -39 122 -100q-122 -61 -122 -100v-150q0 -180 175 -180t175 180v150
q0 39 -122 100q122 61 122 100zM500 2013l-186 -233h-258l330 440h228l330 -440h-258z" />
    <glyph glyph-name="Otilde" unicode="&#xd5;" 
d="M1047 800q-122 -61 -122 -100v-350q0 -370 -425 -370t-425 370v350q0 39 -122 100q122 61 122 100v350q0 370 425 370t425 -370v-350q0 -39 122 -100zM675 900v150q0 180 -175 180t-175 -180v-150q0 -39 122 -100q-122 -61 -122 -100v-150q0 -180 175 -180t175 180v150
q0 39 -122 100q122 61 122 100zM925 2207v-264q-58 -58 -113 -85.5t-162 -27.5q-105 0 -180 25t-120 25q-48 0 -116 -11.5t-159 -148.5v287q58 58 113 85.5t162 27.5q105 0 180 -25t120 -25t115 23.5t160 113.5z" />
    <glyph glyph-name="Odieresis" unicode="&#xd6;" 
d="M1047 800q-122 -61 -122 -100v-350q0 -370 -425 -370t-425 370v350q0 39 -122 100q122 61 122 100v350q0 370 425 370t425 -370v-350q0 -39 122 -100zM675 900v150q0 180 -175 180t-175 -180v-150q0 -39 122 -100q-122 -61 -122 -100v-150q0 -180 175 -180t175 180v150
q0 39 -122 100q122 61 122 100zM391 2111q34 -59 34 -136q0 -76 -34 -135.5t-91 -59.5t-91 59.5t-34 135.5q0 77 34 136t91 59t91 -59zM791 2111q34 -59 34 -136q0 -76 -34 -135.5t-91 -59.5t-91 59.5t-34 135.5q0 77 34 136t91 59t91 -59z" />
    <glyph glyph-name="multiply" unicode="&#xd7;" 
d="M764 571h1q74 -100 86 -100h74v-390h-175q-62 0 -99 38q-39 -38 -100 -39h-75v390q90 1 90 17t-33 49l-4 4l-78 104l-56 -74h1q-48 -63 -48 -81q0 -19 78 -19v-390h-75q-62 0 -99 38q-39 -38 -101 -38h-175v390h76q10 0 56 60h-3l216 270l-202 251l2 1q-60 78 -70 78h-76
v390h175q62 0 101 -38q37 38 99 38h76v-390q-90 0 -90 -16q0 -17 67 -84h-9l57 -75l79 106l1 1q24 31 24 49q0 19 -79 19v390h75q62 0 101 -38q37 38 99 38h175v-390h-74q-12 0 -86 -100h-1l-184 -230z" />
    <glyph glyph-name="Oslash" unicode="&#xd8;" 
d="M631 1188q-34 42 -131 42q-175 0 -175 -180v-320zM369 412q34 -42 131 -42q175 0 175 180v320zM925 1250v-350q0 -39 122 -100q-122 -61 -122 -100v-350q0 -370 -425 -370t-425 370v350q0 39 -122 100q122 61 122 100v350q0 370 425 370t425 -370z" />
    <glyph glyph-name="Ugrave" unicode="&#xd9;" horiz-adv-x="1201" 
d="M726 1150q-1 80 -76 80h-75l1 390h175q61 0 99 -39q40 39 101 39h175v-391l-75 2q-75 -1 -75 -81l-1 -250q0 -39 122 -100q-122 -61 -122 -100v-350q0 -370 -425 -370t-425 370v350q0 39 -122 100q122 61 122 100v250q0 80 -75 80h-75l1 390h175q61 0 99 -39
q40 39 101 39h175v-391l-75 2q-75 -1 -76 -81v-250q0 -39 122 -100q-122 -61 -122 -100v-150q0 -180 175 -180t175 180v150q0 39 -122 100q122 61 122 100zM350 1780q-57 0 -91 59.5t-34 135.5q0 77 34 136t91 59q33 0 88 -28l323 -149q78 -28 96 -55t18 -63t-19.5 -65.5
t-55.5 -29.5h-450z" />
    <glyph glyph-name="Uacute" unicode="&#xda;" horiz-adv-x="1201" 
d="M726 1150q-1 80 -76 80h-75l1 390h175q61 0 99 -39q40 39 101 39h175v-391l-75 2q-75 -1 -75 -81l-1 -250q0 -39 122 -100q-122 -61 -122 -100v-350q0 -370 -425 -370t-425 370v350q0 39 -122 100q122 61 122 100v250q0 80 -75 80h-75l1 390h175q61 0 99 -39
q40 39 101 39h175v-391l-75 2q-75 -1 -76 -81v-250q0 -39 122 -100q-122 -61 -122 -100v-150q0 -180 175 -180t175 180v150q0 39 -122 100q122 61 122 100zM300 1780q-36 0 -55.5 29.5t-19.5 65.5t18 63t96 55l323 149q56 28 88 28q57 0 91 -59t34 -136q0 -76 -34 -135.5
t-91 -59.5h-450z" />
    <glyph glyph-name="Ucircumflex" unicode="&#xdb;" horiz-adv-x="1201" 
d="M726 1150q-1 80 -76 80h-75l1 390h175q61 0 99 -39q40 39 101 39h175v-391l-75 2q-75 -1 -75 -81l-1 -250q0 -39 122 -100q-122 -61 -122 -100v-350q0 -370 -425 -370t-425 370v350q0 39 -122 100q122 61 122 100v250q0 80 -75 80h-75l1 390h175q61 0 99 -39
q40 39 101 39h175v-391l-75 2q-75 -1 -76 -81v-250q0 -39 122 -100q-122 -61 -122 -100v-150q0 -180 175 -180t175 180v150q0 39 -122 100q122 61 122 100zM550 2013l-186 -233h-258l330 440h228l330 -440h-258z" />
    <glyph glyph-name="Udieresis" unicode="&#xdc;" horiz-adv-x="1201" 
d="M726 1150q-1 80 -76 80h-75l1 390h175q61 0 99 -39q40 39 101 39h175v-391l-75 2q-75 -1 -75 -81l-1 -250q0 -39 122 -100q-122 -61 -122 -100v-350q0 -370 -425 -370t-425 370v350q0 39 -122 100q122 61 122 100v250q0 80 -75 80h-75l1 390h175q61 0 99 -39
q40 39 101 39h175v-391l-75 2q-75 -1 -76 -81v-250q0 -39 122 -100q-122 -61 -122 -100v-150q0 -180 175 -180t175 180v150q0 39 -122 100q122 61 122 100zM441 2111q34 -59 34 -136q0 -76 -34 -135.5t-91 -59.5t-91 59.5t-34 135.5q0 77 34 136t91 59t91 -59zM841 2111
q34 -59 34 -136q0 -76 -34 -135.5t-91 -59.5t-91 59.5t-34 135.5q0 77 34 136t91 59t91 -59z" />
    <glyph glyph-name="Yacute" unicode="&#xdd;" horiz-adv-x="1200" 
d="M728 836q5 -4 71 -36q-123 -60 -124 -100v-250q0 -80 75 -80h75v-390h-174q-63 1 -101 38q-38 -38 -100 -38h-174l-1 390h75q74 0 75 80v251q0 38 -121 97q63 34 68 37l-253 316q-80 79 -144 79v390h175q62 0 101 -38q37 38 99 38h125l1 -390q-113 0 -113 -36
q0 -15 25 -64h8l154 -193l180 225l-1 -1q9 18 9 33q0 36 -112 36l-1 390h125q62 0 101 -38q37 38 99 38h175v-390q-63 0 -162 -100h1zM300 1780q-36 0 -55.5 29.5t-19.5 65.5t18 63t96 55l323 149q56 28 88 28q57 0 91 -59t34 -136q0 -76 -34 -135.5t-91 -59.5h-450z" />
    <glyph glyph-name="Thorn" unicode="&#xde;" 
d="M676 800q0 130 -225 130q-75 0 -75 -130l-1 -50q0 -80 76 -81q225 1 225 131zM375 1200q1 -30 25 -30h100q425 0 426 -370q0 -369 -425 -370h-101q-25 0 -25 -30t75 -30h75v-390h-175q-62 0 -100 38q-38 -38 -100 -38h-175v390h75q75 0 75 30v50q0 39 -121 100
q121 61 121 100v300q-1 39 -123 100q122 61 123 120h1q0 60 -75 60h-76v390h175q62 0 101 -38q37 38 99 38h175v-390h-75q-74 0 -75 -30z" />
    <glyph glyph-name="germandbls" unicode="&#xdf;" horiz-adv-x="1050" 
d="M525 900v19q200 15 200 131q0 180 -175 180q-173 0 -174 -176v-604q0 -80 100 -80l-1 -390h-125q-62 0 -99 38q-39 -38 -101 -38h-175v390h76q75 0 75 80v250q0 39 -122 100q122 61 122 100v130h-1v220q0 370 425 370t425 -370v-200q0 -170 -80 -250q80 -80 80 -250v-200
q0 -370 -450 -370v390q200 0 200 180q0 116 -200 131v19q0 39 -122 100q122 61 122 100z" />
    <glyph glyph-name="agrave" unicode="&#xe0;" horiz-adv-x="980" 
d="M757 466l23 -86h-2q39 -80 63 -80h64v-320h-145q-52 0 -79 28q-29 -28 -81 -28h-105v320q90 0 90 25q0 12 -6 24l-2 3l-17 68h-240l-10 -40h9q-24 -44 -24 -55q0 -25 90 -25l-1 -320h-104q-52 0 -79 28q-29 -28 -81 -28h-145v320h66q22 0 51 56l1 -1l30 111
q-11 14 -89 54q101 51 101 100h29l92 346q4 8 4 12q0 2 -45 2v320h145q52 0 80 -28q28 27 81 28h144v-320q-45 0 -45 -2q0 -4 4 -12l92 -346h29q0 -49 101 -100q-78 -40 -89 -54zM510 620l-70 278l-70 -278h140zM280 1420q-49 0 -77 49t-28 111t28 111t77 49q28 0 73 -23
l258 -119q64 -23 79 -45.5t15 -52.5t-16.5 -55t-48.5 -25h-360z" />
    <glyph glyph-name="aacute" unicode="&#xe1;" horiz-adv-x="980" 
d="M757 466l23 -86h-2q39 -80 63 -80h64v-320h-145q-52 0 -79 28q-29 -28 -81 -28h-105v320q90 0 90 25q0 12 -6 24l-2 3l-17 68h-240l-10 -40h9q-24 -44 -24 -55q0 -25 90 -25l-1 -320h-104q-52 0 -79 28q-29 -28 -81 -28h-145v320h66q22 0 51 56l1 -1l30 111
q-11 14 -89 54q101 51 101 100h29l92 346q4 8 4 12q0 2 -45 2v320h145q52 0 80 -28q28 27 81 28h144v-320q-45 0 -45 -2q0 -4 4 -12l92 -346h29q0 -49 101 -100q-78 -40 -89 -54zM510 620l-70 278l-70 -278h140zM240 1420q-32 0 -48.5 25t-16.5 55t15 52.5t79 45.5l258 119
q46 23 73 23q49 0 77 -49t28 -111t-28 -111t-77 -49h-360z" />
    <glyph glyph-name="acircumflex" unicode="&#xe2;" horiz-adv-x="980" 
d="M757 466l23 -86h-2q39 -80 63 -80h64v-320h-145q-52 0 -79 28q-29 -28 -81 -28h-105v320q90 0 90 25q0 12 -6 24l-2 3l-17 68h-240l-10 -40h9q-24 -44 -24 -55q0 -25 90 -25l-1 -320h-104q-52 0 -79 28q-29 -28 -81 -28h-145v320h66q22 0 51 56l1 -1l30 111
q-11 14 -89 54q101 51 101 100h29l92 346q4 8 4 12q0 2 -45 2v320h145q52 0 80 -28q28 27 81 28h144v-320q-45 0 -45 -2q0 -4 4 -12l92 -346h29q0 -49 101 -100q-78 -40 -89 -54zM510 620l-70 278l-70 -278h140zM440 1603l-146 -183h-218l270 360h188l270 -360h-218z" />
    <glyph glyph-name="atilde" unicode="&#xe3;" horiz-adv-x="980" 
d="M757 466l23 -86h-2q39 -80 63 -80h64v-320h-145q-52 0 -79 28q-29 -28 -81 -28h-105v320q90 0 90 25q0 12 -6 24l-2 3l-17 68h-240l-10 -40h9q-24 -44 -24 -55q0 -25 90 -25l-1 -320h-104q-52 0 -79 28q-29 -28 -81 -28h-145v320h66q22 0 51 56l1 -1l30 111
q-11 14 -89 54q101 51 101 100h29l92 346q4 8 4 12q0 2 -45 2v320h145q52 0 80 -28q28 27 81 28h144v-320q-45 0 -45 -2q0 -4 4 -12l92 -346h29q0 -49 101 -100q-78 -40 -89 -54zM510 620l-70 278l-70 -278h140zM785 1777v-224q-48 -48 -93 -70.5t-132 -22.5q-85 0 -145 20
t-95 20q-38 0 -91 -9t-134 -131v247q48 48 93 70.5t132 22.5q85 0 145 -20t95 -20t90 18.5t135 98.5z" />
    <glyph glyph-name="adieresis" unicode="&#xe4;" horiz-adv-x="980" 
d="M757 466l23 -86h-2q39 -80 63 -80h64v-320h-145q-52 0 -79 28q-29 -28 -81 -28h-105v320q90 0 90 25q0 12 -6 24l-2 3l-17 68h-240l-10 -40h9q-24 -44 -24 -55q0 -25 90 -25l-1 -320h-104q-52 0 -79 28q-29 -28 -81 -28h-145v320h66q22 0 51 56l1 -1l30 111
q-11 14 -89 54q101 51 101 100h29l92 346q4 8 4 12q0 2 -45 2v320h145q52 0 80 -28q28 27 81 28h144v-320q-45 0 -45 -2q0 -4 4 -12l92 -346h29q0 -49 101 -100q-78 -40 -89 -54zM510 620l-70 278l-70 -278h140zM357 1691q28 -49 28 -111t-28 -111t-77 -49t-77 49t-28 111
t28 111t77 49t77 -49zM677 1691q28 -49 28 -111t-28 -111t-77 -49t-77 49t-28 111t28 111t77 49t77 -49z" />
    <glyph glyph-name="aring" unicode="&#xe5;" horiz-adv-x="980" 
d="M757 466l23 -86h-2q39 -80 63 -80h64v-320h-145q-52 0 -79 28q-29 -28 -81 -28h-105v320q90 0 90 25q0 12 -6 24l-2 3l-17 68h-240l-10 -40h9q-24 -44 -24 -55q0 -25 90 -25l-1 -320h-104q-52 0 -79 28q-29 -28 -81 -28h-145v320h66q22 0 51 56l1 -1l30 111
q-11 14 -89 54q101 51 101 100h29l92 346q4 8 4 12q0 2 -45 2v320h145q52 0 80 -28q28 27 81 28h144v-320q-45 0 -45 -2q0 -4 4 -12l92 -346h29q0 -49 101 -100q-78 -40 -89 -54zM510 620l-70 278l-70 -278h140zM517 1691q28 -49 28 -111t-28 -111t-77 -49t-77 49t-28 111
t28 111t77 49t77 -49z" />
    <glyph glyph-name="ae" unicode="&#xe6;" horiz-adv-x="1340" 
d="M616 975l4 3q0 -4 4 -12l-8 30v-21zM510 620l-70 278l-70 -278h140zM905 -19v-1h-145q-52 0 -79 28q-29 -28 -81 -28h-105v320q90 0 90 25q0 12 -6 24l-2 3l-17 68h-240l-10 -40h9q-24 -44 -24 -55q0 -25 90 -25l-1 -320h-104q-52 0 -79 28q-29 -28 -81 -28h-145v320h66
q22 0 51 56l1 -1l30 111q-11 14 -89 54q101 51 101 100h29l92 346q4 8 4 12q0 2 -45 2v320h145q52 0 80 -28q28 27 81 28h120q51 0 79 -29q31 29 161 29q132 0 160 -28q28 28 80 28h145v-480h-210l-1 100q0 60 -54 61h-120q-56 -1 -56 -141l1 -100h70v40h129l1 -60
q0 -29 102 -80q-102 -50 -102 -80l-1 -60h-129v40h-70l-1 -100q0 -140 55 -140h121q54 0 55 60v100h210v-480h-146q-51 1 -79 28q-29 -27 -136 -27z" />
    <glyph glyph-name="ccedilla" unicode="&#xe7;" horiz-adv-x="800" 
d="M614 20q211 -8 211 -258v-22h-330q0 80 -54 80q-158 0 -180 175q-206 47 -206 285v280q0 29 -102 80q102 51 102 80v280q0 300 345 300q99 0 135 -13v13h210v-520h-210v60q0 140 -135 140t-135 -140v-120q0 -29 102 -80q-102 -51 -102 -80v-120q0 -140 135 -140t135 140
v60h210v-220q0 -202 -131 -260z" />
    <glyph glyph-name="egrave" unicode="&#xe8;" horiz-adv-x="821" 
d="M746 -20h-146q-51 1 -79 28q-29 -27 -161 -27t-159 27q-29 -28 -81 -28h-144l-1 320h66q55 0 55 60v201q-1 28 -103 78q102 52 103 81v200q-1 60 -56 60h-65l1 320h145q51 0 79 -29q31 29 161 29q132 0 160 -28q28 28 80 28h145v-480h-210l-1 100q0 60 -54 61h-120
q-56 -1 -56 -141l1 -100h70v40h129l1 -60q0 -29 102 -80q-102 -50 -102 -80l-1 -60h-129v40h-70l-1 -100q0 -140 55 -140h121q54 0 55 60v100h210v-480zM200 1420q-49 0 -77 49t-28 111t28 111t77 49q28 0 73 -23l258 -119q64 -23 79 -45.5t15 -52.5t-16.5 -55t-48.5 -25
h-360z" />
    <glyph glyph-name="eacute" unicode="&#xe9;" horiz-adv-x="821" 
d="M746 -20h-146q-51 1 -79 28q-29 -27 -161 -27t-159 27q-29 -28 -81 -28h-144l-1 320h66q55 0 55 60v201q-1 28 -103 78q102 52 103 81v200q-1 60 -56 60h-65l1 320h145q51 0 79 -29q31 29 161 29q132 0 160 -28q28 28 80 28h145v-480h-210l-1 100q0 60 -54 61h-120
q-56 -1 -56 -141l1 -100h70v40h129l1 -60q0 -29 102 -80q-102 -50 -102 -80l-1 -60h-129v40h-70l-1 -100q0 -140 55 -140h121q54 0 55 60v100h210v-480zM160 1420q-32 0 -48.5 25t-16.5 55t15 52.5t79 45.5l258 119q46 23 73 23q49 0 77 -49t28 -111t-28 -111t-77 -49h-360z
" />
    <glyph glyph-name="ecircumflex" unicode="&#xea;" horiz-adv-x="821" 
d="M746 -20h-146q-51 1 -79 28q-29 -27 -161 -27t-159 27q-29 -28 -81 -28h-144l-1 320h66q55 0 55 60v201q-1 28 -103 78q102 52 103 81v200q-1 60 -56 60h-65l1 320h145q51 0 79 -29q31 29 161 29q132 0 160 -28q28 28 80 28h145v-480h-210l-1 100q0 60 -54 61h-120
q-56 -1 -56 -141l1 -100h70v40h129l1 -60q0 -29 102 -80q-102 -50 -102 -80l-1 -60h-129v40h-70l-1 -100q0 -140 55 -140h121q54 0 55 60v100h210v-480zM360 1603l-146 -183h-218l270 360h188l270 -360h-218z" />
    <glyph glyph-name="edieresis" unicode="&#xeb;" horiz-adv-x="821" 
d="M746 -20h-146q-51 1 -79 28q-29 -27 -161 -27t-159 27q-29 -28 -81 -28h-144l-1 320h66q55 0 55 60v201q-1 28 -103 78q102 52 103 81v200q-1 60 -56 60h-65l1 320h145q51 0 79 -29q31 29 161 29q132 0 160 -28q28 28 80 28h145v-480h-210l-1 100q0 60 -54 61h-120
q-56 -1 -56 -141l1 -100h70v40h129l1 -60q0 -29 102 -80q-102 -50 -102 -80l-1 -60h-129v40h-70l-1 -100q0 -140 55 -140h121q54 0 55 60v100h210v-480zM277 1691q28 -49 28 -111t-28 -111t-77 -49t-77 49t-28 111t28 111t77 49t77 -49zM597 1691q28 -49 28 -111t-28 -111
t-77 -49t-77 49t-28 111t28 111t77 49t77 -49z" />
    <glyph glyph-name="igrave" unicode="&#xec;" horiz-adv-x="480" 
d="M415 300v-320h-145q-52 0 -79 28q-29 -28 -81 -28h-145v320h66q55 0 55 60v200q0 29 -102 80q102 51 102 80v200q0 60 -55 60h-66v320h145q52 0 81 -28q27 28 79 28h145v-320h-64q-55 0 -55 -60v-200q0 -29 102 -80q-102 -51 -102 -80v-200q0 -60 55 -60h64zM30 1420
q-49 0 -77 49t-28 111t28 111t77 49q28 0 73 -23l258 -119q64 -23 79 -45.5t15 -52.5t-16.5 -55t-48.5 -25h-360z" />
    <glyph glyph-name="iacute" unicode="&#xed;" horiz-adv-x="480" 
d="M415 300v-320h-145q-52 0 -79 28q-29 -28 -81 -28h-145v320h66q55 0 55 60v200q0 29 -102 80q102 51 102 80v200q0 60 -55 60h-66v320h145q52 0 81 -28q27 28 79 28h145v-320h-64q-55 0 -55 -60v-200q0 -29 102 -80q-102 -51 -102 -80v-200q0 -60 55 -60h64zM-10 1420
q-32 0 -48.5 25t-16.5 55t15 52.5t79 45.5l258 119q46 23 73 23q49 0 77 -49t28 -111t-28 -111t-77 -49h-360z" />
    <glyph glyph-name="icircumflex" unicode="&#xee;" horiz-adv-x="440" 
d="M395 300v-320h-145q-52 0 -79 28q-29 -28 -81 -28h-145v320h66q55 0 55 60v200q0 29 -102 80q102 51 102 80v200q0 60 -55 60h-66v320h145q52 0 81 -28q27 28 79 28h145v-320h-64q-55 0 -55 -60v-200q0 -29 102 -80q-102 -51 -102 -80v-200q0 -60 55 -60h64zM170 1603
l-146 -183h-218l270 360h188l270 -360h-218z" />
    <glyph glyph-name="idieresis" unicode="&#xef;" horiz-adv-x="480" 
d="M415 300v-320h-145q-52 0 -79 28q-29 -28 -81 -28h-145v320h66q55 0 55 60v200q0 29 -102 80q102 51 102 80v200q0 60 -55 60h-66v320h145q52 0 81 -28q27 28 79 28h145v-320h-64q-55 0 -55 -60v-200q0 -29 102 -80q-102 -51 -102 -80v-200q0 -60 55 -60h64zM107 1691
q28 -49 28 -111t-28 -111t-77 -49t-77 49t-28 111t28 111t77 49t77 -49zM427 1691q28 -49 28 -111t-28 -111t-77 -49t-77 49t-28 111t28 111t77 49t77 -49z" />
    <glyph glyph-name="eth" unicode="&#xf0;" horiz-adv-x="980" 
d="M386 500v-61q0 -140 55 -140h40q135 0 135 140v400q0 140 -135 141l-40 -1q-55 0 -55 -140l-1 -59h119l1 -60q0 -29 102 -80q-102 -50 -102 -80l-1 -60h-118zM175 780v140q0 60 -15 60h-105v320h145q52 0 80 -28q28 28 160 28h40q345 0 345 -300v-280q0 -29 101 -80
q-101 -51 -101 -80v-280q0 -300 -345 -300h-40q-132 0 -160 28q-28 -28 -80 -28h-145v320h65q55 0 55 60v140h-120v60q0 29 -102 79q102 52 102 81v60h120z" />
    <glyph glyph-name="ntilde" unicode="&#xf1;" horiz-adv-x="1061" 
d="M825 1777v-224q-48 -48 -93 -70.5t-132 -22.5q-85 0 -145 20t-95 20q-38 0 -91 -9t-134 -131v247q48 48 93 70.5t132 22.5q85 0 145 -20t95 -20t90 18.5t135 98.5zM609 609l46 -137v88q0 19 -46 49zM350 672l-44 132v-4h-1v-80q0 -19 45 -48zM368 619q-63 -36 -63 -59
v-80h1v-120q0 -60 55 -60h64v-320h-145q-52 0 -79 28q-29 -28 -81 -28h-145v320h66q55 0 55 60v200q0 29 -102 80q102 51 102 80v200q0 60 -55 60h-66v320h145q52 0 81 -28q27 28 79 28h99l213 -639q64 36 65 59v200q0 60 -55 60h-66v320h145q52 0 81 -28q27 28 79 28h145
v-320h-64q-55 0 -55 -60v-200q0 -29 102 -80q-102 -51 -102 -80v-200q0 -60 55 -60h64v-320h-145q-52 0 -79 28q-29 -28 -81 -28h-100z" />
    <glyph glyph-name="ograve" unicode="&#xf2;" horiz-adv-x="800" 
d="M847 640q-102 -51 -102 -80v-280q0 -300 -345 -300t-345 300v280q0 29 -102 80q102 51 102 80v280q0 300 345 300t345 -300v-280q0 -29 102 -80zM535 720v120q0 140 -135 140t-135 -140v-120q0 -29 102 -80q-102 -51 -102 -80v-120q0 -140 135 -140t135 140v120
q0 29 -102 80q102 51 102 80zM240 1420q-49 0 -77 49t-28 111t28 111t77 49q28 0 73 -23l258 -119q64 -23 79 -45.5t15 -52.5t-16.5 -55t-48.5 -25h-360z" />
    <glyph glyph-name="oacute" unicode="&#xf3;" horiz-adv-x="800" 
d="M847 640q-102 -51 -102 -80v-280q0 -300 -345 -300t-345 300v280q0 29 -102 80q102 51 102 80v280q0 300 345 300t345 -300v-280q0 -29 102 -80zM535 720v120q0 140 -135 140t-135 -140v-120q0 -29 102 -80q-102 -51 -102 -80v-120q0 -140 135 -140t135 140v120
q0 29 -102 80q102 51 102 80zM200 1420q-32 0 -48.5 25t-16.5 55t15 52.5t79 45.5l258 119q46 23 73 23q49 0 77 -49t28 -111t-28 -111t-77 -49h-360z" />
    <glyph glyph-name="ocircumflex" unicode="&#xf4;" horiz-adv-x="900" 
d="M847 640q-102 -51 -102 -80v-280q0 -300 -345 -300t-345 300v280q0 29 -102 80q102 51 102 80v280q0 300 345 300t345 -300v-280q0 -29 102 -80zM535 720v120q0 140 -135 140t-135 -140v-120q0 -29 102 -80q-102 -51 -102 -80v-120q0 -140 135 -140t135 140v120
q0 29 -102 80q102 51 102 80zM400 1603l-146 -183h-218l270 360h188l270 -360h-218z" />
    <glyph glyph-name="otilde" unicode="&#xf5;" horiz-adv-x="800" 
d="M847 640q-102 -51 -102 -80v-280q0 -300 -345 -300t-345 300v280q0 29 -102 80q102 51 102 80v280q0 300 345 300t345 -300v-280q0 -29 102 -80zM535 720v120q0 140 -135 140t-135 -140v-120q0 -29 102 -80q-102 -51 -102 -80v-120q0 -140 135 -140t135 140v120
q0 29 -102 80q102 51 102 80zM745 1777v-224q-48 -48 -93 -70.5t-132 -22.5q-85 0 -145 20t-95 20q-38 0 -91 -9t-134 -131v247q48 48 93 70.5t132 22.5q85 0 145 -20t95 -20t90 18.5t135 98.5z" />
    <glyph glyph-name="odieresis" unicode="&#xf6;" horiz-adv-x="800" 
d="M847 640q-102 -51 -102 -80v-280q0 -300 -345 -300t-345 300v280q0 29 -102 80q102 51 102 80v280q0 300 345 300t345 -300v-280q0 -29 102 -80zM535 720v120q0 140 -135 140t-135 -140v-120q0 -29 102 -80q-102 -51 -102 -80v-120q0 -140 135 -140t135 140v120
q0 29 -102 80q102 51 102 80zM317 1691q28 -49 28 -111t-28 -111t-77 -49t-77 49t-28 111t28 111t77 49t77 -49zM637 1691q28 -49 28 -111t-28 -111t-77 -49t-77 49t-28 111t28 111t77 49t77 -49z" />
    <glyph glyph-name="divide" unicode="&#xf7;" 
d="M75 631v70q0 39 -122 99q122 62 122 101v70h150v-50l450 -1v50h149l1 -70q0 -39 122 -100q-122 -60 -122 -100l-1 -70h-149v50l-450 1l-1 -50h-149zM541 1311q34 -59 34 -136q0 -76 -34 -135.5t-91 -59.5t-91 59.5t-34 135.5q0 77 34 136t91 59t91 -59zM541 561
q34 -59 34 -136q0 -76 -34 -135.5t-91 -59.5t-91 59.5t-34 135.5q0 77 34 136t91 59t91 -59z" />
    <glyph glyph-name="oslash" unicode="&#xf8;" horiz-adv-x="800" 
d="M499 950q-24 30 -99 30q-135 0 -135 -140v-240zM301 330q24 -30 99 -30q135 0 135 140v240zM745 1000v-280q0 -29 102 -80q-102 -51 -102 -80v-280q0 -300 -345 -300t-345 300v280q0 29 -102 80q102 51 102 80v280q0 300 345 300t345 -300z" />
    <glyph glyph-name="ugrave" unicode="&#xf9;" horiz-adv-x="981" 
d="M576 920q-1 60 -56 60h-65l1 320h145q51 0 79 -29q31 29 81 29h145v-321l-65 2q-55 -1 -55 -61l-1 -200q0 -29 102 -80q-102 -51 -102 -80v-280q0 -300 -345 -300t-345 300v280q0 29 -102 80q102 51 102 80v200q0 60 -55 60h-65l1 320h145q51 0 79 -29q31 29 81 29h145
v-321l-65 2q-55 -1 -56 -61v-200q0 -29 102 -80q-102 -51 -102 -80v-120q0 -140 135 -140t135 140v120q0 29 -102 80q102 51 102 80zM280 1420q-49 0 -77 49t-28 111t28 111t77 49q28 0 73 -23l258 -119q64 -23 79 -45.5t15 -52.5t-16.5 -55t-48.5 -25h-360z" />
    <glyph glyph-name="uacute" unicode="&#xfa;" horiz-adv-x="981" 
d="M576 920q-1 60 -56 60h-65l1 320h145q51 0 79 -29q31 29 81 29h145v-321l-65 2q-55 -1 -55 -61l-1 -200q0 -29 102 -80q-102 -51 -102 -80v-280q0 -300 -345 -300t-345 300v280q0 29 -102 80q102 51 102 80v200q0 60 -55 60h-65l1 320h145q51 0 79 -29q31 29 81 29h145
v-321l-65 2q-55 -1 -56 -61v-200q0 -29 102 -80q-102 -51 -102 -80v-120q0 -140 135 -140t135 140v120q0 29 -102 80q102 51 102 80zM240 1420q-32 0 -48.5 25t-16.5 55t15 52.5t79 45.5l258 119q46 23 73 23q49 0 77 -49t28 -111t-28 -111t-77 -49h-360z" />
    <glyph glyph-name="ucircumflex" unicode="&#xfb;" horiz-adv-x="981" 
d="M576 920q-1 60 -56 60h-65l1 320h145q51 0 79 -29q31 29 81 29h145v-321l-65 2q-55 -1 -55 -61l-1 -200q0 -29 102 -80q-102 -51 -102 -80v-280q0 -300 -345 -300t-345 300v280q0 29 -102 80q102 51 102 80v200q0 60 -55 60h-65l1 320h145q51 0 79 -29q31 29 81 29h145
v-321l-65 2q-55 -1 -56 -61v-200q0 -29 102 -80q-102 -51 -102 -80v-120q0 -140 135 -140t135 140v120q0 29 -102 80q102 51 102 80zM440 1603l-146 -183h-218l270 360h188l270 -360h-218z" />
    <glyph glyph-name="udieresis" unicode="&#xfc;" horiz-adv-x="981" 
d="M576 920q-1 60 -56 60h-65l1 320h145q51 0 79 -29q31 29 81 29h145v-321l-65 2q-55 -1 -55 -61l-1 -200q0 -29 102 -80q-102 -51 -102 -80v-280q0 -300 -345 -300t-345 300v280q0 29 -102 80q102 51 102 80v200q0 60 -55 60h-65l1 320h145q51 0 79 -29q31 29 81 29h145
v-321l-65 2q-55 -1 -56 -61v-200q0 -29 102 -80q-102 -51 -102 -80v-120q0 -140 135 -140t135 140v120q0 29 -102 80q102 51 102 80zM357 1691q28 -49 28 -111t-28 -111t-77 -49t-77 49t-28 111t28 111t77 49t77 -49zM677 1691q28 -49 28 -111t-28 -111t-77 -49t-77 49
t-28 111t28 111t77 49t77 -49z" />
    <glyph glyph-name="yacute" unicode="&#xfd;" horiz-adv-x="980" 
d="M589 669l60 -29q-103 -50 -104 -80v-200q0 -60 55 -60h65v-320h-144q-53 1 -81 28q-28 -28 -80 -28h-144l-1 320h65q54 0 55 60v201q0 28 -101 77q56 31 57 31l-202 252q-60 59 -114 59v320h145q52 0 81 -28q27 28 79 28h105l1 -320q-91 0 -91 -25q0 -11 24 -55h7
l114 -143l140 175l-1 -1q6 12 6 24q0 25 -89 25l-1 320h105q52 0 81 -28q27 28 79 28h145v-320q-53 0 -132 -80h1zM240 1420q-32 0 -48.5 25t-16.5 55t15 52.5t79 45.5l258 119q46 23 73 23q49 0 77 -49t28 -111t-28 -111t-77 -49h-360z" />
    <glyph glyph-name="thorn" unicode="&#xfe;" horiz-adv-x="800" 
d="M536 640q0 100 -175 100q-55 0 -55 -100l-1 -40q0 -60 56 -61q175 1 175 101zM305 960q0 -20 15 -20h80q345 0 346 -300q0 -299 -345 -300h-81q-15 0 -15 -20t55 -20h65v-320h-145q-52 0 -80 28q-28 -28 -80 -28h-145v320h65q55 0 55 20v40q0 29 -101 80q101 51 101 80
v240q-1 29 -103 80q102 51 103 100h1q0 40 -55 40h-66v320h145q52 0 81 -28q27 28 79 28h145v-320h-65q-54 0 -55 -20z" />
    <glyph glyph-name="ydieresis" unicode="&#xff;" horiz-adv-x="960" 
d="M589 669l60 -29q-103 -50 -104 -80v-200q0 -60 55 -60h65v-320h-144q-53 1 -81 28q-28 -28 -80 -28h-144l-1 320h65q54 0 55 60v201q0 28 -101 77q56 31 57 31l-202 252q-60 59 -114 59v320h145q52 0 81 -28q27 28 79 28h105l1 -320q-90 0 -90 -25q0 -11 22 -55h8
l114 -143l140 175l-1 -1q7 13 7 24q0 25 -90 25l-1 320h105q52 0 81 -28q27 28 79 28h145v-320q-53 0 -132 -80h1zM357 1691q28 -49 28 -111t-28 -111t-77 -49t-77 49t-28 111t28 111t77 49t77 -49zM677 1691q28 -49 28 -111t-28 -111t-77 -49t-77 49t-28 111t28 111t77 49
t77 -49z" />
    <glyph glyph-name="circumflex" unicode="&#x2c6;" horiz-adv-x="900" 
d="M400 2013l-186 -233h-258l330 440h228l330 -440h-258z" />
    <glyph glyph-name="tilde" unicode="&#x2dc;" horiz-adv-x="900" 
d="M825 2107v-264q-58 -58 -113 -85.5t-162 -27.5q-105 0 -180 25t-120 25q-48 0 -116 -11.5t-159 -148.5v287q58 58 113 85.5t162 27.5q105 0 180 -25t120 -25t115 23.5t160 113.5z" />
    <glyph glyph-name="endash" unicode="&#x2013;" horiz-adv-x="1100" 
d="M75 631v70q0 39 -122 99q122 62 122 101v70h150v-51h550v50h149l1 -70q0 -39 122 -100q-122 -60 -122 -100l-1 -70h-149v50h-550l-1 -49h-149z" />
    <glyph glyph-name="emdash" unicode="&#x2014;" horiz-adv-x="1200" 
d="M75 631v70q0 39 -122 99q122 62 122 101v70h150v-50l650 -1v50h149l1 -70q0 -39 122 -100q-122 -60 -122 -100l-1 -70h-149v50l-650 1l-1 -50h-149z" />
    <glyph glyph-name="quoteleft" unicode="&#x2018;" horiz-adv-x="300" 
d="M125 1445q32 0 66 -59.5t34 -135.5q0 -77 -34 -136t-91 -59t-91 59t-34 136v175q0 76 34 135.5t91 59.5q40 0 81 -43q-20 -22 -29 -37q-27 -47 -27 -95z" />
    <glyph glyph-name="quoteright" unicode="&#x2019;" horiz-adv-x="300" 
d="M75 1230q-32 0 -66 59.5t-34 135.5q0 77 34 136t91 59t91 -59t34 -136v-175q0 -76 -34 -135.5t-91 -59.5q-40 0 -81 43q20 22 29 37q27 47 27 95z" />
    <glyph glyph-name="quotesinglbase" unicode="&#x201a;" horiz-adv-x="300" 
d="M75 -45q-32 0 -66 59.5t-34 135.5q0 77 34 136t91 59t91 -59t34 -136v-175q0 -76 -34 -135.5t-91 -59.5q-40 0 -81 43q20 22 29 37q27 47 27 95z" />
    <glyph glyph-name="quotedblleft" unicode="&#x201c;" horiz-adv-x="550" 
d="M215 1328v97q0 76 34 135.5t91 59.5q40 0 81 -43q-20 -22 -29 -37q-27 -47 -27 -95q32 0 66 -59.5t34 -135.5q0 -77 -34 -136t-91 -59t-91 59q-21 36 -29 80q-8 -44 -29 -80q-34 -59 -91 -59t-91 59t-34 136v175q0 76 34 135.5t91 59.5q40 0 81 -43q-20 -22 -29 -37
q-27 -47 -27 -95q32 0 66 -59q16 -28 24 -58z" />
    <glyph glyph-name="quotedblright" unicode="&#x201d;" horiz-adv-x="550" 
d="M225 1347v-97q0 -76 -34 -135.5t-91 -59.5q-40 0 -81 43q20 22 29 37q27 47 27 95q-32 0 -66 59.5t-34 135.5q0 77 34 136t91 59t91 -59q21 -36 29 -80q8 44 29 80q34 59 91 59t91 -59t34 -136v-175q0 -76 -34 -135.5t-91 -59.5q-40 0 -81 43q20 22 29 37q27 47 27 95
q-32 0 -66 60q-16 27 -24 57z" />
    <glyph glyph-name="quotedblbase" unicode="&#x201e;" horiz-adv-x="550" 
d="M225 97v-97q0 -76 -34 -135.5t-91 -59.5q-40 0 -81 43q20 22 29 37q27 47 27 95q-32 0 -66 59.5t-34 135.5q0 77 34 136t91 59t91 -59q21 -36 29 -80q8 44 29 80q34 59 91 59t91 -59t34 -136v-175q0 -76 -34 -135.5t-91 -59.5q-40 0 -81 43q20 22 29 37q27 47 27 95
q-32 0 -66 60q-16 27 -24 57z" />
    <glyph glyph-name="dagger" unicode="&#x2020;" horiz-adv-x="973" 
d="M388 1045q-6 69 -50 147q-59 105 -59 137q0 57 43.5 92.5t113.5 35.5q67 0 112 -33t45 -86q0 -36 -57 -145q-44 -82 -51 -149q60 5 136 48q107 61 143 61q62 0 98 -43t36 -109q0 -62 -33 -107t-92 -45q-39 0 -150 58q-80 44 -139 51q7 -146 111 -249q-108 -467 -114 -999
h-88q-6 532 -116 999q104 103 112 249q-61 -6 -138 -48q-107 -61 -143 -61q-62 0 -97.5 43t-35.5 109q0 62 33 107t91 45q39 0 151 -59q80 -44 138 -49z" />
    <glyph glyph-name="daggerdbl" unicode="&#x2021;" horiz-adv-x="973" 
d="M484 209q59 7 139 51q111 58 150 58q59 0 92 -45t33 -107q0 -66 -36 -109t-98 -43q-36 0 -143 61q-76 43 -136 48q7 -67 51 -149q57 -109 57 -145q0 -53 -45 -86t-112 -33q-70 0 -113.5 35.5t-43.5 92.5q0 32 59 137q44 78 50 147q-58 -5 -138 -49q-112 -59 -151 -59
q-58 0 -91 45t-33 107q0 66 35.5 109t97.5 43q36 0 143 -61q77 -42 138 -48q-8 198 -113 375q105 176 113 374q-61 -6 -138 -48q-107 -61 -143 -61q-62 0 -97.5 43t-35.5 109q0 62 33 107t91 45q39 0 151 -59q80 -44 138 -49q-6 69 -50 147q-59 105 -59 137q0 57 43.5 92.5
t113.5 35.5q67 0 112 -33t45 -86q0 -36 -57 -145q-44 -82 -51 -149q60 5 136 48q107 61 143 61q62 0 98 -43t36 -109q0 -62 -33 -107t-92 -45q-39 0 -150 58q-80 44 -139 51q7 -198 112 -374q-105 -177 -112 -375z" />
    <glyph glyph-name="bullet" unicode="&#x2022;" horiz-adv-x="692" 
d="M-25 718q0 130 93.5 222.5t228.5 92.5q134 0 227 -93t93 -222t-94 -223t-228 -94q-135 0 -227.5 93.5t-92.5 223.5z" />
    <glyph glyph-name="ellipsis" unicode="&#x2026;" horiz-adv-x="800" 
d="M220 119q-8 -43 -29 -79q-34 -60 -91 -60t-91 59.5t-34 135.5q0 77 34 136t91 59t91 -59q21 -36 29 -80q8 44 29 80q34 59 91 59t91 -59q21 -36 29 -80q8 44 29 80q34 59 91 59t91 -59t34 -136q0 -76 -34 -135.5t-91 -59.5t-91 60q-21 36 -29 79q-8 -43 -29 -79
q-34 -60 -91 -60t-91 60q-21 36 -29 79z" />
    <glyph glyph-name="guilsinglleft" unicode="&#x2039;" horiz-adv-x="800" 
d="M651 470h74v-390h-175q-62 0 -99 38q-39 -38 -101 -38h-126v390q115 0 115 13q0 15 -56 52l-2 2l-315 263l315 263l2 2q56 37 56 52q0 13 -115 13v390h126q62 0 101 -38q37 38 99 38h175v-390h-74q-38 0 -81 -43l-336 -287l336 -287q43 -43 81 -43z" />
    <glyph glyph-name="guilsinglright" unicode="&#x203a;" horiz-adv-x="800" 
d="M131 513l335 287l-335 287q-44 43 -81 43h-75v390h175q62 0 99 -38q39 38 101 38h126v-390q-115 0 -115 -13q0 -15 56 -52l2 -2l315 -263l-315 -263l-2 -2q-56 -37 -56 -52q0 -13 115 -13v-390h-126q-62 0 -101 38q-37 -38 -99 -38h-175v390h75q37 0 81 43z" />
    <glyph glyph-name="Euro" unicode="&#x20ac;" horiz-adv-x="1100" 
d="M175 1171v79q0 370 425 370q122 0 175 -19v19h250v-640h-250v70q0 180 -175 180q-152 0 -169 -111h44v50h149l1 -70q0 -39 122 -100q-122 -60 -122 -100l-1 -70h-149v50h-50v-159h50v50h149l1 -70q0 -39 122 -100q-122 -60 -122 -100l-1 -70h-149v50h-43
q17 -110 168 -110q175 0 175 180v70h250v-270q0 -370 -425 -370t-425 370v80h-149v70q0 39 -122 99q122 62 122 101v70h149v61h-149v70q0 39 -122 99q122 62 122 101v70h149z" />
    <glyph glyph-name="trademark" unicode="&#x2122;" horiz-adv-x="1450" 
d="M1151 1255l-4 -13q4 5 4 8v5zM1127 1174l-27 -179q51 0 51 30v125q0 8 -24 24zM774 1173q-23 -15 -23 -23v-125q0 -30 50 -30zM753 1244l-2 8v-2q0 -3 2 -6zM625 1620q37 0 50 -13q13 13 50 13h83l142 -547l143 547h82q37 0 50 -13q13 13 50 13h100v-215h-49
q-25 0 -25 -30v-125q0 -14 72 -50q-72 -36 -72 -50v-125q0 -30 25 -30h49v-215h-100q-37 0 -50 13q-13 -13 -50 -13h-175q-37 1 -50 14q-13 -14 -50 -14h-175q-37 0 -50 13q-13 -13 -50 -13h-100v215h51q25 0 25 30v125q0 14 -72 50q72 36 72 50v125q0 30 -25 30h-51v-100
h-150v70q0 30 -24 30q-26 0 -26 -80v-75q1 -14 74 -50q-73 -35 -74 -50v-125q0 -30 25 -30h50v-215h-100q-37 1 -50 14q-13 -14 -50 -14h-99l-1 215h50q25 0 25 30v126q0 13 -72 49q72 36 72 50v125q0 30 -25 30t-25 -30l1 -70h-151v315h226q37 0 50 -13q13 13 50 13h324z
" />
    <glyph glyph-name="OE" unicode="&#x152;" horiz-adv-x="1550" 
d="M675 900v150q0 180 -175 180t-175 -180v-150q0 -39 122 -100q-122 -61 -122 -100v-150q0 -180 175 -180t175 180v150q0 39 -122 100q122 61 122 100zM925 1101v-181h99v50h149l1 -70q0 -39 122 -100q-122 -60 -122 -100l-1 -70h-149v50h-99v-182q10 -128 73 -128h151
q74 0 75 80v120h250v-590h-176q-61 1 -99 38q-38 -37 -201 -37q-162 0 -199 37q-39 -38 -101 -38h-198q-425 0 -425 370v350q0 39 -122 100q122 61 122 100v350q0 370 425 370h199q61 0 99 -39q40 39 201 39q162 0 200 -38q38 38 100 38h175v-590h-250l-1 120q0 80 -74 81
h-150q-64 -1 -74 -130z" />
    <glyph glyph-name="oe" unicode="&#x153;" horiz-adv-x="1260" 
d="M535 720v120q0 140 -135 140t-135 -140v-120q0 -29 102 -80q-102 -51 -102 -80v-120q0 -140 135 -140t135 140v120q0 29 -102 80q102 51 102 80zM745 881v-141h69v40h129l1 -60q0 -29 102 -80q-102 -50 -102 -80l-1 -60h-129v40h-69v-141q8 -99 53 -99h121q54 0 55 60
v100h210v-480h-146q-51 1 -79 28q-29 -27 -161 -27t-159 27q-29 -28 -81 -28h-158q-345 0 -345 300v280q0 29 -102 80q102 51 102 80v280q0 300 345 300h159q51 0 79 -29q31 29 161 29q132 0 160 -28q28 28 80 28h145v-480h-210l-1 100q0 60 -54 61h-120q-46 -1 -54 -100z
" />
    <glyph glyph-name="perthousand" unicode="&#x2030;" horiz-adv-x="1900" 
d="M974 452q0 178 -174 178t-174 -181v-51q0 -115 174 -128q174 13 174 131v51zM574 1152q0 178 -174 178t-174 -181v-51q0 -115 174 -128q174 13 174 131v51zM1400 270q174 13 174 131v51q0 178 -174 178t-174 -178v-51q0 -118 174 -131zM1100 59q-89 -78 -300 -79
q-122 0 -175 19v-19h-175q-62 0 -99 38q-39 -38 -101 -38h-125v390h76q32 0 63 60h-3l122 213q6 32 7 37h10q-425 0 -425 370v200q0 369 425 370q121 0 174 -19v19h176q62 0 101 -38q37 38 99 38h125v-390h-74q-34 0 -83 -100h-2l-99 -173q-6 -32 -7 -37h-10q211 0 300 -78
q89 78 300 78q425 0 425 -370v-200q0 -369 -425 -370q-211 1 -300 79z" />
  </font>
</defs>
</svg>
