<svg width="452" height="719" xmlns="http://www.w3.org/2000/svg"><defs><linearGradient x1="100.44%" y1="84.46%" x2="1.7%" y2="16.37%" id="a"><stop stop-color="#EBA942" offset="15.8%"/><stop stop-color="#FEE791" offset="50.33%"/></linearGradient><linearGradient x1="100.43%" y1="84.46%" x2="1.7%" y2="16.37%" id="b"><stop stop-color="#EBA942" offset="15.8%"/><stop stop-color="#FEE791" offset="50.33%"/></linearGradient><linearGradient x1="99.83%" y1="85.77%" x2="-11.13%" y2="18.18%" id="c"><stop stop-color="#EBA942" offset="15.8%"/><stop stop-color="#FEE791" offset="50.33%"/></linearGradient><linearGradient x1="114.87%" y1="84.07%" x2="2.82%" y2="14.97%" id="d"><stop stop-color="#EBA942" offset="15.8%"/><stop stop-color="#FEE791" offset="50.33%"/></linearGradient><linearGradient x1="78.54%" y1="20.44%" x2="23.64%" y2="103.74%" id="e"><stop stop-color="#FFF5C3" offset="4.4%"/><stop stop-color="#FFF1B6" offset="7.68%"/><stop stop-color="#FEEDA5" offset="13.76%"/><stop stop-color="#FEE99A" offset="21.32%"/><stop stop-color="#FEE893" offset="31.93%"/><stop stop-color="#FEE791" offset="61.39%"/><stop stop-color="#EBA942" offset="73.69%"/></linearGradient><linearGradient x1="80.14%" y1="17.37%" x2="3.07%" y2="101.12%" id="f"><stop stop-color="#FFF5C3" offset="3.88%"/><stop stop-color="#FFF1B6" offset="6.73%"/><stop stop-color="#FEEDA5" offset="11.99%"/><stop stop-color="#FEE99A" offset="18.54%"/><stop stop-color="#FEE893" offset="27.74%"/><stop stop-color="#FEE791" offset="53.26%"/><stop stop-color="#EBA942" offset="78.71%"/></linearGradient></defs><g fill-rule="nonzero" fill="none"><g fill="#6A6D41"><path d="M42.48 330.96a49.06 49.06 0 0 1-2.57-11.24l.75-.03v-1.22c0-.12 3-.04 3 .06v.9c.27-.01.6-.02.91-.01.16-1.02.34-2.04.54-3.06 0-.46.02-.91.05-1.36.01-.25.14-.48.35-.68l.48-2.32c.04-.2.27-.31.58-.38.22-.7.47-1.39.8-2.07.54-1.09 3.61-1.56 6.47-1.45l-.02-3.1c0-.83 1.42-1.4 3.27-1.67-.09-.44-.19-.88-.27-1.33-.09-.53.62-.95 1.73-1.25a32 32 0 0 1-.4-6.42c.11-2.01 7.93-2.44 10.9-1.1v-.04c-.02-.28-.05-.56-.06-.86-.02-.57 2.91-.66 3 0l.14 1.09a11.51 11.51 0 0 1 4.58-6.53c.69-.5 3.07.1 2.9.22-11.56 8.35-.06 25.95 5.9 34.25 10 13.98 26.07 24.4 41.36 31.97.53-.03 1.1 0 1.23.02l.07.01c.19.04.71.1.75.37l.02.2c.47.94.85 1.96 1.17 3.02 2.02 1.13 4.03 2.29 6 3.5.27.17.14.3-.16.38.72.43 1.45.85 2.17 1.29.27.16.03.31-.39.42.12.48-.52.87-1.27 1.15l.21.13c.52.34.72.64.7.9a37.57 37.57 0 0 1 7.9 6.16c.97 1.02-1.88 1.51-4.8 1.7a47.8 47.8 0 0 1 10.47 7.97c1.35 1.4-4.33 1.76-7.72 1.75 1.43 1.4 2.7 2.91 3.72 4.58.52.85-.35 1.35-1.78 1.62-.22.51-1.4.9-2.2 1.1.32.32.66.62.98.95.93.95-1.59 1.43-4.34 1.64 1.82 3.34 2.64 7.08 3.55 10.79 4.44 1.74 8.96 3.26 13.58 4.5 2.13.56 2.08 1.79 0 2.37-.2.06-.4.1-.61.15l2.55 1.15c2.42 1.1-1.31 2.16-2.15 2.3-2.57.42-5.78.5-8.21-.6-2.96-1.35-5.94-2.68-8.93-4-2.35.34-5.73.54-7.74-.67l-.9-.58-.21-.06c-3.56-1.3-5.8-3.95-8.34-6.38l-1.06-.5c-18.63-7.85-36.45-17.7-51.7-31.1a112.28 112.28 0 0 1-21.23-25.09 28.33 28.33 0 0 1-2.07-4.02c-1.16-1.97-2-4.14-2.62-6.39a21.41 21.41 0 0 1-1.03-3.1zM355.98 486.88l.4.14c-1.1-5.1-.58-10.95-.56-15.68 0-.13.06-.24.14-.35l-.31-1.4c-.12-.53-.37-2.5-.71-4.42l-.11-.08-1.17-.3c-1.22-.3-1.28-.67-.86-1l-1.8-.66c-1.72-.6-1.02-1.07.33-1.37h-.17c-1.74-.03-1.75-.87 0-.85.83.01 1.67.04 2.5.07l-.13-.1c-.66-.24 1.96-.66 2.59-.42.4.15.61.4.74.7 9.88.74 19.6 2.97 29.16 5.6 10.86 2.98 21.3 6.72 31.25 12.06a113.84 113.84 0 0 1 18.67 12.44l.27.24c.06.08.13.16.22.23l.3.24c2.42 2.19 4.79 4.43 7.1 6.73l.4 1.15a311.92 311.92 0 0 1 6.13 34.27c-.21 1.18-.44 2.36-.68 3.54-.49-.02-.97-.04-1.42-.1l-.78.81c.2 2.78-.53 5.43-3.13 7.26-1.1.77-2.67.88-4.06.83 1.52 1.92 2.99 3.89 4.4 5.9.93 1.35-5.62 1.43-7.43.75.32.73.63 1.46.9 2.22.36 1.03-6.95 1.67-7.86.3-.6-.9-1.24-1.77-1.89-2.63-.76.14-1.78.14-2.03-.22-6.98-9.93-16.43-17.14-27.11-22.74-4.6-2.41-9.48-4.76-14.5-6.15-2.34-.65-4.7-1.19-7.06-1.76-2.07.37-5.3-.17-6.07-.83l-1.64-1.4c-2.12-.78-4.5-1.93-5.33-4.08-.1-.26-.17-.52-.25-.77-.1-.1-.13-.17-.13-.25-1.94-2-3.99-3.88-5.99-5.84-.29-.28-.09-.5.38-.67-.24-.33-.48-.65-.71-1-.28-.4-.01-.68.4-.86 1.37-.6 2.78-.93 4.22-1.08l-.16-1.3-4.84-2.65a261.7 261.7 0 0 1-5.88-3.17c-1.5-.83.75-1.42 1.43-1.53.65-.1 1.4-.19 2.17-.2-.88-.53-1.75-1.05-2.6-1.6-1.67-1.07 1.9-1.49 4.06-1.56-2.54-1.7-5.04-3.49-7.47-5.38-1.06-.81 5.76-1.38 6.68-1.08z"/></g><g fill="#C5956D"><path d="M370.6 179.93a22.08 22.08 0 0 1 2.12.04c.06 0 .37 0 .44.06l.5.5-.44.05a22.12 22.12 0 0 1-2.12-.05c-.06 0-.38 0-.44-.06l-.5-.5.44-.05z"/><path d="M116.6 404.25c-.04.3-.05.58-.08.87.14.36.26.71.38 1.08l.52 1.14c6.47 5.3 12.82 10.75 19.16 16.2a935.86 935.86 0 0 0 16.76 14.58c5.04 3.98 9.91 8.2 14.77 12.43a140.5 140.5 0 0 1 5.81 4.94c4.36 3.5 8.82 6.86 13.48 9.94a6951.76 6951.76 0 0 0 65.85 53.84l.1.05c.9.85 1.8 1.7 2.76 2.5l.3.2h.02l.06.06c.67.47 1.33.95 1.97 1.44.75.56 1.79 1.28 2.38 2.17l.04.03c.09 0 .2-.02.3-.04 27.31 22.11 54.68 44.15 81.98 66.29.66.53 2.45-.39 3 .06l-17.94-14.5h.44c-2.1-2.75-4.34-5.37-6.65-7.92.16.02.34.02.53 0 .88.95 1.76 1.9 2.62 2.86.26.3 1.06.15 1.78.04l1.22.02c-.25-.32-.52-.61-.77-.92.92.96 1.84 1.92 2.77 2.86.28.28 1.05.14 1.74.03l1.26.03c-1.21-1.53-2.47-3-3.76-4.44.25-.02.53-.05.8-.1l1.46.04-2.74-2.75c3.38 2.28 6.8 4.5 10.24 6.65.73.45 2.16.27 3.56.07l3.44.07-2.1-2.01.66-.06 3.44.07-.24-.15c.1.04.19.08.24.15a73.99 73.99 0 0 0-1.87-2.57l3.37.07c-1.2-1.04-2.4-2.05-3.61-3.06a58.74 58.74 0 0 0 7.6 3.91c.57.24 1.71.17 2.92.06l4.09.09-.48-.22c.22.04.38.11.48.22a114.1 114.1 0 0 0-3.51-3.69c1.15.56 2.31 1.07 3.5 1.54.48.2 1.68.14 2.95.06l4.06.09-.42-.18c.21.04.36.1.42.18-.44-.62-.9-1.2-1.34-1.8 1.13.02 2.4 0 3.27-.05.18.74.37 1.47.57 2.2.11.42 6.93.44 7 .15l.16-.83.34.68c.24.47 6.67.62 7 .15 4.06-5.83 3.64-14.25 2.73-20.97a71.14 71.14 0 0 0-3.33-14.51c-.42-2.5-.91-5-1.51-7.48a265 265 0 0 0-1.43-4.16v.03l-.16-.48c-1.6-4.56-3.3-9.1-4.83-13.68-2-4.9-4.47-9.58-6-14.68-2.23-7.5 1.07-14.19 1.7-21.69.18-2.1.26-4.18.26-6.26 1.16-7.37.82-15.02-.57-22.63h.14c-1.7-10.85-4.96-21.51-10.62-30.88a46.8 46.8 0 0 0-1.78-4.1l.06-.02c.05-.24-.03-.34-.16-.54-.06-.07-.15-.12-.27-.14l-.43-.8c.07-.01.14-.02.2-.06 2.4-1.24 6.28-3.2 7.32-5.89.53-1.36.24-2.66-1.2-3.36-1.37-.67-1.96-1.02-1.97-1.44.27-.35.53-.72.78-1.09l1.1-1.01c7.53-7.1 2.18-16.68-4.79-21.84a66.33 66.33 0 0 1 15.23-3.35c3.68-.42 7.46-.94 10.94-2.23a44.18 44.18 0 0 0 12.63-4.91 48.05 48.05 0 0 0 18.17-20.07c5.17-10.06 7.64-22.03 5.8-32.51a11 11 0 0 0-.4-2.59h.05c-.1-.43-.22-.82-.36-1.21a8.8 8.8 0 0 0-.24-.79h.1c-.07-.16-.18-.3-.27-.46l-.22-.54a.34.34 0 0 0-.15-.14l-.02-.06c-.02-.05-.07-.08-.14-.1-1.74-2.28-4.7-3.4-7.59-4.05l-1.77-.7c-4.1-1.73-8.27-3.21-12.44-4.76-7.38-2.73-14.46-5.8-20.49-10.63 3.45-11.35 1.52-25.13-4.23-35.3.51-.2 1.03-.42 1.55-.66l.04-.02a29.5 29.5 0 0 0 .58-.28c6.2-3.1 11.73-9.1 4.49-14-.05-.04-.12-.06-.18-.08 2.33-.57 6.31-1.9 5.53-4.94-.63-2.44-2.84-4.14-5.1-5.38a15.3 15.3 0 0 0-.25-3.67c4.17.17 8.35 0 12.38-.73 1.63-.3 3.26-.67 4.86-1.12 3.12-.64 6.09-1.65 8.23-3.28.76-.41 1.5-.85 2.23-1.34 1.29-.86 3.78-2.45 5.55-4.32l1.03-1.28.16-.22c.17-.32.32-.65.48-.98.33-.85.4-1.71.05-2.56-1.81-4.47-6.98-8.33-10.73-11.18-4.22-3.22-8.75-6.14-13.68-8.17a50.14 50.14 0 0 0-15.17-3.7 91.7 91.7 0 0 0-4.69-.62c5.16-.52 12.92-2.82 14.2-8.02 0-.59.04-1.18.07-1.77 0-.21.03-.42.04-.63l-.04-.33c-1.04-6.1-8.06-9.28-13.17-11.33a60.87 60.87 0 0 0-15.34-3.92 38.5 38.5 0 0 0-3.1-.64 41.84 41.84 0 0 0-6.25-.63c3.42-4.7 2.56-10.54-3.49-13.5-4.02-1.98-8.53-2.56-12.97-2.48h-.24a14.1 14.1 0 0 0-5.06.46c-11.2 1.76-20.7 8.3-29.23 15.8 3.53-15.07-9.95-21.82-22.77-21.51-2.07-.06-4.2.08-5.85.64-.9.18-1.77.4-2.62.65-16.36 4.9-28.92 19.38-34.36 35.42-9.12-3.17-21.09-4.25-29.77-.72-.6.25-1.19.52-1.76.81.1.02.2.03.24 0-.65.32-1.3.64-1.94.98a15.1 15.1 0 0 0-2.9 2.37c-.59.82-1.04 1.66-1.37 2.55-.45 2.06-.37 4.17.15 6.17a29.55 29.55 0 0 0 3.72 6.22c.48.53.98 1.06 1.51 1.56.43.32.88.62 1.35.9-.09-.05-.22-.04-.36-.02.84.7 1.72 1.38 2.64 2.02l.12.1c-9.48-1.4-18.99 1.44-25.28 9.47a46.69 46.69 0 0 0-9.48 31.75.76.76 0 0 0-.4.13c-28.84 23.3-43.14 67.17-29.07 102.13-8.97 6.49-14.2 19.5-15.76 29.79-.66 4.36.5 8.75-.17 13.09-.51 3.38-1.8 6.3-3.18 9.42-2.69 6.1-4.16 12.35-3.38 18.86zm202.47 158.69l.69.55 2.24 2.38-.85-.8a246 246 0 0 0-2.08-2.13zM146.38 431.3l1.72 1.36H148c1.76 1.5 3.56 2.98 5.36 4.45.35.36.7.72 1.07 1.07-2.7-2.28-5.38-4.57-8.04-6.88zm-4.92-156.5c5.34-16.1 14.85-30.9 27.32-41.77.3 2.18.73 4.34 1.38 6.43.12.4 2.94-.13 3 .06a36.05 36.05 0 0 1-1.43-8.53l.1.43c.1.38 2.24.34 4.13.26 0 .52 0 1.04.03 1.57 0 .07 1.5.23 3.1.32a83.97 83.97 0 0 0-.62 3.94c-3.65 6.28-6.7 12.86-10.15 19.3l-.83 1.5a58.65 58.65 0 0 1-4.44 3.1c-4.07 2.53-7.87 5.06-10.56 9.12l1.5.03.4.03a249.5 249.5 0 0 0-1.87 3.65l-.3.15c-.46 0-.9.04-1.27.15-.18.06-.33.14-.5.2l.04-.18-.78-.01c-1.7-.14-5.69-.59-6.22-.13l-.49.46c-.56-.05-1.1-.09-1.54-.08zm-12.95 79.46c.3-.96.64-1.93 1-2.89-.2.73-.36 1.46-.54 2.19l-.46.7z"/></g><g fill="#AF764F"><path d="M231.53 273.22c-.19 2.5-.05 5.37-.1 6.41-.03.58-.15 1.53-.28 2.63-3.49-6.47-7.2-12.87-10.47-19.46 3.87 3.11 7.3 7.39 10.85 10.42zM211.6 238.41c-.22.6-.4 1.65-.54 2.96a124.01 124.01 0 0 1-3.44-5.55c1.3.9 2.63 1.76 3.98 2.59z"/><path d="M116.74 404.33c-.04.3-.05.58-.08.88.14.35.27.7.38 1.07l.52 1.15c6.47 5.3 12.82 10.74 19.17 16.2a935.86 935.86 0 0 0 16.76 14.57c5.03 3.99 9.9 8.21 14.76 12.43a140.5 140.5 0 0 1 5.82 4.95c4.35 3.5 8.81 6.85 13.47 9.93a6911.4 6911.4 0 0 0 65.85 53.84l.1.05c.9.86 1.81 1.7 2.76 2.5l.3.2h.02l.06.06c.67.47 1.33.95 1.98 1.44.74.56 1.78 1.29 2.37 2.17l.05.03c.09 0 .19-.02.3-.04 27.3 22.11 54.68 44.16 81.97 66.3.66.53 2.45-.4 3 .05l-17.93-14.5h.43c-2.1-2.75-4.33-5.37-6.64-7.92.15.02.34.02.53 0 .88.95 1.75 1.9 2.61 2.86.27.3 1.07.15 1.78.04l1.22.02c-.24-.32-.51-.6-.77-.92.92.97 1.84 1.92 2.77 2.86.28.28 1.05.15 1.75.04l1.25.02c-1.2-1.52-2.46-3-3.75-4.44.25-.01.52-.05.8-.09l1.45.03-2.73-2.75c3.37 2.29 6.79 4.5 10.23 6.65.73.46 2.17.27 3.56.07l3.44.07c-.69-.68-1.4-1.34-2.1-2l.66-.07 3.44.07-.24-.15c.1.04.2.09.24.15-.6-.87-1.24-1.73-1.88-2.57h.02l3.36.07-3.6-3.06a58.74 58.74 0 0 0 7.6 3.92c.56.23 1.7.16 2.92.06l4.08.08-.47-.22c.21.05.38.12.47.22a114.1 114.1 0 0 0-3.5-3.68c1.14.55 2.3 1.06 3.5 1.54.48.19 1.67.14 2.94.06l4.06.08-.41-.17c.2.03.35.09.41.17-.43-.61-.9-1.2-1.34-1.8 1.14.02 2.4 0 3.27-.04.19.73.37 1.47.57 2.2.11.41 6.93.44 7 .14l.16-.82.34.68c.25.47 6.67.61 7 .14 4.07-5.83 3.64-14.25 2.73-20.96a71.14 71.14 0 0 0-3.32-14.52c-.42-2.5-.92-5-1.52-7.48a265 265 0 0 0-1.43-4.16v.03l-.15-.48-2.51-7.01c-10.76 2.6-22.98-4.48-30.74-12.48-5.38-5.54-9.51-12.55-11.23-20.1-.9-4.03-.92-8.31-.75-12.5-12.5-.05-25.56-6.08-31.58-17.4-3.38-6.36-2.62-14.1-2.29-21 .04-.86.1-1.7.15-2.54-18.18-2.23-30.84-17.17-39.22-32.65l-1.2-2.27a2.1 2.1 0 0 1-.13.52c-3.75-6.37-7.8-12.77-8.68-20.26-.09-.72-.16-1.46-.23-2.2-.6-1.9-1.18-3.82-1.72-5.74-17.1-4.73-30.55-15.62-39.17-31.35-9.08-16.55-12.12-35.95-13.16-54.57-.27-4.76.04-9.61.49-14.36.05-.58.97-7.7 1.2-3.7.29 5.28.79 10.6 1.55 15.88.1-1.7.26-3.39.38-5.01.15-2.08.3-4.19.66-6.25-.08.45.39-2.44.62-1.03.42 2.58 1.05 5.1 1.85 7.57.22-6.17.85-14.72 1.3-14.62.32.07.63.15.93.24-4.81-7.84-8.8-16.33-10.71-25.1-2.08-9.55-1.39-21.33 1-30.74 1.67-6.6 8.03-9.06 14.17-9.67-4.38-4.26-8.8-8.5-11.73-13.95-1-1.88-1.48-4-1.66-6.2-.4-.62-.48-2.76-.35-5.1-1 .66-1.9 1.4-2.65 2.2a11 11 0 0 0-1.38 2.55c-.44 2.06-.37 4.18.15 6.18a29.51 29.51 0 0 0 3.73 6.21c.47.54.97 1.06 1.51 1.56.43.32.87.63 1.34.9-.08-.05-.21-.04-.35-.02.83.7 1.71 1.38 2.63 2.02l.13.11c-9.48-1.41-18.99 1.44-25.29 9.47a46.69 46.69 0 0 0-9.48 31.74.76.76 0 0 0-.39.14c-28.85 23.3-43.14 67.16-29.07 102.13-8.98 6.48-14.21 19.5-15.77 29.78-.65 4.37.5 8.75-.16 13.09-.51 3.39-1.8 6.31-3.18 9.42-2.7 6.1-4.17 12.35-3.38 18.86zM319.2 563.02l.7.55 2.23 2.39-.84-.81-2.09-2.13zM146.52 431.4l1.73 1.35h-.12c1.77 1.51 3.56 2.99 5.36 4.45l1.07 1.08c-2.69-2.29-5.37-4.57-8.04-6.88zm-4.92-156.51c5.35-16.1 14.85-30.9 27.33-41.77.29 2.19.73 4.34 1.37 6.43.12.4 2.94-.13 3 .06a36.05 36.05 0 0 1-1.43-8.53l.1.43c.1.39 2.24.35 4.13.26 0 .52 0 1.05.04 1.58 0 .07 1.5.22 3.1.31a83.97 83.97 0 0 0-.63 3.94c-3.65 6.28-6.7 12.86-10.15 19.3l-.83 1.51a58.65 58.65 0 0 1-4.43 3.09c-4.07 2.53-7.88 5.07-10.57 9.13l1.5.03.4.03a249.5 249.5 0 0 0-1.87 3.64l-.3.15c-.46 0-.9.04-1.27.16-.17.05-.33.13-.5.2l.04-.18-.78-.02c-1.7-.13-5.68-.58-6.22-.13l-.48.46c-.57-.05-1.1-.09-1.55-.08zm-12.95 79.46c.31-.96.64-1.92 1-2.88-.19.72-.36 1.45-.53 2.18-.15.23-.3.47-.47.7z"/></g><path d="M202.89 186.92c-.3-.27-.62-.52-.91-.81-4.22-4.26-5.33-10.13-4.73-15.85a5.94 5.94 0 0 0-1.34 2.73c-.02.11-1 0-1 .02.29-1.66 1.37-2.86 2.51-4.01l.12-.75c.36-.21.72-.41 1.1-.6-.08.37-.13.75-.19 1.12.1.01.17 0 .2-.03l-.23.24c-.04.25-.09.5-.12.76l.09.01-.1.01c-.54 4.38-.12 8.77 2.03 12.76.87 1.62 2 3.02 3.31 4.24l-.74.16zM237.35 170.02a36.2 36.2 0 0 0-5.3-2.89h-.01l-.7-.3-.17-.06c.09.03.3-.01.5-.04.32-1.04.73-2 1.22-2.95-.28 0-.18-.03.02-.05.23-.43.48-.87.74-1.3.22-.57.45-1.13.73-1.68-.12 0-.22-.02-.22 0 1.46-3.88 4.02-7.14 6.26-10.6.4-.46.8-.93 1.17-1.42l.18.01c-.03.4-.04.81-.06 1.21l-.03.24-.02.54.01.82-.01 1.94.06.02c.14 3.68.55 7.32 1.69 10.85 1.45 4.54 4.34 8.37 7.75 11.63H250.7c-.21.03-.43.06-.53.02-1.19-.44-2.36-.95-3.52-1.47-.1 0-.18 0-.24-.03l-.48-.3c-1.78-.81-3.53-1.68-5.3-2.52-1.01-.48-2.12-1.09-3.28-1.67z" fill="#AF764F"/><path d="M194.66 173.26c.07-.42.2-.83.35-1.2.3-.8.74-1.57 1.4-2.05.12-.1.34-.05.55-.02.27-.08.77.08.93.01-.92.4-1.5 1.14-1.87 2.01a8.8 8.8 0 0 0-.36 1.23c-.03.1-.77.03-.96.02h-.04z" fill="#C5956D"/><path d="M202.52 186.77l.23.18c-.67.16-1.33.35-1.99.56a42.09 42.09 0 0 1-1.85-1.75h.35c-.6-.5-1.2-1.02-1.76-1.57l-.17-.06a31.97 31.97 0 0 1-2.96-5.2 13.37 13.37 0 0 1-.2-6.26l.12-.31.12-.18c.15-.19.32-.36.5-.52.27-.49.6-.96 1-1.4.02-.03.06-.04.11-.05.23-.43.54-.75.98-.9l.02-.03h.06a2.24 2.24 0 0 1 .82-.04c-.01.09-.05.17-.07.26h.33c-.17.24-.32.5-.45.75.19.02.36.03.43 0-.22.1-.41.22-.6.34l-.05.08-.26.8c.1 0 .18.02.18.02-.02 1.61-.08 3.22-.14 4.83a22.05 22.05 0 0 1 1.39 4.67l-.2.02c.2.44.41.87.64 1.3.36.5.73 1 1.12 1.5 1.23.69 2.26 1.49 2.69 2.93h-.12l-.27.03zM168.83 225.32c-.09-2.07.08-4.12.74-6.12.14-1.07.33-2.13.59-3.18L170 216h-.1c.55-2.56 1.67-4.87 2.84-7.19a13.2 13.2 0 0 1 4.28-7.73l.35-.53a13.73 13.73 0 0 1 4.5-5.35 16.58 16.58 0 0 1 9.74-4.71c2.16-.84 4.4-1.42 6.62-1.65-.23.59-.42 1.63-.57 2.9h-.26a19.9 19.9 0 0 0-1-.16c-1.97.35-3.93.8-5.82 1.34-1.68.47-3.58 1.1-5.4 1.95l-.3.2-.35.24c-.4.3-.78.6-1.15.92.2.02.42.05.5.01-.36.19-.7.42-1.05.66a43.8 43.8 0 0 0-6.43 10.58c-.02.03-.06.04-.12.05.03.34.07.68.13 1.03.03.2-.01.93-.02.86-.1-.64-.17-1.27-.21-1.89-.16 0-.36 0-.53-.02-.6 2.9-.64 5.97 0 9 .06.29-.05.76 0 .96-.7-3.28-.7-6.7-.08-9.97H175.4l-.3.49h.05c-.69 1.47-1.15 3.02-1.74 4.53-.76 4.47-1.84 8.94-2.09 13.45.18.01.32.02.33.01l-.29 1.26c.03.15.03.3.04.5l-.12.02c0 .9.03 1.81.12 2.72 0 .02-.4.05-.7.05-.1.65-.22 1.3-.3 1.95-.01.05-.3.06-.56.05l.06.95c0 .03-1 .1-1 .02-.08-1-.11-1.98-.11-2.97-.21 0-.4-.02-.4-.03.1-1.74.25-3.47.43-5.2zM390.19 218l-.53.07c-1.16.03-2.33 0-3.49-.13l-.1.02c-1.91-.3-3.77-.91-5.64-1.47-2.67-1.72-4.8-3.97-5.93-7 4.22 1.46 8.94 1.95 12.97 2.11 10.22.42 20.43-1.04 28.65-7.21 0 .04 0 .07.02.12h.04c-.2.4-.4.83-.62 1.24l-.04.04-.07.06v.03c-.55.69-1.12 1.37-1.67 2.07-.39.38-.78.73-1.18 1.07a9.4 9.4 0 0 1-1.6 1.61c-1.57 1.66-3.94 2.78-5.83 3.8a23.28 23.28 0 0 1-7.02 2.29 34.25 34.25 0 0 1-7.97 1.33V218zM359.93 167.5c4.35 2.58 9.58 3.15 14.6 3.02 3.8-.1 7.92-.53 11.42-2.18.01.07.03.1.05.12v-.15l.13-.06v.12l.02-.01-.02.31-.03.75c-.2 2-1.1 4-2.9 4.86l-.28.18c-.09.17-.2.31-.33.46-.01.03-.02.06-.05.08l-.15.1c-.24.22-.52.42-.82.6-2.24 1.5-5.11 2.75-7.75 2.79 0 .07-.01.13-.03.13-3.55.04-6.92-3.84-9.62-5.75-.06-.04-.07-.15-.06-.27a14.51 14.51 0 0 1-4.45-5.1c0 .02.12.01.27 0zM410.02 296.82l.47.15v-.14l.68.26c2.8.38 5.98 1.37 8.28 3.2 3.15 3.4 4.62 7.82 2.3 12.5a17.8 17.8 0 0 1-6.6 2.17c-1.8.02-3.67-.09-5.5-.37-.37-.12-.74-.25-1.1-.4l-.39-.1v.08l-.43-.2c-1.24-.3-2.47-.65-3.68-1.03l-.04.04v-.05l-.35-.1c-.32-.16-.64-.32-.95-.5 1.68-5.5 5.2-10.18 7.31-15.5zM380.9 532a67.3 67.3 0 0 0-2.19-8.14c1.17.4 2.33.82 3.5 1.24l.24.72a87.29 87.29 0 0 1 2.02 9.19c.18.42.34.85.5 1.27.1 0 .18.02.19.04l.27 1.15c1.2 3.33 2.04 6.8 2.4 10.31.67 3.47 1.04 6.99 1 10.54 0 .03-.99.1-1 .02-.06-.2-.1-.41-.14-.62-.1.32-.22.63-.37.94-.03.07-.33.05-.6.03-.06.55-.14 1.1-.23 1.63 0 .02-.06.04-.15.04l-.02.13c0 .06-.37.05-.66.04-.28.02-.84 0-.84-.02 0-.48-.02-.96-.04-1.44l-.12.92c-.02.06-.55.05-.83.03v.3c0 .06-1 .06-1 .02 0-5.27-.03-10.54-.16-15.8-.2 0-.35-.01-.35-.03 0-.27-.03-.54-.04-.82-.07 0-.12 0-.12-.02-.03-2.46-.2-4.9-.52-7.31l-.1-.73-.2-1.38-.14-.68c-.17-.53-.35-1.05-.55-1.56.01.02.12 0 .25-.01zM344.38 502.8c-1.7-.8-3.33-1.78-4.87-3.02-.26-.2-.49-.43-.73-.64 1.86 1.23 3.73 2.45 5.6 3.66zM269.6 406.63a57.74 57.74 0 0 1-7.18-11.55c2.44 3.81 4.81 7.68 7.18 11.55z" fill="#AF764F"/><g fill="#AF764F"><path d="M315.28 566.12h.08l-.05.01h-.03z"/><path d="M307.65 560.32c1.28.89 2.44 1.98 3.63 2.97.75.6 1.5 1.2 2.28 1.77a17.22 17.22 0 0 0 1.45.93l.27.13a.24.24 0 0 0-.13.05c.04-.03.1-.03.16-.04.23.1.18 0 .05-.01.27 0 .66.14.8.04-.91.77-2.65-.42-3.33-.9-2.18-1.48-4.01-3.42-6.17-4.92.19.13.75-.19 1-.02z"/></g><path d="M213.45 477.3c.7 0 .05.07-.26.07-.7 0-.05-.07.26-.07zM116.49 401.67c0 1.4.16 2.69.54 3.86.08.77.4 1.44.97 1.99.2.28.43.56.67.82-.15.03-.28.05-.35 0a801.94 801.94 0 0 1 16.48 13.34c2.98 3.58 6.77 6.38 10.57 9.05.3.2.58.42.87.63l.27.22c4.7 4.06 9.34 8.2 13.94 12.39 2.6 2.2 5.17 4.42 7.73 6.64 1.68 1.37 3.35 2.75 4.97 4.19.07-.01.14 0 .17.02l-3.47-3.22c.58.47 1.17.92 1.78 1.36 2.03 1.78 4.05 3.57 6.2 5.21h-.01l1.54 1.2c-.08 0-.15 0-.2-.03l.61.34 3.28 2.52c-.1.01-.19.01-.23-.03 1.05.91 2.13 1.8 3.2 2.67-.14.03-.28.05-.37 0 .67.42 1.32.86 1.97 1.3 3.34 2.66 6.78 5.2 10.24 7.72 2.44 2.03 4.9 4.03 7.4 6.02 2.33 1.96 4.67 3.92 7.04 5.82 3.48 2.8 7 5.54 10.54 8.25 1.4 1.12 2.81 2.23 4.23 3.33 2.98 3.27 7.06 5.95 10.34 8.68l.48.4c1.4 1.34 2.83 2.67 4.26 3.98.02.01.05 0 .06.02 3 2.37 5.94 4.8 8.94 7.15.13.1.38.04.6-.01 2.04 1.7 4.02 3.48 6.07 5.17.03.03.07.02.1.03.42.34.82.7 1.22 1.04 2 1.66 4.03 3.27 6 4.96.93.81 1.88 1.81 3.03 2.32.04.02.1.01.16.02l.42.35c4.3 3.67 8.33 7.85 13.27 10.67a130.1 130.1 0 0 1 6.13 5.61c.12.11.4.04.64 0 1.38 1.12 2.77 2.23 4.2 3.3.56.45 1.13.9 1.68 1.37h-.02l.23.18a95.56 95.56 0 0 1 3.77 3.32c.1.09.3.05.5.01l.2.19c-.09 0-.16 0-.2-.03 5.32 4.35 10.01 9.46 15.84 13.16.25.16.8-.14 1-.01-.71-.45-1.4-.93-2.08-1.42.41.22.82.43 1.26.6.27.11.8-.1.97-.03-1.04-.41-2-.96-2.9-1.58-4.29-4.68-9.34-8.46-14.42-12.2-.5-.47-.99-.93-1.5-1.37-.04-.05-.12-.06-.2-.05-.32-.27-.63-.54-.97-.79-1.4-1.3-2.81-2.6-4.24-3.87-3.9-4.45-8.8-7.9-13.09-11.96-.2-.19-.85.15-1 .02a90.21 90.21 0 0 0 3.4 3.04l-.06-.06c-.07-.05-.16-.06-.27-.05l-.9-.78c-.08-.07-.21-.07-.36-.05-5.39-4.46-10.9-8.8-15.97-13.62-.15-.14-.55.01-.8.04-3.98-3.4-8.18-6.53-12.2-9.87-.1-.08-.27-.06-.45-.02l-.11-.09-2.7-2.36c.28.08.75-.16.92-.03a187.9 187.9 0 0 1-8-5.87c2.3 1.52 4.63 2.99 7 4.38.27.16.79-.14 1-.01-2.67-1.57-5.29-3.23-7.87-4.95.26-.03.56-.15.7-.05a181.8 181.8 0 0 1-4.34-2.84c-.4-.4-.82-.8-1.25-1.18.03 0 .08 0 .1.02-1.18-1-2.37-1.99-3.56-2.96.26-.02.6-.14.72-.04l-.9-.67c3.88 2.66 7.79 5.3 11.74 7.85.25.16.8-.15 1-.02a521.75 521.75 0 0 1-25.95-17.95c.24-.05.5-.13.61-.05l-5.61-4.14c.26.11.76-.15.95-.02a762.1 762.1 0 0 1-19.45-13.68c.13-.02.23-.03.28.01l-.36-.34h.02c2.95 2.05 5.9 4.12 8.84 6.2.24.16.8-.16 1-.03-4.26-3-8.52-6-12.83-8.93-1.14-1.03-2.3-2.05-3.47-3.04.24.14.8-.16.97-.03-10.31-7.91-20.47-16-30.65-24.09a315.22 315.22 0 0 0-11.63-8.78 799.7 799.7 0 0 0-11.57-9.79c-.28-.33-.56-.66-.82-1-.06-.08-.24-.07-.43-.03-4.56-3.77-9.16-7.5-13.8-11.16.1-.02.18-.02.23.02a7.92 7.92 0 0 1-1.88-1.84h.05c-.06-.04-.1-.1-.16-.15a7.57 7.57 0 0 1-.97-2c-.01-.11-.04-.22-.04-.34l-.08-.02c-.3-1.07-.41-2.23-.42-3.48 0-.05-1-.04-1 .01zm149.45 126.5l.14-.03c2.98 2.64 6.06 5.17 9.15 7.69-.18.04-.34.07-.4.01l2.63 2.3c-2.64-2.18-5.12-4.57-7.71-6.77l-3.81-3.2z" fill="#AF764F"/><path d="M120.45 408.13c.7 0 .05.07-.26.07-.7 0-.05-.07.26-.07z" fill="#AF764F"/><g fill="#FFF"><path d="M341.51 268.64l.12-.42h.09c.04 0 .09.02.13.04v-.02l-.2-.1.01-.04c.06 0 .14 0 .21-.02 0-.06.02-.12.03-.17.01-1.08.15-2.14.49-3.18.89-2.72 3.25-5.4 6.16-5.8.36-.04.7-.02 1.03.04l.2-.04c3.98-.63 6.47 3.48 7.72 6.62 1.74 4.4 1.95 9.6.15 14.03-.27.91-.64 1.84-.78 2.28-.63 2.03-2.22 4.36-4.34 5.04-.29.1-.57.16-.84.21-1.49.54-3.24.2-4.58-.52-5.82-3.15-5.8-12.22-5.6-17.95z"/></g><g><path d="M99.53 112.99c.01.02.08.03.17.02l.08-.4c.02-.07.84 0 .93.01.35.04.7.05 1.05.06.83-.06 1.66-.15 2.5-.23.63-.1 1.26-.2 1.9-.28a20.49 20.49 0 0 0 7-3.38c4.3-4.2 8.88-10.7 6.93-16.78-.17-.03-.33-.06-.42-.03l.38-.1c-.02-.07-.03-.15-.06-.22.03.07.83-.1.97 0 5.07-.96 9.16 2.62 11.9 7.3 1.86 2.37 3.42 4.94 5.3 7.29 3.61 3.35 7.7 6.13 11.64 9.1 4.44 3.37 8.82 6.83 13.16 10.32 3.74 3.01 7.45 6.05 11.16 9.1a39.42 39.42 0 0 1 5.42 4.47l2.52 2.07c1.92 1.4 3.78 2.9 5.48 4.5 2.66 2.18 5.34 4.35 8.03 6.5.17-.03.33-.04.42.03 1.16.98 2.32 2 3.48 3a95.6 95.6 0 0 1 7.97 6.2l1.47 1.1c.43.28.87.52 1.3.77 1.37.62 2.72 1.27 4.05 1.95.06 0 .1 0 .15.02.49.21.97.44 1.44.69 1.51.57 3.13 1.15 4.68 1.83.79.3 1.56.67 2.27 1.12 2.33 1.31 4.29 3.03 5.17 5.6 1.4 4.03.22 9.09-1.85 13.08a22.13 22.13 0 0 1-2.42 4.22c-.16.22-.33.42-.5.62a12.1 12.1 0 0 1-6.34 4.95c-.42.21-.85.39-1.31.55 0 .04 0 .08-.02.12-.01.06-.57.1-1.2.1a20.52 20.52 0 0 1-7.2 1.27c-5.26-.1-8.2-3.38-10.95-7.55a28.37 28.37 0 0 0-2.9-3.62.47.47 0 0 1-.25-.14c-.4-.48-.83-.94-1.25-1.41-.82-.82-1.67-1.63-2.53-2.45a364.67 364.67 0 0 0-9.1-8.4 674.57 674.57 0 0 0-17.93-15.37c-8.47-7.07-17.07-14-25.91-20.6-3.46-2.27-6.9-4.57-10.42-6.76-4.96-3.1-10.19-5.67-15.29-8.52a73.07 73.07 0 0 1-6.96-4.42c-.81-.59-1.6-1.18-2.22-1.84a5.27 5.27 0 0 1-1.78-5.14l-.1-.32z" fill="url(#a)" transform="translate(0 335)"/><path d="M213.51 203.2c.01.02.08.02.17.02l.08-.4c.02-.07.84 0 .94 0 .34.05.69.06 1.04.07.83-.06 1.66-.15 2.5-.23.63-.1 1.27-.2 1.9-.28a20.49 20.49 0 0 0 7-3.39c4.31-4.18 8.88-10.7 6.93-16.78-.17-.02-.33-.05-.41-.02l.38-.1-.07-.22c.03.07.83-.1.97 0 5.07-.97 9.16 2.62 11.9 7.3 1.87 2.37 3.43 4.94 5.3 7.29 3.61 3.35 7.71 6.13 11.64 9.1 4.45 3.36 8.82 6.82 13.17 10.32 3.73 3 7.44 6.05 11.15 9.1a39.42 39.42 0 0 1 5.42 4.47l2.52 2.07c1.92 1.4 3.78 2.9 5.48 4.5 2.67 2.18 5.34 4.35 8.03 6.5.17-.03.33-.04.42.03 1.16.98 2.32 2 3.48 3 2.78 1.95 5.47 4 7.98 6.2l1.46 1.1c.43.28.87.52 1.31.77 1.36.62 2.71 1.27 4.04 1.94.06 0 .1.01.15.03.5.21.97.44 1.44.69 1.52.57 3.13 1.15 4.68 1.83.79.3 1.56.67 2.27 1.12 2.33 1.31 4.29 3.03 5.17 5.6 1.4 4.03.22 9.09-1.85 13.07a22.18 22.18 0 0 1-2.92 4.85 12.1 12.1 0 0 1-6.34 4.95c-.41.2-.85.39-1.3.55l-.03.11c-.01.07-.56.1-1.2.1a20.52 20.52 0 0 1-7.2 1.28c-5.26-.1-8.19-3.38-10.95-7.56a28.29 28.29 0 0 0-2.9-3.61.48.48 0 0 1-.25-.14c-.4-.48-.83-.94-1.24-1.41-.83-.82-1.68-1.63-2.53-2.45a364.67 364.67 0 0 0-9.1-8.4 674.57 674.57 0 0 0-17.94-15.37c-8.47-7.07-17.06-14-25.91-20.6-3.46-2.27-6.9-4.57-10.41-6.76-4.97-3.1-10.2-5.67-15.3-8.53a73.07 73.07 0 0 1-6.96-4.42c-.81-.58-1.6-1.17-2.22-1.83a5.27 5.27 0 0 1-1.78-5.15l-.1-.31z" fill="url(#b)" transform="translate(0 335)"/><path d="M22.85 49.74a601.99 601.99 0 0 1 25.77 20.49A676.17 676.17 0 0 1 66.56 85.6c3.07 2.76 6.12 5.54 9.1 8.4.85.82 1.7 1.63 2.53 2.45l1.25 1.4a22.56 22.56 0 0 1 3.14 3.77c2.76 4.17 5.69 7.44 10.96 7.55 2.46.05 4.88-.47 7.2-1.28.63 0 1.18-.03 1.2-.1.47-.27.9-.45 1.32-.66a12.11 12.11 0 0 0 6.34-4.95c.17-.2.34-.4.5-.63a22.18 22.18 0 0 0 2.42-4.22c2.07-3.98 3.25-9.04 1.86-13.08-.89-2.56-2.84-4.28-5.18-5.59a12.3 12.3 0 0 0-2.27-1.12c-1.55-.69-3.16-1.26-4.67-1.83-.48-.25-.96-.48-1.45-.69-1.48-.7-2.83-1.35-4.19-1.97-.44-.25-.88-.5-1.3-.77-.5-.36-.98-.74-1.47-1.1a95.6 95.6 0 0 0-7.97-6.2l-3.48-3c-.1-.07-.26-.06-.43-.03-2.69-2.15-5.36-4.32-8.03-6.5a59.2 59.2 0 0 0-5.48-4.5l-2.51-2.07a39.5 39.5 0 0 0-5.43-4.47c-3.7-3.05-7.41-6.1-11.15-9.1-4.35-3.5-8.72-6.96-13.17-10.32-3.46-2.62-7.03-5.1-10.32-7.95-.34-.2-.68-.45-1-.75l-1.89-1.77a87.05 87.05 0 0 1-5.18-4.3c-.4-.3-.8-.62-1.19-.94-.3-.24-.54-.5-.75-.76L15.23 8a49.57 49.57 0 0 1-3.58-2.65c-.9-.63-1.93-1.46-3.06-2.29-.61-.36-1.23-.73-1.85-1.08C5.5 1.6 4.42.95 3.26.5c-1.54-.59-2.51.62-3 1.83A53.02 53.02 0 0 0 2.14 19.7c1.9 7.24 5.34 13.95 9.28 20.3a67.19 67.19 0 0 1 4.45 3.9 93.8 93.8 0 0 1 6.97 5.85zm-8.52-11.1c-1.54-.2-2.6-1.74-3.37-3.39a19.05 19.05 0 0 1-2.5-5.02 68.95 68.95 0 0 1-3.55-9.84l-.37-.9-.26-.53.05.02-.22-.53C2.89 15.4.77 10.33 1.4 6.42l.01-.25V6c-.06-.95.04-1.85.6-2.15.52-.8 1.37-1.2 2.7-.7a5 5 0 0 1 1.96 1.47A5.3 5.3 0 0 1 9.2 8.13a31.31 31.31 0 0 1 3.65 6.99c2.03 4.41 3.12 9.39 3.84 14.04.07.45.23 1.32.32 2.28.14.79.22 1.58.2 2.37.1 2.62-.62 5.13-2.89 4.83z" fill="url(#c)" transform="translate(0 335)"/><path d="M337.25 299.07c0 .03.07.03.17.02l.07-.4c.03-.07.84 0 .94.01.34.04.7.05 1.04.06.83-.06 1.66-.15 2.5-.23l1.9-.27a20.49 20.49 0 0 0 7-3.4c4.31-4.18 8.88-10.7 6.93-16.77-.17-.03-.32-.05-.41-.02.13-.05.25-.07.38-.11l-.07-.22c.03.07.83-.1.98 0 5.07-.96 9.16 2.62 11.9 7.3 1.86 2.38 3.42 4.94 5.29 7.3 3.62 3.34 7.71 6.13 11.64 9.1 4.45 3.36 8.82 6.82 13.17 10.31 3.74 3.01 7.45 6.06 11.15 9.1a39.42 39.42 0 0 1 5.43 4.47l2.51 2.07c1.92 1.4 3.78 2.91 5.48 4.5 2.33 1.9 4.66 3.8 7 5.67 1.92 1.99 4.19 3.7 6.25 5.46 1.56 1.33 3.13 2.65 4.73 3.93.25.44.5.87.73 1.31a93.21 93.21 0 0 1 4.08 8.75 62.42 62.42 0 0 1 2.65 24.6 4.48 4.48 0 0 1-2.07 2.25c-.16.08-.31.13-.46.17-1.07-.22-2.22-.98-3.06-1.43-.1-.06-.22-.1-.34-.12-1.53-1.22-3.1-2.38-4.46-3.57-1.48-1.3-3-2.55-4.52-3.79a290.6 290.6 0 0 0-20.98-17.01c-2.35-1.85-4.69-3.71-7.06-5.53-2.1-1.6-4.22-3.16-6.36-4.69l-1.45-1.22c-8.47-7.07-17.06-14-25.9-20.59-3.47-2.27-6.9-4.58-10.42-6.77-4.96-3.1-10.2-5.67-15.3-8.52a73.07 73.07 0 0 1-6.95-4.42c-.82-.58-1.6-1.17-2.22-1.83a5.27 5.27 0 0 1-1.78-5.15l-.12-.32z" fill="url(#d)" transform="translate(0 335)"/><path d="M.6 340.69c-.2 1.64.1 3.48.18 4.93 0 .05.46.05.76.03.29 3.72 1.23 7.37 2.87 10.85.06.12.56.02.82-.01l-.33-1.18-.3-.71-.32-.64c.01.01.04.02.09.02a30.67 30.67 0 0 1-1.88-8.84h.11c-.03-.3-.04-.61-.05-.91l-.09-.35c-.03-1.94.09-3.9.41-5.86.1-.05.22-.09.35-.1.54.28 1.07.56 1.6.86 2.68 1.94 4.83 4.65 6.71 7.35.07.1.45.03.72 0h.28a18.44 18.44 0 0 0-2.52-3.96l.35-.04h.3a9.12 9.12 0 0 0-1.45-2.05l.82.55c.1.06.36.03.6 0h.4c-.06-.1-.13-.17-.2-.25h.2l-.17-.28c.07 0 .13 0 .17.03l-.26-.18-.06-.07a68.77 68.77 0 0 1 4.96 3.93c3.67 3.13 7.08 6.53 10.61 9.82.2.18.85-.14 1 0-3.13-2.92-6.17-5.98-9.41-8.8-2.05-1.5-4.1-3-6.18-4.46-1.88-1.31-4.42-3.53-7.03-4.8l-.38-.13c-.75-.22-2.06-.47-2.8-.04-1.44.84-1.34 3.1-.88 5.29zm2.54-3.47c1.48.2 2.93.95 4.14 1.97-.33-.2-.67-.41-1.01-.6-.95-.64-2-1.12-3.08-1.35l-.05-.02zm-1.13-.48a1 1 0 0 0-.42 0c.09-.41.23-.85.56-1.1.5-.4 1.06-.27 1.6-.04h-.47c-.02 0-.28.02-.23.03l.49.16.08.04c-.18.02-.37.05-.48.16l.01.01h.02c.16.07.4.03.62 0l.51.36c-.29-.03-.7.06-.88.02l.82.2c.31.33.64.62.99.9A7.44 7.44 0 0 0 3 337.1l.02-.11-.5-.04c-.16-.07-.34-.16-.52-.22zm-.58 1.66c0-.42.02-.83.08-1.24l.47.14-.1.66c-.14.08-.27.18-.37.31l-.08.13z" fill="#FEE791"/></g><g fill="#77814D"><path d="M52.77 310.28a71.04 71.04 0 0 0-11.57 16.71 60.88 60.88 0 0 1-1.79-9.28c-.39-3.51-.5-7-.41-10.49.76-11.2 2.95-22.19 5.27-33.16.03-.15.04-.3.03-.44.56-1.8 1.02-3.62 1.5-5.43.31-1.06.63-2.12.93-3.19.12-.12.24-.24.35-.38.22-.13.42-.28.54-.51C60.58 252.48 77 245.55 93.32 240a231.9 231.9 0 0 1 24.5-6.85c.13 0 .26-.01.4-.05l1.45-.34 1.53-.33.62-.18c16.98-3.73 34.56-3.37 51.8-1.62a296.26 296.26 0 0 1 46.89 8.35 294.04 294.04 0 0 1 18.12 5.5c.6 10.8-1.78 21.65-5.4 31.96-1.3 3.7-2.62 7.67-4.14 11.6a46.64 46.64 0 0 0-9.54-3.4c-6.82-2.32-13.99-3.71-21.08-4.9-13.33-2.23-26.7-3.78-40.23-4.01-7.89-.14-15.77.19-23.62.94l-.64.08-.2.07c-.9.02-1.75.17-2.6.4l-1.02.03c-.52.02-1.04.06-1.55.09a219.86 219.86 0 0 0-26.41 4.95c-17.55 4.42-39.18 13.08-49.43 27.98zM101.95 540.81l.93-1.86a18.96 18.96 0 0 1 2.7-5.49c.07-.09.74-.62.81-.59 1.38.6 2.73 1.24 4.09 1.86 4.22 1.5 8.28 3.44 12.52 4.9 5.26 1.8 10.66 3.17 16 4.66a460.84 460.84 0 0 0 33.57 7.94c9.77 1.94 19.56 3.86 29.36 5.68.05-.02.1-.04.13-.03 1.19.24 2.38.46 3.56.72 3.05.55 6.1 1.1 9.14 1.63 2 .24 4 .5 5.98.86l.84.02c3.86.7 7.75 1.17 11.67 1.46 6.96.97 13.98 1.55 20.99 1.8l.44.1c6.79.34 13.58.66 20.37.93 9.56.37 19.14.82 28.7.83 7.86 0 15.7-.48 23.54-.12.85-.06 1.7-.06 2.56-.04a17.1 17.1 0 0 1 3.06-.16c.72-.07 1.45-.13 2.17-.23 2.43-.1 4.85-.2 7.27-.33a213.1 213.1 0 0 0 28.98-3.42 133.4 133.4 0 0 0 25.98-9.09 99.58 99.58 0 0 0 27.04-19.73l.2-.27a40.92 40.92 0 0 0 9.16-11.03c.4-.65.78-1.32 1.15-2l.16-.18c.66-1.02 1.3-2.04 1.92-3.07.43-.72.86-1.5 1.28-2.31 1.71-4.4 3.16-8.84 3.77-13.58 0-.04.02-.09.05-.13l-.03-.33c.18-.21.29-.49.3-.81v-.23a12.1 12.1 0 0 0-.2-2.13l.04.04 1.18 1.15h.12l.31.3c.17.45.32.9.48 1.36 4.2 18.14 7.15 36.3 7.63 54.96.06 2.54.1 5.1.13 7.65l-.04 1.46c-.12 4.43-.13 8.9-.23 13.37-.3 5.97-.91 11.91-1.97 17.78-1.65 1.47-3.32 2.9-4.87 4.34a89.93 89.93 0 0 1-21.39 14.68 67.21 67.21 0 0 1-8.35 4.23l-.24.15c-.05.03-.13.03-.2.03-.78.32-1.57.61-2.36.9-.7.32-1.4.63-2.11.92l-.13.06-.15.06-1.1.41c-.16.09-.31.17-.47.24h.14l-.48.16c-.34.13-.69.24-1.05.34a149.95 149.95 0 0 1-15.79 4.84c-9.08 2.71-18.4 4.67-27.7 6.4a353.81 353.81 0 0 1-47.38 5.68 403.8 403.8 0 0 1-42.24-.24 672.8 672.8 0 0 1-49.7-4.73c-44.57-5.75-88.45-15.84-130.46-31.44-1.92-20.54 1.8-41.45 8.22-61.33z"/></g><g fill="#6A6D41"><path d="M157.32 229.63c1 0 2 0 2.98.1-3.08 15.06-2.28 30.53-1.44 45.92-.19 0-.36.05-.54.11a19 19 0 0 0-2.29-.14c-.06 0-.11.02-.17.03-.84-15.43-1.64-30.93 1.46-46.03zM74 247.48a2 2 0 0 0 .56-.12c.12 14.15 2.1 28.52 6.33 42.1-.2.08-.4.19-.6.3l-.01-.01c-.4-.02-.78.15-1.05.43-.34.11-.66.24-.95.41a145.52 145.52 0 0 1-6.7-41.93c.83-.36 1.68-.7 2.41-1.18zM202.01 611.32a184.77 184.77 0 0 0 9.97-51.61c.57.12 1.15.24 1.73.33.28.28.68.46 1.07.46l.17-.02c-.84 16.76-4.15 33.15-9.36 49.17a208.08 208.08 0 0 1-7.65 20.1c-.94-.18-1.88-.32-2.82-.5a242.52 242.52 0 0 0 6.9-17.93zM310.5 566.28c.3.01.57-.1.85-.16h.06c.69.02 1.37.1 2.06.13 4.6 23.93 3.15 49.47-4.96 72.5-.14.02-.27.07-.4.12a1.48 1.48 0 0 0-.58-.12h-1.62c-.16 0-.3.03-.44.06 8.13-23.03 9.6-48.58 5.02-72.53zM400.6 551.03l1.19-.55c10.41 11.32 12.94 30.59 14.08 44.7.6 7.53.46 15.05.18 22.58l-.01.36c-1 .46-2.02.82-3.05 1.2l.06-1.62c.32-7.53.37-15.05-.18-22.57-1-13.63-3.51-32.14-13.1-43.57.11-.07.2-.15.29-.24.22-.05.4-.15.55-.29z"/></g><g fill="#C5CF9A"><path d="M130.91 569.1c4.71-2.08 9.7-2.42 14.6-1.65 6.76 1.63 13.25 4.8 19.11 8.64 1.56 1.17 3 2.42 4.24 3.72 3.64 3.8 5.24 9.21 3.23 14.18-2.03 5.02-7.66 6.51-12.52 7.02-13.2 1.36-27.73-5.25-34.84-16.47-.3-.47-.4-.93-.37-1.35a10.7 10.7 0 0 1-.36-.88c-.61-5.4 1.58-10.84 6.91-13.2zM259.3 591.47c6.88.22 16.22 1.75 21.46 6.95 6.33 5.27 9 13.63.22 19.64-5.66 3.88-13.59 5.21-21.38 4.5h-.01a14.83 14.83 0 0 0-3.43-.39c-.1 0-.2.03-.3.05-.3-.1-.57-.22-.88-.32-6.33-1.25-12.25-3.84-16.37-7.5-.4-.34-.62-.73-.72-1.13a12.6 12.6 0 0 1-3.35-9c.1-11.82 16.2-13.07 24.76-12.8zM360.04 586.84c6.53-2.14 15.84-3.9 22.53-.8 7.75 2.78 13.12 9.72 6.93 18.38-3.99 5.57-10.98 9.54-18.55 11.54h-.01c-1.14.13-2.27.42-3.36.8-.1.04-.18.1-.26.16h-.94c-6.38.98-12.82.58-17.95-1.45-.5-.2-.83-.48-1.06-.81a12.6 12.6 0 0 1-6.23-7.32c-3.95-11.15 10.76-17.82 18.9-20.5zM443.88 541.94a50.9 50.9 0 0 1 6.76-5.33c.65 6.03 1.07 12.11 1.23 18.24.06 2.54.1 5.08.13 7.63l-.04 1.48c-.07 2.53-.1 5.07-.13 7.62a27.5 27.5 0 0 1-6.37 1.2c-.53.04-.96-.08-1.31-.28a12.6 12.6 0 0 1-8.73-4c-8.3-8.43 2.22-20.7 8.46-26.56zM197.43 240.03c6.19.2 14.6 1.57 19.3 6.26 5.7 4.74 8.1 12.26.2 17.68-5.08 3.48-12.22 4.68-19.24 4.04-1-.24-2.05-.34-3.1-.35-.09 0-.17.03-.26.05l-.79-.3c-5.7-1.12-11.02-3.45-14.74-6.73a2.04 2.04 0 0 1-.65-1.03 11.34 11.34 0 0 1-3-8.1c.08-10.64 14.58-11.76 22.28-11.52zM106.16 243.22c6.03-1.4 14.51-2.26 20.27 1.05 6.73 3.1 11 9.75 4.77 17.02-4.01 4.69-10.6 7.7-17.54 8.9-1.04.02-2.07.2-3.08.46-.1.02-.17.07-.25.11l-.83-.08c-5.8.39-11.55-.48-15.99-2.7-.42-.2-.7-.5-.89-.81a11.33 11.33 0 0 1-5-7.05c-2.67-10.3 11.04-15.14 18.54-16.9zM44.22 274.29c2.54-.26 5.05-.14 7.33.6 7.23 1.64 12.78 7.25 8.2 15.66-2.95 5.41-8.77 9.72-15.3 12.34h-.01c-1.01.24-1.98.63-2.92 1.1-.08.04-.14.1-.21.16l-.84.1c-.41.11-.83.2-1.25.3.9-10.2 2.88-20.24 5-30.26z"/></g><g><path d="M146.38 103.9c-9.02 4.72-17.8 9.98-25.94 16.12-10.16 7.65-20.9 16.6-28.67 27.24L.5 92.82l62.24.66-6.52-58.25 56.86 15.6L129.96.22l38.08 94.85c-7.57 1.58-14.92 5.33-21.66 8.85z" fill="url(#e)" transform="translate(71)"/><path d="M100.68 149.81v-.01c.63-.73 1.3-1.44 1.94-2.15.45-.61 1.03-1.2 1.66-1.77 7.16-7.44 15.48-13.86 23.8-19.83 7.24-5.2 14.55-10.26 22.4-14.5 3.95-2.13 8.05-4.05 12.25-5.66 3.01-1.16 6.1-2.1 9.18-3.07.4-.05.77-.13 1.15-.22 3.03 3.1 5.93 6.95 7.15 11.11.37.92.7 1.86.94 2.85.02.1.02.23.01.37.22.67.4 1.35.56 2.05a27.06 27.06 0 0 0-5.42 2.43l-.55.18-1.27.6c-.75.43-1.55.8-2.39 1.14l-3.66 1.81a236.8 236.8 0 0 0-21.04 11.61c-6.1 3.83-11.8 8.26-17.09 13.12-5.07 4.67-10.82 9.3-14.93 14.87a.78.78 0 0 0-.32.4l-.02.02-.02.04c-.23.23-.45.48-.66.72-.25 0-.62.14-.82 0-4.46-2.98-9-6.29-12.67-10.3-.5-.46-.99-.95-1.45-1.45l-.56-.77-.45-.84c.73-.94 1.5-1.85 2.28-2.75z" fill="url(#f)" transform="translate(71)"/></g></g></svg>