<?xml version="1.0" encoding="UTF-8" standalone="no"?>
<svg
   xmlns:dc="http://purl.org/dc/elements/1.1/"
   xmlns:cc="http://creativecommons.org/ns#"
   xmlns:rdf="http://www.w3.org/1999/02/22-rdf-syntax-ns#"
   xmlns:svg="http://www.w3.org/2000/svg"
   xmlns="http://www.w3.org/2000/svg"
   xmlns:sodipodi="http://sodipodi.sourceforge.net/DTD/sodipodi-0.dtd"
   xmlns:inkscape="http://www.inkscape.org/namespaces/inkscape"
   version="1.1"
   id="Calque_1"
   x="0px"
   y="0px"
   viewBox="0 0 617.00409 582.01001"
   xml:space="preserve"
   sodipodi:docname="logo_fav.svg"
   inkscape:version="1.0.2 (e86c870879, 2021-01-15)"
   width="617.00409"
   height="582.01001"><metadata
   id="metadata1205"><rdf:RDF><cc:Work
       rdf:about=""><dc:format>image/svg+xml</dc:format><dc:type
         rdf:resource="http://purl.org/dc/dcmitype/StillImage" /><dc:title></dc:title></cc:Work></rdf:RDF></metadata><defs
   id="defs1203" /><sodipodi:namedview
   pagecolor="#ffffff"
   bordercolor="#666666"
   borderopacity="1"
   objecttolerance="10"
   gridtolerance="10"
   guidetolerance="10"
   inkscape:pageopacity="0"
   inkscape:pageshadow="2"
   inkscape:window-width="2160"
   inkscape:window-height="1346"
   id="namedview1201"
   showgrid="false"
   inkscape:zoom="1.4114583"
   inkscape:cx="297.00004"
   inkscape:cy="313"
   inkscape:window-x="-11"
   inkscape:window-y="-11"
   inkscape:window-maximized="1"
   inkscape:current-layer="g1198" />
<style
   type="text/css"
   id="style2">
	.st0{fill:#885041;}
	.st1{fill:none;stroke:#000000;stroke-miterlimit:10;}
	.st2{fill:url(#SVGID_1_);stroke:#000000;stroke-width:2;stroke-miterlimit:10;}
	.st3{fill:url(#SVGID_2_);stroke:#000000;stroke-width:2;stroke-miterlimit:10;}
	.st4{fill:url(#SVGID_3_);}
	.st5{fill:url(#SVGID_4_);}
	.st6{fill:url(#SVGID_5_);}
	.st7{fill:url(#SVGID_6_);}
	.st8{fill:url(#SVGID_7_);}
	.st9{fill:url(#SVGID_8_);}
	.st10{fill:url(#SVGID_9_);stroke:#7F5600;stroke-miterlimit:10;}
	.st11{fill:url(#SVGID_10_);stroke:#7F5600;stroke-miterlimit:10;}
	.st12{fill:url(#SVGID_11_);stroke:#7F5600;stroke-miterlimit:10;}
	.st13{fill:url(#SVGID_12_);stroke:#7F5600;stroke-miterlimit:10;}
	.st14{fill:url(#SVGID_13_);stroke:#7F5600;stroke-miterlimit:10;}
	.st15{fill:url(#SVGID_14_);}
	.st16{fill:#7F5600;}
	.st17{fill:url(#SVGID_15_);stroke:#000000;stroke-width:2;stroke-miterlimit:10;}
	.st18{fill:none;}
	.st19{fill:#909092;}
	.st20{fill:#413F40;}
	.st21{fill:#FEE003;}
	.st22{fill:#808080;}
	.st23{fill:#56492C;}
	.st24{fill:#3A311D;}
	.st25{fill:#AD9257;}
	.st26{fill:#E6C274;}
	.st27{fill:#E2B905;}
	.st28{opacity:0.5;fill:#ACE2FE;}
	.st29{fill:#413F42;}
	.st30{fill:#020001;}
	.st31{fill:#865141;}
	.st32{fill:#69402F;}
	.st33{fill:#FDF936;}
	.st34{fill:#694123;}
	.st35{fill:url(#SVGID_18_);}
	.st36{fill:#AA968F;}
	.st37{fill:#FFFFFF;}
	.st38{fill:#F20102;}
	.st39{fill:#AC0102;}
	.st40{fill:#E50102;}
	.st41{fill:#312F32;}
	.st42{fill:#80701E;}
	.st43{fill:url(#SVGID_19_);}
	.st44{fill:#B09D7A;}
	.st45{fill:none;stroke:#000000;stroke-width:0.15;stroke-miterlimit:10;}
	.st46{fill:none;stroke:#000000;stroke-width:2;stroke-miterlimit:10;}
	.st47{fill:none;stroke:#000000;stroke-width:1.5;stroke-miterlimit:10;}
	.st48{fill:#442821;}
</style>
<g
   id="g1198"
   transform="translate(-385.99996,-71)">
	
	
		
	<path
   class="st1"
   d="m 831.57,540.94 -3.17,-10.62 c 0,0 -0.72,-2.28 6.23,-4.77"
   id="path8" />
	<radialGradient
   id="SVGID_1_"
   cx="905.67572"
   cy="524.07703"
   r="61.9897"
   gradientUnits="userSpaceOnUse">
		<stop
   offset="0.296"
   style="stop-color:#885041"
   id="stop10" />
		<stop
   offset="1"
   style="stop-color:#442821"
   id="stop12" />
	</radialGradient>
	
	<path
   class="st1"
   d="m 562.82,540.88 2.25,-10.85 c 0,0 0.53,-3.24 -6.37,-5.54"
   id="path17" />
	<radialGradient
   id="SVGID_2_"
   cx="486.6929"
   cy="522.57977"
   r="62.588001"
   gradientUnits="userSpaceOnUse">
		<stop
   offset="0.4865"
   style="stop-color:#885041"
   id="stop19" />
		<stop
   offset="0.8918"
   style="stop-color:#442821"
   id="stop21" />
	</radialGradient>
	
	<g
   id="g35">
		
			<radialGradient
   id="SVGID_3_"
   cx="694.83667"
   cy="359.79199"
   r="285.23361"
   fx="689.4903"
   fy="359.38721"
   gradientUnits="userSpaceOnUse">
			<stop
   offset="0.6868"
   style="stop-color:#CC9A01"
   id="stop26" />
			<stop
   offset="1"
   style="stop-color:#9E7902"
   id="stop28" />
		</radialGradient>
		<polygon
   class="st4"
   points="604.35,265 694.67,82.25 785.27,264.86 987.56,294 841.31,436.3 876.02,637.05 695.03,542.4 514.18,637.33 548.58,436.52 402.11,294.45 "
   id="polygon31"
   style="fill:url(#SVGID_3_)" />
		<path
   d="m 694.67,84.51 89.47,180.33 0.47,0.94 1.04,0.15 199.76,28.77 -144.42,140.51 -0.76,0.74 0.18,1.04 34.27,198.24 -178.73,-93.47 -0.93,-0.49 -0.93,0.49 -178.58,93.74 33.97,-198.29 0.18,-1.04 -0.76,-0.73 -144.64,-140.29 199.71,-29.08 1.04,-0.15 0.47,-0.94 89.19,-180.47 M 694.67,80 603.69,264.09 399.95,293.76 547.5,436.88 512.85,639.16 695.02,543.53 877.34,638.88 842.38,436.65 989.72,293.3 785.94,263.95 Z"
   id="path33" />
	</g>
	<g
   id="g46">
		
			<radialGradient
   id="SVGID_4_"
   cx="687.37042"
   cy="77.000099"
   r="19.1297"
   fx="686.93103"
   fy="76.5606"
   gradientTransform="matrix(0.866,0.5,-0.5,0.866,135.2954,-335.9291)"
   gradientUnits="userSpaceOnUse">
			<stop
   offset="0.5923"
   style="stop-color:#A98505"
   id="stop37" />
			<stop
   offset="0.8492"
   style="stop-color:#CD9B01"
   id="stop39" />
		</radialGradient>
		<path
   class="st5"
   d="m 694.49,97 c -2.18,0 -4.34,-0.58 -6.24,-1.68 -5.97,-3.45 -8.02,-11.11 -4.58,-17.08 2.23,-3.86 6.38,-6.25 10.84,-6.25 2.18,0 4.34,0.58 6.24,1.68 5.97,3.45 8.02,11.11 4.58,17.08 -2.23,3.86 -6.38,6.25 -10.84,6.25 z"
   id="path42"
   style="fill:url(#SVGID_4_)" />
		<path
   d="m 694.51,73 v 0 c 2,0 3.99,0.53 5.74,1.54 5.49,3.17 7.38,10.22 4.21,15.71 -2.05,3.55 -5.87,5.75 -9.97,5.75 -2.01,0 -3.99,-0.53 -5.74,-1.54 -5.49,-3.17 -7.38,-10.22 -4.21,-15.71 2.05,-3.55 5.87,-5.75 9.97,-5.75 m 0,-2 c -4.67,0 -9.2,2.42 -11.7,6.75 -3.73,6.46 -1.52,14.71 4.94,18.44 2.13,1.23 4.45,1.81 6.74,1.81 4.67,0 9.2,-2.42 11.7,-6.75 3.73,-6.46 1.52,-14.71 -4.94,-18.44 C 699.12,71.58 696.8,71 694.51,71 Z"
   id="path44" />
	</g>
	<g
   id="g57">
		
			<radialGradient
   id="SVGID_5_"
   cx="392.37009"
   cy="285.99969"
   r="19.130501"
   fx="391.93069"
   fy="285.5603"
   gradientTransform="matrix(0.4685,0.8835,-0.8835,0.4685,471.655,-196.9449)"
   gradientUnits="userSpaceOnUse">
			<stop
   offset="0.5923"
   style="stop-color:#9C7702"
   id="stop48" />
			<stop
   offset="0.8492"
   style="stop-color:#CD9B01"
   id="stop50" />
		</radialGradient>
		<path
   class="st6"
   d="m 399.51,306 c -4.65,0 -8.88,-2.55 -11.06,-6.65 -3.23,-6.09 -0.9,-13.67 5.19,-16.9 1.8,-0.95 3.82,-1.46 5.84,-1.46 4.65,0 8.88,2.55 11.06,6.65 3.23,6.09 0.9,13.67 -5.19,16.9 -1.79,0.96 -3.82,1.46 -5.84,1.46 z"
   id="path53"
   style="fill:url(#SVGID_5_)" />
		<path
   d="m 399.49,282 v 0 c 4.27,0 8.17,2.34 10.17,6.12 1.44,2.71 1.74,5.83 0.83,8.76 -0.9,2.94 -2.89,5.35 -5.61,6.79 -1.66,0.88 -3.52,1.34 -5.38,1.34 -4.27,0 -8.17,-2.34 -10.17,-6.12 -1.44,-2.71 -1.74,-5.83 -0.83,-8.76 0.9,-2.94 2.89,-5.35 5.61,-6.79 1.66,-0.88 3.52,-1.34 5.38,-1.34 m 0,-2 c -2.13,0 -4.3,0.51 -6.31,1.58 -6.59,3.49 -9.1,11.66 -5.6,18.25 2.42,4.57 7.1,7.18 11.94,7.18 2.13,0 4.3,-0.51 6.31,-1.58 6.59,-3.49 9.1,-11.66 5.6,-18.25 C 409,282.6 404.33,280 399.49,280 Z"
   id="path55" />
	</g>
	<g
   id="g68">
		
			<radialGradient
   id="SVGID_6_"
   cx="505.37061"
   cy="631.99988"
   r="19.1297"
   fx="504.93121"
   fy="631.56042"
   gradientTransform="matrix(0.4685,0.8835,-0.8835,0.4685,837.4058,-112.8648)"
   gradientUnits="userSpaceOnUse">
			<stop
   offset="0.5923"
   style="stop-color:#9A7401"
   id="stop59" />
			<stop
   offset="0.8492"
   style="stop-color:#CD9B01"
   id="stop61" />
		</radialGradient>
		<path
   class="st7"
   d="m 512.51,652 c -4.65,0 -8.88,-2.55 -11.06,-6.65 -1.56,-2.95 -1.89,-6.33 -0.91,-9.52 0.98,-3.19 3.14,-5.81 6.09,-7.38 1.8,-0.96 3.82,-1.46 5.84,-1.46 4.65,0 8.88,2.55 11.06,6.65 1.56,2.95 1.89,6.33 0.91,9.52 -0.98,3.19 -3.14,5.81 -6.09,7.38 -1.79,0.96 -3.82,1.46 -5.84,1.46 z"
   id="path64"
   style="fill:url(#SVGID_6_)" />
		<path
   d="m 512.49,628 v 0 c 4.27,0 8.17,2.34 10.17,6.12 1.44,2.71 1.73,5.83 0.83,8.76 -0.9,2.94 -2.89,5.35 -5.61,6.79 -1.66,0.88 -3.52,1.34 -5.38,1.34 -4.27,0 -8.17,-2.34 -10.17,-6.12 -2.97,-5.6 -0.83,-12.58 4.77,-15.55 1.67,-0.88 3.53,-1.34 5.39,-1.34 m 0,-2 c -2.13,0 -4.3,0.51 -6.31,1.58 -6.59,3.49 -9.1,11.66 -5.6,18.25 2.42,4.57 7.1,7.18 11.94,7.18 2.13,0 4.3,-0.51 6.31,-1.58 6.59,-3.49 9.1,-11.66 5.6,-18.25 C 522,628.6 517.33,626 512.49,626 Z"
   id="path66" />
	</g>
	<g
   id="g79">
		
			<radialGradient
   id="SVGID_7_"
   cx="870.37042"
   cy="631.00012"
   r="19.1297"
   fx="869.93103"
   fy="630.56061"
   gradientTransform="matrix(0.866,0.5,-0.5,0.866,436.8127,-353.2072)"
   gradientUnits="userSpaceOnUse">
			<stop
   offset="0.5923"
   style="stop-color:#9F7A03"
   id="stop70" />
			<stop
   offset="0.8492"
   style="stop-color:#CD9B01"
   id="stop72" />
		</radialGradient>
		<path
   class="st8"
   d="m 877.49,651 c -2.18,0 -4.34,-0.58 -6.24,-1.68 -2.89,-1.67 -4.96,-4.36 -5.82,-7.59 -0.86,-3.22 -0.42,-6.59 1.25,-9.49 2.23,-3.86 6.38,-6.25 10.84,-6.25 2.18,0 4.34,0.58 6.24,1.68 2.89,1.67 4.96,4.36 5.82,7.59 0.86,3.22 0.42,6.59 -1.25,9.49 -2.23,3.86 -6.38,6.25 -10.84,6.25 z"
   id="path75"
   style="fill:url(#SVGID_7_)" />
		<path
   d="m 877.51,627 v 0 c 2,0 3.99,0.53 5.74,1.54 5.49,3.17 7.38,10.22 4.21,15.71 -2.05,3.55 -5.87,5.75 -9.97,5.75 -2.01,0 -3.99,-0.53 -5.74,-1.54 -5.49,-3.17 -7.38,-10.22 -4.21,-15.71 2.05,-3.55 5.87,-5.75 9.97,-5.75 m 0,-2 c -4.67,0 -9.2,2.42 -11.7,6.75 -3.73,6.46 -1.52,14.71 4.94,18.44 2.13,1.23 4.45,1.81 6.74,1.81 4.67,0 9.2,-2.42 11.7,-6.75 3.73,-6.46 1.52,-14.71 -4.94,-18.44 -2.13,-1.23 -4.45,-1.81 -6.74,-1.81 z"
   id="path77" />
	</g>
	<g
   id="g90">
		
			<radialGradient
   id="SVGID_8_"
   cx="982.3703"
   cy="285.99991"
   r="19.129999"
   fx="981.93079"
   fy="285.56049"
   gradientTransform="matrix(0.8859,0.4638,-0.4638,0.8859,249.0181,-425.4847)"
   gradientUnits="userSpaceOnUse">
			<stop
   offset="0.5923"
   style="stop-color:#A48004"
   id="stop81" />
			<stop
   offset="0.8492"
   style="stop-color:#CD9B01"
   id="stop83" />
		</radialGradient>
		<path
   class="st9"
   d="m 989.49,306 c -2.03,0 -3.98,-0.48 -5.79,-1.43 -6.11,-3.2 -8.47,-10.77 -5.28,-16.87 2.17,-4.14 6.41,-6.71 11.08,-6.71 2.03,0 3.98,0.48 5.79,1.43 6.11,3.2 8.47,10.77 5.28,16.87 -2.16,4.14 -6.41,6.71 -11.08,6.71 z"
   id="path86"
   style="fill:url(#SVGID_8_)" />
		<path
   d="m 989.51,282 v 0 c 1.87,0 3.66,0.44 5.32,1.31 5.62,2.94 7.8,9.9 4.85,15.52 -1.99,3.8 -5.9,6.17 -10.2,6.17 -1.87,0 -3.66,-0.44 -5.32,-1.31 -5.62,-2.94 -7.8,-9.9 -4.85,-15.52 1.99,-3.81 5.9,-6.17 10.2,-6.17 m 0,-2 c -4.86,0 -9.56,2.63 -11.97,7.24 -3.46,6.61 -0.91,14.76 5.7,18.22 2,1.05 4.14,1.54 6.25,1.54 4.86,0 9.56,-2.63 11.97,-7.24 3.46,-6.61 0.91,-14.76 -5.7,-18.22 -2,-1.05 -4.14,-1.54 -6.25,-1.54 z"
   id="path88" />
	</g>
	<radialGradient
   id="SVGID_9_"
   cx="508.79568"
   cy="344.5"
   r="63.224602"
   gradientUnits="userSpaceOnUse">
		<stop
   offset="0.4153"
   style="stop-color:#CD9B01"
   id="stop92" />
		<stop
   offset="1"
   style="stop-color:#A47F04"
   id="stop94" />
	</radialGradient>
	<polyline
   class="st10"
   points="542.5,400.5 439.09,306.13 578.5,288.5  "
   id="polyline97"
   style="fill:url(#SVGID_9_)" />
	<radialGradient
   id="SVGID_10_"
   cx="874.75623"
   cy="367.2327"
   r="68.057198"
   gradientUnits="userSpaceOnUse">
		<stop
   offset="0.1852"
   style="stop-color:#A37E03"
   id="stop99" />
		<stop
   offset="0.9945"
   style="stop-color:#CD9B01"
   id="stop101" />
	</radialGradient>
	<polyline
   class="st11"
   points="847.7,400.61 950.81,305.14 809.5,288.5  "
   id="polyline104"
   style="fill:url(#SVGID_10_)" />
	
		<radialGradient
   id="SVGID_11_"
   cx="808.54077"
   cy="538.88721"
   r="65.665703"
   fx="846.32758"
   fy="592.59149"
   gradientUnits="userSpaceOnUse">
		<stop
   offset="0.4296"
   style="stop-color:#A37F04"
   id="stop106" />
		<stop
   offset="0.8479"
   style="stop-color:#CD9B01"
   id="stop108" />
	</radialGradient>
	<polyline
   class="st12"
   points="824.24,470.37 852.86,607.41 727.5,538.5  "
   id="polyline111"
   style="fill:url(#SVGID_11_)" />
	
		<radialGradient
   id="SVGID_12_"
   cx="596.71411"
   cy="537.36182"
   r="66.9963"
   fx="542.78589"
   fy="561.65863"
   gradientUnits="userSpaceOnUse">
		<stop
   offset="0.3212"
   style="stop-color:#CD9B01"
   id="stop113" />
		<stop
   offset="0.5674"
   style="stop-color:#AC8806"
   id="stop115" />
	</radialGradient>
	<polyline
   class="st13"
   points="657.4,538.43 536.03,608.22 562.5,466.5  "
   id="polyline118"
   style="fill:url(#SVGID_12_)" />
	
		<radialGradient
   id="SVGID_13_"
   cx="691.77533"
   cy="185.8502"
   r="71.624496"
   fx="704.88422"
   fy="124.0173"
   gradientUnits="userSpaceOnUse">
		<stop
   offset="0.1613"
   style="stop-color:#CD9B01"
   id="stop120" />
		<stop
   offset="0.8927"
   style="stop-color:#9F7902"
   id="stop122" />
	</radialGradient>
	<polyline
   class="st14"
   points="634.05,249.06 694.19,122.64 749.5,246.5  "
   id="polyline125"
   style="fill:url(#SVGID_13_)" />
	<g
   id="g136">
		
			<radialGradient
   id="SVGID_14_"
   cx="706.3407"
   cy="364.66531"
   r="141.062"
   fx="699.77917"
   fy="370.62039"
   gradientUnits="userSpaceOnUse">
			<stop
   offset="0.6501"
   style="stop-color:#D9BC13"
   id="stop127" />
			<stop
   offset="1"
   style="stop-color:#9A7401"
   id="stop129" />
		</radialGradient>
		<circle
   class="st15"
   cx="694.5"
   cy="389.42001"
   r="153"
   id="circle132"
   style="fill:url(#SVGID_14_)" />
		<path
   class="st16"
   d="m 694.5,236.92 c 40.73,0 79.03,15.86 107.83,44.67 28.8,28.81 44.67,67.1 44.67,107.83 0,40.73 -15.86,79.03 -44.67,107.83 -28.8,28.8 -67.1,44.67 -107.83,44.67 -40.73,0 -79.03,-15.86 -107.83,-44.67 -28.8,-28.8 -44.67,-67.1 -44.67,-107.83 0,-40.73 15.86,-79.03 44.67,-107.83 28.81,-28.8 67.1,-44.67 107.83,-44.67 m 0,-1 c -84.78,0 -153.5,68.72 -153.5,153.5 0,84.78 68.72,153.5 153.5,153.5 84.78,0 153.5,-68.72 153.5,-153.5 0,-84.78 -68.72,-153.5 -153.5,-153.5 z"
   id="path134" />
	</g>
	<radialGradient
   id="SVGID_15_"
   cx="697.49109"
   cy="573.30487"
   r="341.3038"
   gradientUnits="userSpaceOnUse"
   gradientTransform="translate(-0.47,0.6)">
		<stop
   offset="0.296"
   style="stop-color:#885041"
   id="stop138" />
		<stop
   offset="1"
   style="stop-color:#442821"
   id="stop140" />
	</radialGradient>
	
	<path
   id="SVGID_x5F_16_x5F_"
   class="st18"
   d="m 497.74,583.74 c 0,0 194.38,81.59 401.22,-0.9" />
	
	<path
   id="SVGID_x5F_17_x5F_"
   class="st18"
   d="m 499.7,583.74 c 0,0 194.38,81.59 401.22,-0.9" />
	
	
	
	
</g>
</svg>
