<?xml version="1.0" standalone="no"?>
<!DOCTYPE svg PUBLIC "-//W3C//DTD SVG 20010904//EN"
 "http://www.w3.org/TR/2001/REC-SVG-20010904/DTD/svg10.dtd">
<svg version="1.0" xmlns="http://www.w3.org/2000/svg"
 width="1280.000000pt" height="640.000000pt" viewBox="0 0 1280.000000 640.000000"
 preserveAspectRatio="xMidYMid meet">
<metadata>
Created by potrace 1.15, written by Peter Selinger 2001-2017
</metadata>
<g transform="translate(0.000000,640.000000) scale(0.100000,-0.100000)"
fill="#795548" stroke="none">
<path d="M370 4664 c-88 -24 -159 -65 -224 -130 -92 -91 -146 -219 -146 -345
l0 -57 88 -7 c49 -4 94 -10 101 -14 7 -5 -27 -34 -89 -76 l-101 -69 38 -33
c21 -18 66 -56 100 -85 l62 -53 -100 -101 -100 -100 90 -209 91 -208 -90 -235
-90 -234 0 -269 c0 -157 5 -290 11 -321 36 -172 168 -316 337 -368 64 -20 107
-20 6046 -20 5447 0 5987 1 6037 16 89 26 166 73 228 140 107 114 132 198 127
428 -2 114 -6 150 -17 156 -8 4 -60 20 -116 36 -57 16 -103 31 -103 34 1 3 55
43 120 89 l120 84 0 60 0 60 -72 -7 c-40 -3 -95 -9 -123 -12 l-50 -5 35 32
c19 17 72 67 116 110 75 72 82 83 87 126 3 27 0 77 -6 113 l-12 65 -144 70
-144 70 163 145 162 145 -85 79 -85 79 74 113 c41 63 74 118 74 123 0 4 -43
38 -95 75 -52 37 -95 69 -95 71 0 1 43 -6 95 -18 53 -11 98 -17 101 -14 4 3 1
36 -5 73 -34 192 -178 350 -366 399 -53 13 -699 15 -6025 14 -5216 0 -5972 -2
-6020 -15z"/>
</g>
</svg>
