<?xml version="1.0" encoding="UTF-8" standalone="no"?>
<svg
   xmlns:dc="http://purl.org/dc/elements/1.1/"
   xmlns:cc="http://creativecommons.org/ns#"
   xmlns:rdf="http://www.w3.org/1999/02/22-rdf-syntax-ns#"
   xmlns:svg="http://www.w3.org/2000/svg"
   xmlns="http://www.w3.org/2000/svg"
   xmlns:sodipodi="http://sodipodi.sourceforge.net/DTD/sodipodi-0.dtd"
   xmlns:inkscape="http://www.inkscape.org/namespaces/inkscape"
   version="1.0"
   width="1280.000000pt"
   height="640.000000pt"
   viewBox="0 0 1280.000000 640.000000"
   preserveAspectRatio="xMidYMid meet"
   id="svg28"
   sodipodi:docname="planche.svg"
   inkscape:version="1.0.2 (e86c870879, 2021-01-15)">
  <defs
     id="defs32" />
  <sodipodi:namedview
     pagecolor="#ffffff"
     bordercolor="#666666"
     borderopacity="1"
     objecttolerance="10"
     gridtolerance="10"
     guidetolerance="10"
     inkscape:pageopacity="0"
     inkscape:pageshadow="2"
     inkscape:window-width="2160"
     inkscape:window-height="1346"
     id="namedview30"
     showgrid="false"
     inkscape:zoom="0.86132813"
     inkscape:cx="853.33333"
     inkscape:cy="421.44218"
     inkscape:window-x="-11"
     inkscape:window-y="-11"
     inkscape:window-maximized="1"
     inkscape:current-layer="svg28" />
  <metadata
     id="metadata22">
Created by potrace 1.15, written by Peter Selinger 2001-2017
<rdf:RDF>
  <cc:Work
     rdf:about="">
    <dc:format>image/svg+xml</dc:format>
    <dc:type
       rdf:resource="http://purl.org/dc/dcmitype/StillImage" />
  </cc:Work>
</rdf:RDF>
</metadata>
  <g
     transform="translate(0.000000,640.000000) scale(0.100000,-0.100000)"
     fill="#795548"
     stroke="none"
     id="g26">
    <path
       d="M370 4664 c-88 -24 -159 -65 -224 -130 -92 -91 -146 -219 -146 -345 l0 -57 88 -7 c49 -4 94 -10 101 -14 7 -5 -27 -34 -89 -76 l-101 -69 38 -33 c21 -18 66 -56 100 -85 l62 -53 -100 -101 -100 -100 90 -209 91 -208 -90 -235 -90 -234 0 -269 c0 -157 5 -290 11 -321 36 -172 168 -316 337 -368 64 -20 107 -20 6046 -20 5447 0 5987 1 6037 16 89 26 166 73 228 140 107 114 132 198 127 428 -2 114 -6 150 -17 156 -8 4 -60 20 -116 36 -57 16 -103 31 -103 34 1 3 55 43 120 89 l120 84 0 60 0 60 -72 -7 c-40 -3 -95 -9 -123 -12 l-50 -5 35 32 c19 17 72 67 116 110 75 72 82 83 87 126 3 27 0 77 -6 113 l-12 65 -144 70 -144 70 163 145 162 145 -85 79 -85 79 74 113 c41 63 74 118 74 123 0 4 -43 38 -95 75 -52 37 -95 69 -95 71 0 1 43 -6 95 -18 53 -11 98 -17 101 -14 4 3 1 36 -5 73 -34 192 -178 350 -366 399 -53 13 -699 15 -6025 14 -5216 0 -5972 -2 -6020 -15z"
       id="path24" />
  </g>
  <path
     style="fill:#784421;stroke-width:1.161"
     d="M 95.69153,621.18645 47.99984,620.55329 37.741061,615.46825 C 19.65252,606.50219 5.6528702,589.13358 2.4431339,571.67604 1.8677809,568.54673 1.0243175,549.98828 0.56877082,530.43501 L -0.259496,494.88362 12.218504,462.27277 24.696503,429.66192 12.801497,402.29958 0.90648961,374.93723 13.804719,361.15518 c 7.094026,-7.58014 12.898229,-14.00656 12.898229,-14.28095 0,-0.27439 -5.746939,-5.33311 -12.770975,-11.24161 -7.0240365,-5.9085 -12.7709753,-10.88736 -12.7709753,-11.06412 0,-0.17676 3.0040817,-2.29279 6.675737,-4.70229 C 18.57189,312.82135 25.54195,307.29022 25.54195,305.81616 c 0,-1.39025 -3.538915,-2.08147 -17.7615935,-3.46919 l -7.89311283,-0.77014 0.73033561,-8.27594 C 3.0407642,265.84208 18.856455,243.74908 42.834684,234.32766 c 6.388182,-2.51002 7.968544,-2.57467 86.036066,-3.51975 43.74059,-0.52953 404.23038,-0.81506 801.08843,-0.63453 l 721.56012,0.32824 7.5465,2.56339 c 23.3504,7.93167 41.7405,30.20588 44.7366,54.18532 l 0.8531,6.82857 -4.5091,-0.73869 c -2.4801,-0.40628 -8.297,-1.46844 -12.9264,-2.36035 -4.6295,-0.89192 -8.4173,-1.20572 -8.4173,-0.69735 0,0.50838 5.4857,4.9221 12.1905,9.80828 6.7048,4.88618 12.1905,9.10238 12.1905,9.36933 0,0.77402 -9.0332,15.32053 -14.692,23.65908 l -5.1805,7.63363 11.3876,10.75486 c 6.9873,6.59923 10.8977,11.08528 10.1199,11.60998 -4.0736,2.7485 -41.1235,36.78984 -40.854,37.53668 0.179,0.49622 8.7488,5.07113 19.0439,10.16646 l 18.7183,9.26425 1.3902,9.50828 c 2.3997,16.41144 2.1914,16.86258 -15.9954,34.6455 l -15.8655,15.51322 5.2245,-0.66214 c 2.8735,-0.36418 8.8817,-0.97694 13.3515,-1.36167 4.4698,-0.38472 9.5637,-0.97044 11.3197,-1.30159 l 3.1928,-0.60208 -0.044,7.92897 -0.044,7.92899 -6.6316,4.53537 c -12.6733,8.66719 -24.5509,17.52837 -24.5889,18.34441 -0.021,0.45146 6.7098,2.9418 14.9574,5.5341 l 14.9958,4.71327 0.8353,8.91477 c 1.2935,13.80265 -0.068,36.92816 -2.6525,45.03291 -4.8154,15.10468 -17.1749,28.66493 -33.5029,36.75788 l -10.1646,5.03804 -63.945,0.74506 c -76.7184,0.8939 -1429.72161,0.79281 -1497.867986,-0.11192 z"
     id="path34"
     transform="scale(0.75000002)" />
  <path
     style="fill:#784421;stroke-width:1.161"
     d="M 65.015873,620.04266 C 47.204157,619.43794 45.451912,619.17687 40.054422,616.32353 26.084708,608.93856 13.773674,597.37228 8.150187,586.34933 3.1927634,576.63198 2.4055567,570.55045 1.1835544,532.52887 L -0.003703,495.58836 12.586674,462.61507 25.177051,429.64179 13.326276,402.3666 1.475501,375.09141 14.089224,361.48111 c 6.937548,-7.48565 12.613724,-13.99955 12.613724,-14.47533 0,-0.47577 -5.52192,-5.67214 -12.270932,-11.54748 -6.7490134,-5.87533 -11.842891,-11.0748 -11.3197284,-11.55438 0.5231625,-0.47957 5.5586799,-4.11964 11.1900384,-8.08903 9.721149,-6.85218 12.424295,-9.67482 10.810612,-11.2885 -0.393727,-0.39372 -6.074595,-1.30081 -12.624153,-2.01574 L 0.58049887,301.21077 0.95727653,295.43985 C 2.6222693,269.93798 16.631428,247.73958 37.600724,237.37599 l 8.984875,-4.44057 32.725342,-0.86668 c 17.998937,-0.47668 379.227699,-0.90347 802.730579,-0.94844 l 770.00518,-0.0817 7.6079,2.8636 c 21.7915,8.20229 38.2788,27.52176 43.0109,50.39934 0.9743,4.7105 1.6155,8.72051 1.4249,8.91114 -0.1906,0.19064 -4.5216,-0.4004 -9.6243,-1.31341 -5.1028,-0.91302 -10.7146,-1.90589 -12.4706,-2.20638 -1.756,-0.3005 -3.1928,-0.056 -3.1928,0.54319 0,0.59926 5.2245,5.0461 11.61,9.88188 6.3855,4.83579 11.61,9.35488 11.61,10.04244 0,0.68755 -4.1796,7.6309 -9.288,15.42967 -5.1084,7.79877 -9.288,14.52356 -9.288,14.94399 0,0.42043 4.8327,5.49728 10.7392,11.28189 l 10.7393,10.51748 -2.9025,2.39906 c -7.5985,6.28056 -38.3129,35.04612 -38.3129,35.88195 0,0.52126 8.3288,5.16032 18.5085,10.30902 10.1797,5.1487 18.7922,9.82033 19.139,10.3814 1.1219,1.8153 2.1725,20.65936 1.3372,23.98705 -0.485,1.93279 -6.9211,9.44454 -16.0346,18.71449 l -15.2244,15.48571 4.5544,-0.0436 c 2.5048,-0.0239 9.9094,-0.70377 16.4545,-1.51064 l 11.9003,-1.46705 v 7.21177 7.21178 l -15.1338,10.72973 c -15.508,10.99506 -17.0042,12.29401 -15.6822,13.61586 0.4198,0.41987 7.1334,2.86674 14.9189,5.4375 l 14.1556,4.67411 0.8052,9.86848 c 0.8572,10.50469 -0.6327,35.84867 -2.5193,42.85501 -1.5224,5.6538 -8.473,17.06662 -13.7418,22.56421 -4.9405,5.15488 -14.2653,11.74368 -23.4375,16.56066 l -6.3855,3.35346 -786.576,0.0699 c -432.61678,0.0384 -795.196373,-0.2228 -805.732427,-0.5805 z"
     id="path36"
     transform="scale(0.75000002)" />
</svg>
